<svg width="39" height="38" viewBox="0 0 39 38" fill="none" xmlns="http://www.w3.org/2000/svg">
<path fill-rule="evenodd" clip-rule="evenodd" d="M14.1397 2.1195C13.8389 1.468 14.1702 0.696352 14.8653 0.518127C15.5304 0.347609 16.2096 0.212649 16.901 0.115392C17.6117 0.0154203 18.2128 0.601913 18.1842 1.31902C18.1553 2.04495 18.7707 2.62809 19.4972 2.62634C19.5104 2.62631 19.5236 2.62629 19.5368 2.62629C19.55 2.62629 19.5632 2.62631 19.5764 2.62634C20.3029 2.62809 20.9182 2.04495 20.8894 1.31902C20.8608 0.601916 21.4619 0.0154243 22.1725 0.115397C22.8639 0.212656 23.5432 0.347617 24.2082 0.518136C24.9033 0.696362 25.2346 1.46801 24.9339 2.11951C24.6294 2.77915 24.9754 3.55318 25.6472 3.82985C25.6712 3.83973 25.6952 3.84966 25.7191 3.85965C26.3894 4.13953 27.1814 3.83719 27.4324 3.15559C27.6804 2.48235 28.4604 2.17131 29.0777 2.53688C29.6744 2.89023 30.2498 3.27572 30.8016 3.69096C31.3749 4.12244 31.3855 4.96203 30.8583 5.44884C30.3247 5.94164 30.3478 6.78894 30.8627 7.30132C30.8814 7.31994 30.9001 7.33861 30.9187 7.35732C31.4311 7.87222 32.2784 7.89536 32.7712 7.3617C33.258 6.83453 34.0976 6.84512 34.5291 7.41846C34.9443 7.97022 35.3298 8.54564 35.6831 9.14234C36.0487 9.75968 35.7377 10.5396 35.0644 10.7876C34.3828 11.0387 34.0805 11.8307 34.3604 12.501C34.3703 12.5249 34.3803 12.5488 34.3902 12.5728C34.6668 13.2446 35.4409 13.5907 36.1005 13.2862C36.752 12.9854 37.5237 13.3167 37.7019 14.0118C37.8724 14.6768 38.0074 15.3561 38.1046 16.0475C38.2046 16.7582 37.6181 17.3592 36.901 17.3307C36.175 17.3018 35.5919 17.9171 35.5936 18.6437C35.5937 18.6568 35.5937 18.67 35.5937 18.6832C35.5937 18.6964 35.5937 18.7096 35.5936 18.7229C35.5919 19.4494 36.175 20.0647 36.901 20.0358C37.6181 20.0073 38.2046 20.6084 38.1046 21.319C38.0074 22.0104 37.8724 22.6897 37.7019 23.3547C37.5237 24.0498 36.752 24.3811 36.1005 24.0803C35.4408 23.7758 34.6668 24.1219 34.3901 24.7937C34.3802 24.8177 34.3703 24.8416 34.3603 24.8655C34.0804 25.5358 34.3828 26.3278 35.0644 26.5789C35.7377 26.8269 36.0487 27.6069 35.6831 28.2242C35.3298 28.8209 34.9443 29.3963 34.5291 29.948C34.0976 30.5214 33.258 30.532 32.7712 30.0048C32.2783 29.4711 31.431 29.4942 30.9186 30.0091C30.9 30.0278 30.8814 30.0465 30.8627 30.0651C30.3478 30.5775 30.3246 31.4248 30.8583 31.9176C31.3855 32.4045 31.3749 33.2441 30.8015 33.6756C30.2498 34.0908 29.6744 34.4763 29.0778 34.8296C28.4604 35.1952 27.6804 34.8841 27.4324 34.2109C27.1813 33.5292 26.3893 33.2269 25.719 33.5067C25.6951 33.5167 25.6712 33.5266 25.6472 33.5365C24.9754 33.8132 24.6293 34.5873 24.9338 35.2469C25.2346 35.8985 24.9033 36.6702 24.2081 36.8484C23.5432 37.0189 22.8639 37.1538 22.1726 37.2511C21.4619 37.3511 20.8608 36.7646 20.8894 36.0474C20.9182 35.3214 20.3029 34.7383 19.5763 34.74C19.5631 34.74 19.55 34.7401 19.5368 34.7401C19.5236 34.7401 19.5104 34.74 19.4972 34.74C18.7707 34.7383 18.1553 35.3214 18.1842 36.0474C18.2128 36.7646 17.6117 37.3511 16.9009 37.2511C16.2096 37.1539 15.5304 37.0189 14.8654 36.8484C14.1703 36.6702 13.839 35.8985 14.1397 35.2469C14.4442 34.5873 14.0982 33.8132 13.4263 33.5365C13.4024 33.5267 13.3785 33.5167 13.3546 33.5068C12.6843 33.2269 11.8922 33.5292 11.6412 34.2109C11.3932 34.8841 10.6132 35.1952 9.9958 34.8296C9.39914 34.4763 8.82374 34.0908 8.27201 33.6756C7.69865 33.2441 7.68806 32.4045 8.21525 31.9176C8.74893 31.4248 8.72579 30.5775 8.21087 30.0651C8.19218 30.0465 8.17353 30.0279 8.15494 30.0092C7.64254 29.4943 6.79521 29.4711 6.30239 30.0048C5.81556 30.532 4.97593 30.5214 4.54444 29.948C4.12922 29.3963 3.74375 28.8209 3.39041 28.2242C3.02482 27.6069 3.33587 26.8269 4.00913 26.5789C4.69076 26.3278 4.9931 25.5358 4.71322 24.8655C4.70324 24.8416 4.69331 24.8177 4.68344 24.7937C4.40677 24.1219 3.63271 23.7758 2.97306 24.0803C2.32154 24.3811 1.54987 24.0498 1.37164 23.3547C1.20112 22.6897 1.06617 22.0104 0.96891 21.319C0.868934 20.6084 1.45544 20.0073 2.17256 20.0358C2.89851 20.0647 3.48166 19.4494 3.4799 18.7229C3.47987 18.7096 3.47985 18.6964 3.47985 18.6832C3.47985 18.67 3.47987 18.6568 3.4799 18.6437C3.48165 17.9171 2.8985 17.3018 2.17256 17.3307C1.45544 17.3592 0.868933 16.7582 0.968908 16.0475C1.06616 15.3561 1.20112 14.6768 1.37164 14.0118C1.54987 13.3167 2.32152 12.9854 2.97303 13.2862C3.63267 13.5907 4.40672 13.2446 4.68338 12.5728C4.69325 12.5488 4.70319 12.5249 4.71317 12.5009C4.99305 11.8307 4.6907 11.0387 4.0091 10.7876C3.33585 10.5396 3.02481 9.75967 3.39039 9.14233C3.74374 8.54562 4.12923 7.9702 4.54447 7.41843C4.97594 6.8451 5.81554 6.83451 6.30235 7.36168C6.79515 7.89534 7.64245 7.8722 8.15482 7.3573C8.17345 7.33859 8.19211 7.31992 8.21082 7.3013C8.72572 6.78892 8.74886 5.94163 8.2152 5.44882C7.68803 4.96202 7.69862 4.12242 8.27196 3.69095C8.82372 3.27571 9.39915 2.89022 9.99586 2.53686C10.6132 2.17129 11.3931 2.48233 11.6411 3.15557C11.8922 3.83717 12.6842 4.13951 13.3545 3.85964C13.3784 3.84965 13.4023 3.83971 13.4263 3.82984C14.0981 3.55317 14.4442 2.77914 14.1397 2.1195Z" fill="#1B96D2"/>
<path d="M11 12.6765L19.5 19.1765L27.5 13.1765M10.5 12.1765H28.5V24.1765H10.5V12.1765Z" stroke="white" stroke-width="3" stroke-linejoin="round"/>
</svg>
