<svg width="39" height="39" viewBox="0 0 39 39" fill="none" xmlns="http://www.w3.org/2000/svg">
<path fill-rule="evenodd" clip-rule="evenodd" d="M14.8653 1.37152C14.1702 1.54975 13.8389 2.32139 14.1397 2.9729C14.4442 3.63253 14.0981 4.40657 13.4263 4.68323L13.3545 4.71303C12.6842 4.99291 11.8922 4.69057 11.6411 4.00896C11.3931 3.33573 10.6132 3.02468 9.99586 3.39025C9.39915 3.74361 8.82372 4.1291 8.27196 4.54434C7.69862 4.97582 7.68803 5.81541 8.2152 6.30222C8.74886 6.79502 8.72572 7.64232 8.21082 8.15469L8.15482 8.21069C7.64245 8.72559 6.79515 8.74873 6.30235 8.21507C5.81554 7.6879 4.97594 7.69849 4.54447 8.27183C4.12923 8.82359 3.74374 9.39902 3.39039 9.99572C3.02481 10.6131 3.33585 11.393 4.0091 11.641C4.6907 11.8921 4.99305 12.6841 4.71317 13.3543L4.68338 13.4262C4.40672 14.098 3.63267 14.4441 2.97303 14.1396C2.32152 13.8388 1.54987 14.1701 1.37164 14.8652C1.20112 15.5302 1.06616 16.2095 0.968908 16.9009C0.868933 17.6116 1.45544 18.2126 2.17256 18.1841C2.8985 18.1552 3.48165 18.7705 3.4799 19.497L3.47985 19.5366L3.4799 19.5763C3.48166 20.3028 2.89851 20.9181 2.17256 20.8892C1.45544 20.8607 0.868934 21.4618 0.96891 22.1724C1.06617 22.8638 1.20112 23.5431 1.37164 24.2081C1.54987 24.9032 2.32154 25.2345 2.97306 24.9337C3.63271 24.6292 4.40677 24.9753 4.68344 25.6471L4.71322 25.7189C4.9931 26.3892 4.69076 27.1812 4.00913 27.4323C3.33587 27.6803 3.02482 28.4603 3.39041 29.0776C3.74375 29.6743 4.12922 30.2497 4.54444 30.8014C4.97593 31.3748 5.81556 31.3854 6.30239 30.8582C6.79521 30.3245 7.64254 30.3476 8.15494 30.8626L8.21087 30.9185C8.72579 31.4309 8.74893 32.2782 8.21525 32.771C7.68806 33.2579 7.69865 34.0975 8.27201 34.529C8.82374 34.9442 9.39914 35.3297 9.9958 35.683C10.6132 36.0486 11.3932 35.7375 11.6412 35.0643C11.8922 34.3826 12.6843 34.0803 13.3546 34.3602L13.4263 34.3899C14.0982 34.6666 14.4442 35.4407 14.1397 36.1003C13.839 36.7519 14.1703 37.5236 14.8654 37.7018C15.5304 37.8723 16.2096 38.0072 16.9009 38.1045C17.6117 38.2045 18.2128 37.6179 18.1842 36.9008C18.1553 36.1748 18.7707 35.5917 19.4972 35.5934L19.5368 35.5935L19.5763 35.5934C20.3029 35.5917 20.9182 36.1748 20.8894 36.9008C20.8608 37.6179 21.4619 38.2045 22.1726 38.1045C22.8639 38.0072 23.5432 37.8723 24.2081 37.7018C24.9033 37.5235 25.2346 36.7519 24.9338 36.1003C24.6293 35.4406 24.9754 34.6666 25.6472 34.3899L25.719 34.3601C26.3893 34.0803 27.1813 34.3826 27.4324 35.0642C27.6804 35.7375 28.4604 36.0486 29.0778 35.683C29.6744 35.3297 30.2498 34.9442 30.8015 34.529C31.3749 34.0975 31.3855 33.2579 30.8583 32.771C30.3246 32.2782 30.3478 31.4309 30.8627 30.9185L30.9186 30.8625C31.431 30.3476 32.2783 30.3245 32.7712 30.8582C33.258 31.3854 34.0976 31.3748 34.5291 30.8014C34.9443 30.2497 35.3298 29.6743 35.6831 29.0776C36.0487 28.4602 35.7377 27.6803 35.0644 27.4323C34.3828 27.1812 34.0804 26.3892 34.3603 25.7189L34.3901 25.6471C34.6668 24.9753 35.4408 24.6292 36.1005 24.9337C36.752 25.2345 37.5237 24.9032 37.7019 24.208C37.8724 23.543 38.0074 22.8638 38.1046 22.1724C38.2046 21.4618 37.6181 20.8607 36.901 20.8892C36.175 20.9181 35.5919 20.3028 35.5936 19.5763L35.5937 19.5366L35.5936 19.497C35.5919 18.7705 36.175 18.1552 36.901 18.1841C37.6181 18.2126 38.2046 17.6116 38.1046 16.9009C38.0074 16.2095 37.8724 15.5302 37.7019 14.8652C37.5237 14.1701 36.752 13.8388 36.1005 14.1396C35.4409 14.4441 34.6668 14.098 34.3902 13.4262L34.3604 13.3544C34.0805 12.6841 34.3828 11.8921 35.0644 11.641C35.7377 11.393 36.0487 10.6131 35.6831 9.99573C35.3298 9.39903 34.9443 8.82361 34.5291 8.27185C34.0976 7.69851 33.258 7.68793 32.7712 8.21509C32.2784 8.74875 31.4311 8.72561 30.9187 8.21071L30.8627 8.15471C30.3478 7.64233 30.3247 6.79504 30.8583 6.30223C31.3855 5.81543 31.3749 4.97583 30.8016 4.54436C30.2498 4.12912 29.6744 3.74363 29.0777 3.39027C28.4604 3.0247 27.6804 3.33574 27.4324 4.00898C27.1814 4.69058 26.3894 4.99292 25.7191 4.71305L25.6472 4.68324C24.9754 4.40658 24.6294 3.63254 24.9339 2.97291C25.2346 2.3214 24.9033 1.54976 24.2082 1.37153C23.5432 1.20101 22.8639 1.06605 22.1725 0.968791C21.4619 0.868818 20.8608 1.45531 20.8893 2.17242C20.9182 2.89835 20.3029 3.48149 19.5764 3.47973L19.5368 3.47968L19.4972 3.47973C18.7707 3.48149 18.1553 2.89835 18.1842 2.17242C18.2128 1.45531 17.6117 0.868814 16.901 0.968786C16.2096 1.06604 15.5304 1.201 14.8653 1.37152ZM19.5001 11.1031C16.7387 11.1031 14.5001 13.3417 14.5001 16.1031C14.5001 16.7078 14.7543 17.7505 15.2759 19.1124C15.7788 20.4254 16.4683 21.8796 17.1975 23.2413C17.9272 24.604 18.6778 25.8392 19.2918 26.717C19.3935 26.8624 19.6068 26.8624 19.7084 26.717C20.3224 25.8392 21.0731 24.604 21.8028 23.2413C22.5319 21.8796 23.2215 20.4254 23.7244 19.1124C24.246 17.7505 24.5001 16.7078 24.5001 16.1031C24.5001 13.3417 22.2615 11.1031 19.5001 11.1031ZM11.5001 16.1031C11.5001 11.6849 15.0818 8.10315 19.5001 8.10315C23.9184 8.10315 27.5001 11.6849 27.5001 16.1031C27.5001 17.2934 27.0668 18.7732 26.5259 20.1854C25.9663 21.6464 25.2183 23.2179 24.4475 24.6574C23.6772 26.096 22.8653 27.4377 22.1668 28.4364C21.8212 28.9306 21.4787 29.3763 21.1644 29.7139C21.0099 29.8798 20.827 30.0581 20.6247 30.2064C20.4838 30.3096 20.0699 30.6031 19.5001 30.6031C18.9303 30.6031 18.5164 30.3096 18.3755 30.2064C18.1732 30.0581 17.9903 29.8798 17.8359 29.7139C17.5215 29.3763 17.1791 28.9306 16.8334 28.4364C16.1349 27.4377 15.3231 26.096 14.5528 24.6574C13.7819 23.2179 13.034 21.6464 12.4744 20.1854C11.9335 18.7732 11.5001 17.2934 11.5001 16.1031ZM16.5001 16.1031C16.5001 14.4463 17.8433 13.1031 19.5001 13.1031C21.157 13.1031 22.5001 14.4463 22.5001 16.1031C22.5001 17.76 21.157 19.1031 19.5001 19.1031C17.8433 19.1031 16.5001 17.76 16.5001 16.1031Z" fill="#1B96D2"/>
</svg>
