<svg width="38" height="38" viewBox="0 0 38 38" fill="none" xmlns="http://www.w3.org/2000/svg">
<path fill-rule="evenodd" clip-rule="evenodd" d="M17.6022 1.61626C17.6308 0.899154 17.0297 0.312662 16.319 0.412633C15.6276 0.50989 14.9484 0.64485 14.2833 0.815368C13.5882 0.993593 13.2569 1.76524 13.5577 2.41674C13.8622 3.07638 13.5161 3.85041 12.8443 4.12708C12.8203 4.13696 12.7964 4.14689 12.7725 4.15688C12.1022 4.43675 11.3102 4.13441 11.0591 3.45281C10.8111 2.77957 10.0312 2.46853 9.41386 2.8341C8.81715 3.18746 8.24172 3.57295 7.68996 3.98819C7.11662 4.41966 7.10603 5.25926 7.6332 5.74607C8.16686 6.23887 8.14372 7.08616 7.62882 7.59854C7.61011 7.61716 7.59144 7.63583 7.57282 7.65454C7.06045 8.16944 6.21315 8.19258 5.72035 7.65892C5.23354 7.13175 4.39394 7.14234 3.96247 7.71567C3.54723 8.26744 3.16174 8.84286 2.80838 9.43957C2.44281 10.0569 2.75385 10.8369 3.4271 11.0848C4.1087 11.3359 4.41105 12.1279 4.13117 12.7982C4.12119 12.8221 4.11125 12.8461 4.10138 12.87C3.82471 13.5418 3.05067 13.8879 2.39103 13.5834C1.73952 13.2827 0.967865 13.614 0.789638 14.3091C0.619123 14.9741 0.484164 15.6533 0.386908 16.3447C0.286932 17.0554 0.873436 17.6565 1.59056 17.6279C2.3165 17.599 2.89965 18.2144 2.8979 18.9409C2.89787 18.9541 2.89785 18.9672 2.89785 18.9804C2.89785 18.9936 2.89787 19.0069 2.8979 19.0201C2.89966 19.7466 2.3165 20.362 1.59056 20.3331C0.873437 20.3045 0.286933 20.9056 0.386909 21.6163C0.484165 22.3076 0.619122 22.9869 0.789634 23.6519C0.967865 24.347 1.73953 24.6783 2.39106 24.3776C3.05071 24.0731 3.82477 24.4191 4.10144 25.0909C4.11131 25.1149 4.12124 25.1388 4.13122 25.1628C4.4111 25.8331 4.10876 26.6251 3.42713 26.8761C2.75387 27.1241 2.44282 27.9041 2.80841 28.5215C3.16175 29.1181 3.54722 29.6935 3.96244 30.2453C4.39393 30.8186 5.23356 30.8292 5.72039 30.302C6.21321 29.7684 7.06054 29.7915 7.57294 30.3064C7.59153 30.3251 7.61018 30.3437 7.62887 30.3623C8.14378 30.8747 8.16693 31.7221 7.63325 32.2149C7.10606 32.7017 7.11665 33.5413 7.69001 33.9728C8.24174 34.388 8.81713 34.7735 9.4138 35.1269C10.0312 35.4924 10.8112 35.1814 11.0592 34.5081C11.3102 33.8265 12.1023 33.5241 12.7726 33.804C12.7965 33.814 12.8204 33.8239 12.8443 33.8338C13.5162 34.1104 13.8622 34.8845 13.5577 35.5442C13.257 36.1957 13.5883 36.9674 14.2834 37.1456C14.9484 37.3161 15.6276 37.4511 16.3189 37.5483C17.0297 37.6483 17.6308 37.0618 17.6022 36.3446C17.5733 35.6187 18.1887 35.0355 18.9152 35.0373C18.9284 35.0373 18.9416 35.0373 18.9548 35.0373C18.968 35.0373 18.9811 35.0373 18.9943 35.0373C19.7209 35.0355 20.3362 35.6187 20.3074 36.3446C20.2788 37.0618 20.8799 37.6483 21.5906 37.5483C22.2819 37.4511 22.9612 37.3161 23.6261 37.1456C24.3213 36.9674 24.6526 36.1957 24.3518 35.5442C24.0473 34.8845 24.3934 34.1104 25.0652 33.8337C25.0892 33.8239 25.1131 33.814 25.137 33.804C25.8073 33.5241 26.5993 33.8265 26.8504 34.5081C27.0984 35.1814 27.8784 35.4924 28.4958 35.1268C29.0924 34.7735 29.6678 34.388 30.2195 33.9728C30.7929 33.5413 30.8035 32.7017 30.2763 32.2149C29.7426 31.722 29.7658 30.8747 30.2807 30.3623C30.2994 30.3437 30.318 30.3251 30.3366 30.3064C30.849 29.7915 31.6963 29.7683 32.1892 30.302C32.676 30.8292 33.5156 30.8186 33.9471 30.2453C34.3623 29.6935 34.7478 29.1181 35.1011 28.5214C35.4667 27.9041 35.1557 27.1241 34.4824 26.8761C33.8008 26.6251 33.4984 25.833 33.7783 25.1627C33.7883 25.1388 33.7982 25.1149 33.8081 25.0909C34.0848 24.4191 34.8588 24.0731 35.5185 24.3776C36.17 24.6783 36.9417 24.347 37.1199 23.6519C37.2904 22.9869 37.4254 22.3076 37.5226 21.6163C37.6226 20.9056 37.0361 20.3045 36.319 20.3331C35.593 20.362 35.0099 19.7466 35.0116 19.0201C35.0117 19.0069 35.0117 18.9936 35.0117 18.9804C35.0117 18.9672 35.0117 18.9541 35.0116 18.9409C35.0099 18.2144 35.593 17.599 36.319 17.6279C37.0361 17.6565 37.6226 17.0554 37.5226 16.3447C37.4254 15.6533 37.2904 14.9741 37.1199 14.3091C36.9417 13.614 36.17 13.2827 35.5185 13.5834C34.8589 13.8879 34.0848 13.5419 33.8082 12.8701C33.7983 12.8461 33.7883 12.8221 33.7784 12.7982C33.4985 12.1279 33.8008 11.3359 34.4824 11.0849C35.1557 10.8369 35.4667 10.0569 35.1011 9.43958C34.7478 8.84288 34.3623 8.26746 33.9471 7.7157C33.5156 7.14236 32.676 7.13177 32.1892 7.65894C31.6964 8.1926 30.8491 8.16946 30.3367 7.65456C30.3181 7.63585 30.2994 7.61718 30.2807 7.59856C29.7658 7.08618 29.7427 6.23889 30.2763 5.74608C30.8035 5.25928 30.7929 4.41968 30.2196 3.98821C29.6678 3.57296 29.0924 3.18748 28.4957 2.83412C27.8784 2.46855 27.0984 2.77959 26.8504 3.45283C26.5994 4.13443 25.8074 4.43677 25.1371 4.15689C25.1132 4.1469 25.0892 4.13697 25.0652 4.12709C24.3934 3.85043 24.0474 3.07639 24.3519 2.41675C24.6526 1.76525 24.3213 0.993603 23.6262 0.815377C22.9612 0.644858 22.2819 0.509897 21.5905 0.412639C20.8799 0.312666 20.2788 0.899157 20.3074 1.61627C20.3362 2.3422 19.7209 2.92534 18.9944 2.92358C18.9812 2.92355 18.968 2.92353 18.9548 2.92353C18.9416 2.92353 18.9284 2.92355 18.9152 2.92358C18.1887 2.92533 17.5733 2.34219 17.6022 1.61626ZM21.0073 14.4165C22.1011 13.2606 23.4135 13.1077 24.4159 13.5084C25.4205 13.91 26.2655 14.9282 26.2655 16.5071C26.2655 17.1742 26.003 18.0583 25.4446 19.1259C24.8974 20.1722 24.1289 21.2769 23.2685 22.353C22.1653 23.7326 20.9557 25.0105 19.9687 25.9899C19.4062 26.5482 18.5033 26.5482 17.9408 25.9899C16.9538 25.0105 15.7442 23.7326 14.6411 22.353C13.7806 21.2769 13.0121 20.1722 12.4649 19.1259C11.9065 18.0583 11.644 17.1742 11.644 16.5071C11.644 14.8854 12.457 13.9206 13.3822 13.5533C14.3175 13.1821 15.6464 13.3138 16.8747 14.5122C18.0269 15.6364 19.9362 15.5483 21.0073 14.4165ZM29.2655 16.5071C29.2655 13.7243 27.6946 11.5882 25.5294 10.7227C23.7864 10.0259 21.7561 10.1916 20.0282 11.3395C19.3433 11.7945 18.4185 11.8154 17.7231 11.3765C15.9824 10.2778 13.9977 10.0813 12.2754 10.765C10.1145 11.6227 8.64402 13.7588 8.64402 16.5071C8.64402 17.8718 9.14955 19.2601 9.80656 20.5163C10.4747 21.7939 11.369 23.0647 12.298 24.2265C14.1566 26.551 16.2628 28.5733 17.2994 29.5269C18.2391 30.3915 19.6704 30.3914 20.6102 29.5269C21.6467 28.5733 23.7529 26.551 25.6115 24.2265C26.5405 23.0646 27.4348 21.7939 28.103 20.5163C28.76 19.2601 29.2655 17.8718 29.2655 16.5071Z" fill="#3C4950" fill-opacity="0.23"/>
</svg>
