<svg width="39" height="39" viewBox="0 0 39 39" fill="none" xmlns="http://www.w3.org/2000/svg">
<path fill-rule="evenodd" clip-rule="evenodd" d="M18.1841 2.17242C18.2126 1.45531 17.6116 0.868814 16.9009 0.968786C16.2095 1.06604 15.5302 1.201 14.8652 1.37152C14.1701 1.54975 13.8388 2.32139 14.1396 2.9729C14.4441 3.63253 14.098 4.40657 13.4262 4.68323C13.4022 4.69311 13.3783 4.70304 13.3543 4.71303C12.6841 4.99291 11.8921 4.69057 11.641 4.00896C11.393 3.33573 10.6131 3.02468 9.99574 3.39025C9.39903 3.74361 8.8236 4.1291 8.27183 4.54434C7.6985 4.97582 7.68791 5.81541 8.21508 6.30222C8.74873 6.79502 8.7256 7.64232 8.2107 8.15469C8.19199 8.17332 8.17332 8.19198 8.1547 8.21069C7.64232 8.72559 6.79503 8.74873 6.30222 8.21507C5.81542 7.6879 4.97582 7.69849 4.54435 8.27183C4.12911 8.82359 3.74362 9.39902 3.39026 9.99572C3.02469 10.6131 3.33573 11.393 4.00898 11.641C4.69058 11.8921 4.99293 12.6841 4.71305 13.3543C4.70306 13.3783 4.69313 13.4022 4.68326 13.4262C4.40659 14.098 3.63255 14.4441 2.97291 14.1396C2.3214 13.8388 1.54974 14.1701 1.37152 14.8652C1.201 15.5302 1.06604 16.2095 0.968786 16.9009C0.868811 17.6116 1.45531 18.2126 2.17244 18.1841C2.89838 18.1552 3.48153 18.7705 3.47978 19.497C3.47975 19.5102 3.47973 19.5234 3.47973 19.5366C3.47973 19.5498 3.47975 19.563 3.47978 19.5763C3.48154 20.3028 2.89838 20.9181 2.17244 20.8892C1.45532 20.8607 0.868812 21.4618 0.968788 22.1724C1.06604 22.8638 1.201 23.5431 1.37151 24.2081C1.54974 24.9032 2.32141 25.2345 2.97294 24.9337C3.63259 24.6292 4.40665 24.9753 4.68332 25.6471C4.69319 25.6711 4.70312 25.695 4.7131 25.7189C4.99298 26.3892 4.69064 27.1812 4.00901 27.4323C3.33575 27.6803 3.0247 28.4603 3.39029 29.0776C3.74363 29.6743 4.1291 30.2497 4.54432 30.8014C4.97581 31.3748 5.81544 31.3854 6.30227 30.8582C6.79509 30.3245 7.64241 30.3476 8.15482 30.8626C8.17341 30.8812 8.19206 30.8999 8.21075 30.9185C8.72566 31.4309 8.74881 32.2782 8.21512 32.771C7.68794 33.2579 7.69853 34.0975 8.27189 34.529C8.82362 34.9442 9.39901 35.3297 9.99568 35.683C10.613 36.0486 11.393 35.7375 11.641 35.0643C11.8921 34.3826 12.6841 34.0803 13.3545 34.3602C13.3783 34.3701 13.4023 34.38 13.4262 34.3899C14.098 34.6666 14.4441 35.4407 14.1396 36.1003C13.8388 36.7519 14.1702 37.5236 14.8653 37.7018C15.5303 37.8723 16.2095 38.0072 16.9008 38.1045C17.6115 38.2045 18.2126 37.6179 18.1841 36.9008C18.1552 36.1748 18.7706 35.5917 19.4971 35.5934C19.5103 35.5934 19.5235 35.5935 19.5366 35.5935C19.5498 35.5935 19.563 35.5934 19.5762 35.5934C20.3028 35.5917 20.9181 36.1748 20.8892 36.9008C20.8607 37.6179 21.4618 38.2045 22.1725 38.1045C22.8638 38.0072 23.543 37.8723 24.208 37.7018C24.9031 37.5235 25.2345 36.7519 24.9337 36.1003C24.6292 35.4406 24.9753 34.6666 25.6471 34.3899C25.6711 34.38 25.695 34.3701 25.7189 34.3601C26.3892 34.0803 27.1812 34.3826 27.4323 35.0642C27.6803 35.7375 28.4603 36.0486 29.0776 35.683C29.6743 35.3296 30.2497 34.9442 30.8014 34.529C31.3748 34.0975 31.3854 33.2579 30.8582 32.771C30.3245 32.2782 30.3476 31.4309 30.8626 30.9185C30.8812 30.8999 30.8999 30.8812 30.9185 30.8625C31.4309 30.3476 32.2782 30.3245 32.771 30.8582C33.2579 31.3854 34.0975 31.3748 34.529 30.8014C34.9442 30.2497 35.3297 29.6743 35.683 29.0776C36.0486 28.4602 35.7375 27.6803 35.0643 27.4323C34.3827 27.1812 34.0803 26.3892 34.3602 25.7189C34.3702 25.695 34.3801 25.671 34.39 25.6471C34.6666 24.9753 35.4407 24.6292 36.1003 24.9337C36.7519 25.2345 37.5235 24.9032 37.7018 24.208C37.8723 23.543 38.0072 22.8638 38.1045 22.1724C38.2045 21.4618 37.618 20.8607 36.9008 20.8892C36.1749 20.9181 35.5917 20.3028 35.5935 19.5763C35.5935 19.563 35.5936 19.5498 35.5936 19.5366C35.5936 19.5234 35.5935 19.5102 35.5935 19.497C35.5918 18.7705 36.1749 18.1552 36.9008 18.1841C37.618 18.2126 38.2045 17.6116 38.1045 16.9009C38.0072 16.2095 37.8723 15.5302 37.7018 14.8652C37.5235 14.1701 36.7519 13.8388 36.1004 14.1396C35.4407 14.4441 34.6667 14.098 34.39 13.4262C34.3802 13.4022 34.3702 13.3783 34.3602 13.3544C34.0804 12.6841 34.3827 11.8921 35.0643 11.641C35.7376 11.393 36.0486 10.6131 35.683 9.99573C35.3297 9.39903 34.9442 8.82361 34.529 8.27185C34.0975 7.69851 33.2579 7.68793 32.7711 8.21509C32.2783 8.74875 31.431 8.72561 30.9186 8.21071C30.9 8.192 30.8813 8.17333 30.8626 8.15471C30.3477 7.64233 30.3246 6.79504 30.8582 6.30223C31.3854 5.81543 31.3748 4.97583 30.8015 4.54436C30.2497 4.12912 29.6743 3.74363 29.0776 3.39027C28.4602 3.0247 27.6803 3.33574 27.4323 4.00898C27.1813 4.69058 26.3893 4.99292 25.719 4.71305C25.695 4.70305 25.6711 4.69312 25.6471 4.68324C24.9753 4.40658 24.6292 3.63254 24.9338 2.97291C25.2345 2.3214 24.9032 1.54976 24.2081 1.37153C23.5431 1.20101 22.8638 1.06605 22.1724 0.968791C21.4617 0.868818 20.8607 1.45531 20.8892 2.17242C20.9181 2.89835 20.3028 3.48149 19.5763 3.47973C19.5631 3.4797 19.5499 3.47968 19.5366 3.47968C19.5234 3.47968 19.5102 3.4797 19.497 3.47973C18.7705 3.48149 18.1552 2.89835 18.1841 2.17242ZM21.5892 14.9727C22.683 13.8168 23.9953 13.6638 24.9977 14.0645C26.0024 14.4662 26.8474 15.4844 26.8474 17.0633C26.8474 17.7304 26.5849 18.6144 26.0265 19.6821C25.4793 20.7284 24.7108 21.833 23.8503 22.9092C22.7472 24.2888 21.5376 25.5666 20.5506 26.5461C19.9881 27.1043 19.0852 27.1043 18.5227 26.5461C17.5357 25.5666 16.3261 24.2888 15.223 22.9092C14.3625 21.833 13.594 20.7284 13.0468 19.6821C12.4884 18.6144 12.2259 17.7304 12.2259 17.0633C12.2259 15.4416 13.0388 14.4768 13.9641 14.1095C14.8994 13.7382 16.2282 13.87 17.4566 15.0684C18.6088 16.1926 20.5181 16.1044 21.5892 14.9727ZM29.8474 17.0633C29.8474 14.2804 28.2765 12.1444 26.1113 11.2789C24.3682 10.5821 22.338 10.7477 20.6101 11.8956C19.9252 12.3507 19.0004 12.3716 18.305 11.9327C16.5643 10.834 14.5796 10.6375 12.8573 11.3211C10.6963 12.1789 9.2259 14.315 9.2259 17.0633C9.2259 18.428 9.73143 19.8162 10.3884 21.0724C11.0566 22.35 11.9509 23.6208 12.8799 24.7826C14.7385 27.1072 16.8447 29.1295 17.8812 30.0831C18.821 30.9476 20.2523 30.9476 21.192 30.0831C22.2286 29.1295 24.3348 27.1072 26.1934 24.7826C27.1224 23.6208 28.0167 22.35 28.6848 21.0724C29.3419 19.8162 29.8474 18.428 29.8474 17.0633Z" fill="#1B96D2"/>
</svg>
