<svg width="39" height="39" viewBox="0 0 39 39" fill="none" xmlns="http://www.w3.org/2000/svg">
<path fill-rule="evenodd" clip-rule="evenodd" d="M14.7919 1.37152C14.0968 1.54975 13.7655 2.32139 14.0663 2.9729C14.3708 3.63253 14.0247 4.40657 13.3529 4.68323L13.281 4.71303C12.6108 4.99291 11.8188 4.69057 11.5677 4.00896C11.3197 3.33573 10.5398 3.02468 9.92245 3.39025C9.32574 3.74361 8.75031 4.1291 8.19854 4.54434C7.62521 4.97582 7.61462 5.81541 8.14179 6.30222C8.67545 6.79502 8.65231 7.64232 8.13741 8.15469L8.08141 8.21069C7.56904 8.72559 6.72174 8.74873 6.22894 8.21507C5.74213 7.6879 4.90253 7.69849 4.47106 8.27183C4.05582 8.82359 3.67033 9.39902 3.31698 9.99572C2.9514 10.6131 3.26244 11.393 3.93569 11.641C4.61729 11.8921 4.91964 12.6841 4.63976 13.3543L4.60997 13.4262C4.33331 14.098 3.55926 14.4441 2.89962 14.1396C2.24811 13.8388 1.47646 14.1701 1.29823 14.8652C1.12771 15.5302 0.992755 16.2095 0.895498 16.9009C0.795523 17.6116 1.38203 18.2126 2.09915 18.1841C2.82509 18.1552 3.40824 18.7705 3.40649 19.497L3.40644 19.5366L3.40649 19.5763C3.40825 20.3028 2.8251 20.9181 2.09915 20.8892C1.38203 20.8607 0.795524 21.4618 0.8955 22.1724C0.992756 22.8638 1.12771 23.5431 1.29823 24.2081C1.47646 24.9032 2.24813 25.2345 2.89965 24.9337C3.5593 24.6292 4.33336 24.9753 4.61003 25.6471L4.63981 25.7189C4.91969 26.3892 4.61735 27.1812 3.93572 27.4323C3.26246 27.6803 2.95141 28.4603 3.317 29.0776C3.67034 29.6743 4.05581 30.2497 4.47103 30.8014C4.90252 31.3748 5.74215 31.3854 6.22898 30.8582C6.7218 30.3245 7.56913 30.3476 8.08153 30.8626L8.13746 30.9185C8.65238 31.4309 8.67552 32.2782 8.14184 32.771C7.61465 33.2579 7.62524 34.0975 8.1986 34.529C8.75033 34.9442 9.32573 35.3297 9.92239 35.683C10.5398 36.0486 11.3197 35.7375 11.5677 35.0643C11.8188 34.3826 12.6108 34.0803 13.2812 34.3602L13.3529 34.3899C14.0247 34.6666 14.3708 35.4407 14.0663 36.1003C13.7655 36.7519 14.0969 37.5236 14.792 37.7018C15.457 37.8723 16.1362 38.0072 16.8275 38.1045C17.5382 38.2045 18.1393 37.6179 18.1108 36.9008C18.0819 36.1748 18.6973 35.5917 19.4238 35.5934L19.4634 35.5935L19.5029 35.5934C20.2295 35.5917 20.8448 36.1748 20.8159 36.9008C20.7874 37.6179 21.3885 38.2045 22.0992 38.1045C22.7905 38.0072 23.4698 37.8723 24.1347 37.7018C24.8299 37.5235 25.1612 36.7519 24.8604 36.1003C24.5559 35.4406 24.902 34.6666 25.5738 34.3899L25.6456 34.3601C26.3159 34.0803 27.1079 34.3826 27.359 35.0642C27.607 35.7375 28.387 36.0486 29.0043 35.683C29.601 35.3297 30.1764 34.9442 30.7281 34.529C31.3015 34.0975 31.3121 33.2579 30.7849 32.771C30.2512 32.2782 30.2743 31.4309 30.7893 30.9185L30.8452 30.8625C31.3576 30.3476 32.2049 30.3245 32.6977 30.8582C33.1846 31.3854 34.0242 31.3748 34.4557 30.8014C34.8709 30.2497 35.2564 29.6743 35.6097 29.0776C35.9753 28.4602 35.6642 27.6803 34.991 27.4323C34.3094 27.1812 34.007 26.3892 34.2869 25.7189L34.3167 25.6471C34.5934 24.9753 35.3674 24.6292 36.0271 24.9337C36.6786 25.2345 37.4503 24.9032 37.6285 24.208C37.799 23.543 37.934 22.8638 38.0312 22.1724C38.1312 21.4618 37.5447 20.8607 36.8276 20.8892C36.1016 20.9181 35.5185 20.3028 35.5202 19.5763L35.5203 19.5366L35.5202 19.497C35.5185 18.7705 36.1016 18.1552 36.8276 18.1841C37.5447 18.2126 38.1312 17.6116 38.0312 16.9009C37.934 16.2095 37.799 15.5302 37.6285 14.8652C37.4503 14.1701 36.6786 13.8388 36.0271 14.1396C35.3675 14.4441 34.5934 14.098 34.3167 13.4262L34.2869 13.3544C34.0071 12.6841 34.3094 11.8921 34.991 11.641C35.6643 11.393 35.9753 10.6131 35.6097 9.99573C35.2564 9.39903 34.8709 8.82361 34.4557 8.27185C34.0242 7.69851 33.1846 7.68793 32.6978 8.21509C32.205 8.74875 31.3577 8.72561 30.8453 8.21071L30.7893 8.15471C30.2744 7.64233 30.2513 6.79504 30.7849 6.30223C31.3121 5.81543 31.3015 4.97583 30.7282 4.54436C30.1764 4.12912 29.601 3.74363 29.0043 3.39027C28.387 3.0247 27.607 3.33574 27.359 4.00898C27.108 4.69058 26.316 4.99292 25.6457 4.71305L25.5738 4.68324C24.902 4.40658 24.556 3.63254 24.8605 2.97291C25.1612 2.3214 24.8299 1.54976 24.1348 1.37153C23.4698 1.20101 22.7905 1.06605 22.0991 0.968791C21.3885 0.868818 20.7874 1.45531 20.8159 2.17242C20.8448 2.89835 20.2295 3.48149 19.503 3.47973L19.4634 3.47968L19.4237 3.47973C18.6972 3.48149 18.0819 2.89835 18.1108 2.17242C18.1393 1.45531 17.5383 0.868814 16.8276 0.968786C16.1362 1.06604 15.457 1.201 14.7919 1.37152ZM13.4758 26.2119C12.8021 27.1985 13.5087 28.5366 14.7034 28.5366C15.1946 28.5366 15.654 28.294 15.931 27.8884L25.8509 13.3614C26.5246 12.3747 25.8181 11.0366 24.6233 11.0366C24.1321 11.0366 23.6727 11.2792 23.3957 11.6848L13.4758 26.2119ZM11.1884 19.9366C11.8717 20.32 12.6384 20.5116 13.4884 20.5116C14.355 20.5116 15.1217 20.32 15.7884 19.9366C16.4717 19.5533 17.005 18.995 17.3884 18.2616C17.7884 17.5283 17.9884 16.6616 17.9884 15.6616C17.9884 14.645 17.7884 13.7783 17.3884 13.0616C17.005 12.345 16.4717 11.795 15.7884 11.4116C15.1217 11.0116 14.355 10.8116 13.4884 10.8116C12.6384 10.8116 11.8717 11.0116 11.1884 11.4116C10.505 11.795 9.97169 12.345 9.58835 13.0616C9.20502 13.7783 9.01335 14.645 9.01335 15.6616C9.01335 16.6783 9.20502 17.5533 9.58835 18.2866C9.97169 19.0033 10.505 19.5533 11.1884 19.9366ZM14.5384 17.5616C14.2717 17.945 13.93 18.1366 13.5134 18.1366C13.0967 18.1366 12.7384 17.945 12.4384 17.5616C12.155 17.1783 12.0134 16.545 12.0134 15.6616C12.0134 14.7783 12.155 14.145 12.4384 13.7616C12.7384 13.3783 13.0967 13.1866 13.5134 13.1866C13.93 13.1866 14.2717 13.3783 14.5384 13.7616C14.8217 14.145 14.9634 14.7783 14.9634 15.6616C14.9634 16.545 14.8217 17.1783 14.5384 17.5616ZM23.5134 28.1866C24.1967 28.57 24.9717 28.7616 25.8384 28.7616C26.705 28.7616 27.4717 28.57 28.1384 28.1866C28.8217 27.8033 29.355 27.2533 29.7384 26.5366C30.1384 25.8033 30.3384 24.9283 30.3384 23.9116C30.3384 22.895 30.1384 22.0283 29.7384 21.3116C29.355 20.595 28.8217 20.045 28.1384 19.6616C27.4717 19.2616 26.705 19.0616 25.8384 19.0616C24.9717 19.0616 24.1967 19.2616 23.5134 19.6616C22.8467 20.045 22.3217 20.595 21.9384 21.3116C21.555 22.0283 21.3634 22.895 21.3634 23.9116C21.3634 24.9283 21.555 25.8033 21.9384 26.5366C22.3217 27.2533 22.8467 27.8033 23.5134 28.1866ZM26.8884 25.8116C26.605 26.195 26.255 26.3866 25.8384 26.3866C25.4384 26.3866 25.0884 26.195 24.7884 25.8116C24.505 25.4283 24.3634 24.795 24.3634 23.9116C24.3634 23.0283 24.505 22.395 24.7884 22.0116C25.0884 21.6283 25.4384 21.4366 25.8384 21.4366C26.255 21.4366 26.605 21.6283 26.8884 22.0116C27.1717 22.395 27.3134 23.0283 27.3134 23.9116C27.3134 24.795 27.1717 25.4283 26.8884 25.8116Z" fill="#F59C37"/>
</svg>
