<svg width="39" height="38" viewBox="0 0 39 38" fill="none" xmlns="http://www.w3.org/2000/svg">
<path fill-rule="evenodd" clip-rule="evenodd" d="M18.1842 1.24572C18.2128 0.52861 17.6117 -0.0578829 16.901 0.0420889C16.2096 0.139346 15.5304 0.274306 14.8653 0.444824C14.1702 0.623049 13.8389 1.3947 14.1397 2.0462C14.4442 2.70584 14.0981 3.47987 13.4263 3.75653C13.4023 3.76641 13.3784 3.77635 13.3545 3.78634C12.6842 4.06621 11.8922 3.76387 11.6411 3.08227C11.3931 2.40903 10.6132 2.09799 9.99586 2.46356C9.39915 2.81691 8.82372 3.2024 8.27196 3.61764C7.69862 4.04912 7.68803 4.88871 8.2152 5.37552C8.74886 5.86833 8.72572 6.71562 8.21082 7.228C8.19211 7.24662 8.17345 7.26529 8.15482 7.284C7.64245 7.79889 6.79515 7.82203 6.30235 7.28837C5.81554 6.76121 4.97594 6.77179 4.54447 7.34513C4.12923 7.8969 3.74374 8.47232 3.39039 9.06902C3.02481 9.68636 3.33585 10.4663 4.0091 10.7143C4.6907 10.9654 4.99305 11.7574 4.71317 12.4276C4.70319 12.4516 4.69325 12.4755 4.68338 12.4995C4.40672 13.1713 3.63267 13.5174 2.97303 13.2129C2.32152 12.9121 1.54987 13.2434 1.37164 13.9385C1.20112 14.6035 1.06616 15.2828 0.968908 15.9742C0.868933 16.6849 1.45544 17.2859 2.17256 17.2574C2.8985 17.2285 3.48165 17.8438 3.4799 18.5703C3.47987 18.5835 3.47985 18.5967 3.47985 18.6099C3.47985 18.6231 3.47987 18.6363 3.4799 18.6496C3.48166 19.3761 2.89851 19.9914 2.17256 19.9625C1.45544 19.934 0.868934 20.5351 0.96891 21.2457C1.06617 21.9371 1.20112 22.6164 1.37164 23.2814C1.54987 23.9765 2.32154 24.3078 2.97306 24.007C3.63271 23.7025 4.40677 24.0486 4.68344 24.7204C4.69331 24.7444 4.70324 24.7683 4.71322 24.7922C4.9931 25.4625 4.69076 26.2545 4.00913 26.5056C3.33587 26.7536 3.02482 27.5336 3.39041 28.1509C3.74375 28.7476 4.12922 29.323 4.54444 29.8747C4.97593 30.4481 5.81556 30.4587 6.30239 29.9315C6.79521 29.3978 7.64254 29.421 8.15494 29.9359C8.17353 29.9545 8.19218 29.9732 8.21087 29.9918C8.72579 30.5042 8.74893 31.3515 8.21525 31.8443C7.68806 32.3312 7.69865 33.1708 8.27201 33.6023C8.82374 34.0175 9.39914 34.403 9.9958 34.7563C10.6132 35.1219 11.3932 34.8108 11.6412 34.1376C11.8922 33.4559 12.6843 33.1536 13.3546 33.4335C13.3785 33.4434 13.4024 33.4533 13.4263 33.4632C14.0982 33.7399 14.4442 34.514 14.1397 35.1736C13.839 35.8252 14.1703 36.5969 14.8654 36.7751C15.5304 36.9456 16.2096 37.0805 16.9009 37.1778C17.6117 37.2778 18.2128 36.6912 18.1842 35.9741C18.1553 35.2481 18.7707 34.665 19.4972 34.6667C19.5104 34.6667 19.5236 34.6668 19.5368 34.6668C19.55 34.6668 19.5631 34.6667 19.5763 34.6667C20.3029 34.665 20.9182 35.2481 20.8894 35.9741C20.8608 36.6912 21.4619 37.2778 22.1726 37.1778C22.8639 37.0805 23.5432 36.9456 24.2081 36.7751C24.9033 36.5969 25.2346 35.8252 24.9338 35.1736C24.6293 34.514 24.9754 33.7399 25.6472 33.4632C25.6712 33.4533 25.6951 33.4434 25.719 33.4334C26.3893 33.1536 27.1813 33.4559 27.4324 34.1375C27.6804 34.8108 28.4604 35.1219 29.0778 34.7563C29.6744 34.403 30.2498 34.0175 30.8015 33.6023C31.3749 33.1708 31.3855 32.3312 30.8583 31.8443C30.3246 31.3515 30.3478 30.5042 30.8627 29.9918C30.8814 29.9732 30.9 29.9545 30.9186 29.9358C31.431 29.4209 32.2783 29.3978 32.7712 29.9315C33.258 30.4587 34.0976 30.4481 34.5291 29.8747C34.9443 29.323 35.3298 28.7476 35.6831 28.1509C36.0487 27.5335 35.7377 26.7536 35.0644 26.5056C34.3828 26.2545 34.0804 25.4625 34.3603 24.7922C34.3703 24.7683 34.3802 24.7444 34.3901 24.7204C34.6668 24.0486 35.4408 23.7025 36.1005 24.007C36.752 24.3078 37.5237 23.9765 37.7019 23.2814C37.8724 22.6163 38.0074 21.9371 38.1046 21.2457C38.2046 20.5351 37.6181 19.934 36.901 19.9625C36.175 19.9914 35.5919 19.3761 35.5936 18.6496C35.5937 18.6363 35.5937 18.6231 35.5937 18.6099C35.5937 18.5967 35.5937 18.5835 35.5936 18.5703C35.5919 17.8438 36.175 17.2285 36.901 17.2574C37.6181 17.2859 38.2046 16.6849 38.1046 15.9742C38.0074 15.2828 37.8724 14.6035 37.7019 13.9385C37.5237 13.2434 36.752 12.9121 36.1005 13.2129C35.4409 13.5174 34.6668 13.1713 34.3902 12.4995C34.3803 12.4755 34.3703 12.4516 34.3604 12.4277C34.0805 11.7574 34.3828 10.9654 35.0644 10.7143C35.7377 10.4663 36.0487 9.68637 35.6831 9.06903C35.3298 8.47234 34.9443 7.89691 34.5291 7.34515C34.0976 6.77181 33.258 6.76123 32.7712 7.28839C32.2784 7.82205 31.4311 7.79891 30.9187 7.28402C30.9001 7.2653 30.8814 7.24663 30.8627 7.22801C30.3478 6.71563 30.3247 5.86834 30.8583 5.37554C31.3855 4.88873 31.3749 4.04914 30.8016 3.61766C30.2498 3.20242 29.6744 2.81693 29.0777 2.46358C28.4604 2.09801 27.6804 2.40905 27.4324 3.08228C27.1814 3.76389 26.3894 4.06622 25.7191 3.78635C25.6952 3.77636 25.6712 3.76642 25.6472 3.75654C24.9754 3.47988 24.6294 2.70585 24.9339 2.04621C25.2346 1.39471 24.9033 0.623059 24.2082 0.444832C23.5432 0.274314 22.8639 0.139352 22.1725 0.0420943C21.4619 -0.0578789 20.8608 0.528613 20.8894 1.24572C20.9182 1.97165 20.3029 2.55479 19.5764 2.55304C19.5632 2.553 19.55 2.55299 19.5368 2.55299C19.5236 2.55299 19.5104 2.553 19.4972 2.55304C18.7707 2.55479 18.1553 1.97165 18.1842 1.24572ZM12.4892 27.325C12.7452 27.6524 13.9427 28.3328 14.5963 28.5205C16.3926 29.0424 18.4148 28.3155 20.7866 26.299C24.9864 22.7296 27.9115 16.3806 27.4502 11.816C27.2847 10.15 26.5631 9.02276 25.1213 8.1869C24.4246 7.78355 24.2334 7.71779 23.8409 7.75327C23.0752 7.81945 22.7667 8.1529 21.4871 10.3001C20.7987 11.468 20.3533 12.3289 20.3553 12.5032C20.3465 13.0915 20.5881 13.3607 21.6573 14.0215C22.3733 14.4612 22.7046 14.7185 22.7453 14.8832C22.8101 15.1448 22.375 16.7539 21.9948 17.6707C21.5683 18.6914 20.9651 19.7045 20.2774 20.5432C19.5193 21.4713 18.3902 22.522 18.0606 22.6036C17.9151 22.6397 17.5134 22.4718 16.8724 22.0855C15.8031 21.4659 15.3479 21.3729 14.8239 21.6672C14.4697 21.8577 12.1931 25.5885 12.1338 26.0556C12.0892 26.4574 12.2453 27.0049 12.4892 27.325Z" fill="#1B96D2"/>
</svg>
