<svg width="38" height="38" viewBox="0 0 38 38" fill="none" xmlns="http://www.w3.org/2000/svg">
<path fill-rule="evenodd" clip-rule="evenodd" d="M18.0978 1.49956C18.1333 0.607785 17.3853 -0.122535 16.5039 0.0172229C16.0336 0.0917759 15.5692 0.183807 15.1113 0.29263C14.2424 0.499145 13.8299 1.46066 14.2042 2.27158L14.6429 3.22184C14.9677 3.92542 14.5859 4.75227 13.8702 5.0494C13.1543 5.34664 12.3109 5.02646 12.043 4.29906L11.6818 3.31862C11.373 2.48015 10.4008 2.09214 9.64004 2.56089C9.23723 2.8091 8.84453 3.07212 8.46267 3.34919C7.74002 3.87353 7.72714 4.91927 8.38308 5.52499L9.15129 6.23439C9.72095 6.76044 9.68993 7.66657 9.14163 8.21487C8.59334 8.76316 7.68721 8.79419 7.16116 8.22452L6.45176 7.45631C5.84603 6.80037 4.8003 6.81325 4.27595 7.53591C3.99888 7.91776 3.73587 8.31047 3.48766 8.71327C3.0189 9.47398 3.40691 10.4462 4.24538 10.7551L5.22582 11.1162C5.95323 11.3841 6.2734 12.2275 5.97617 12.9434C5.67903 13.6591 4.85218 14.0409 4.1486 13.7161L3.19834 13.2774C2.38743 12.9031 1.42591 13.3156 1.21939 14.1846C1.11057 14.6425 1.01853 15.1069 0.943981 15.5771C0.804223 16.4586 1.53454 17.2066 2.42632 17.1711L3.47204 17.1294C4.24696 17.0986 4.86621 17.7611 4.86621 18.5366C4.86621 19.3122 4.24696 19.9747 3.47203 19.9439L2.42632 19.9022C1.53454 19.8667 0.804224 20.6147 0.943983 21.4962C1.01854 21.9664 1.11057 22.4308 1.21939 22.8887C1.42591 23.7577 2.38743 24.1702 3.19835 23.7959L4.1486 23.3572C4.85218 23.0324 5.67903 23.4142 5.97617 24.1299C6.27341 24.8458 5.95323 25.6892 5.22583 25.9571L4.24539 26.3182C3.40692 26.6271 3.01891 27.5993 3.48766 28.36C3.73587 28.7628 3.99889 29.1555 4.27596 29.5374C4.80031 30.26 5.84604 30.2729 6.45176 29.617L7.16116 28.8488C7.68722 28.2791 8.59334 28.3101 9.14164 28.8584C9.68993 29.4067 9.72096 30.3129 9.15129 30.8389L8.38309 31.5483C7.72715 32.154 7.74003 33.1998 8.46269 33.7241C8.84454 34.0012 9.23724 34.2642 9.64004 34.5124C10.4008 34.9812 11.373 34.5931 11.6818 33.7547L12.043 32.7742C12.3109 32.0468 13.1543 31.7267 13.8702 32.0239C14.5859 32.321 14.9677 33.1479 14.6429 33.8515L14.2042 34.8017C13.8299 35.6126 14.2424 36.5741 15.1113 36.7807C15.5692 36.8895 16.0336 36.9815 16.5039 37.0561C17.3853 37.1958 18.1333 36.4655 18.0978 35.5737L18.0562 34.528C18.0254 33.7531 18.6879 33.1338 19.4634 33.1338C20.2389 33.1338 20.9015 33.7531 20.8706 34.528L20.829 35.5737C20.7935 36.4655 21.5415 37.1958 22.423 37.0561C22.8932 36.9815 23.3576 36.8895 23.8155 36.7807C24.6844 36.5741 25.097 35.6126 24.7226 34.8017L24.284 33.8515C23.9592 33.1479 24.3409 32.321 25.0566 32.0239C25.7725 31.7266 26.6159 32.0468 26.8839 32.7742L27.245 33.7547C27.5538 34.5931 28.5261 34.9811 29.2868 34.5124C29.6896 34.2642 30.0823 34.0012 30.4641 33.7241C31.1868 33.1997 31.1997 32.154 30.5437 31.5483L29.7755 30.8389C29.2059 30.3128 29.2369 29.4067 29.7852 28.8584C30.3335 28.3101 31.2396 28.2791 31.7657 28.8488L32.475 29.617C33.0808 30.2729 34.1265 30.26 34.6509 29.5374C34.9279 29.1555 35.1909 28.7628 35.4391 28.36C35.9079 27.5993 35.5199 26.6271 34.6814 26.3182L33.701 25.9571C32.9736 25.6892 32.6534 24.8458 32.9506 24.1298C33.2478 23.4142 34.0746 23.0324 34.7782 23.3572L35.7285 23.7959C36.5394 24.1702 37.5009 23.7577 37.7074 22.8887C37.8162 22.4308 37.9083 21.9664 37.9828 21.4962C38.1226 20.6147 37.3923 19.8667 36.5005 19.9022L35.4548 19.9439C34.6799 19.9747 34.0606 19.3122 34.0606 18.5366C34.0606 17.7611 34.6799 17.0986 35.4548 17.1294L36.5005 17.1711C37.3923 17.2066 38.1226 16.4586 37.9828 15.5771C37.9083 15.1069 37.8162 14.6425 37.7074 14.1846C37.5009 13.3156 36.5394 12.9031 35.7285 13.2774L34.7782 13.7161C34.0746 14.0409 33.2478 13.6591 32.9506 12.9435C32.6534 12.2275 32.9736 11.3841 33.701 11.1162L34.6814 10.7551C35.5199 10.4462 35.9079 9.474 35.4392 8.71328C35.1909 8.31048 34.9279 7.91778 34.6509 7.53593C34.1265 6.81328 33.0808 6.80039 32.4751 7.45633L31.7657 8.22453C31.2396 8.7942 30.3335 8.76318 29.7852 8.21488C29.2369 7.66658 29.2059 6.76046 29.7755 6.2344L30.5437 5.52501C31.1997 4.91928 31.1868 3.87355 30.4641 3.3492C30.0823 3.07214 29.6896 2.80912 29.2868 2.56091C28.5261 2.09216 27.5539 2.48017 27.245 3.31864L26.8839 4.29907C26.6159 5.02647 25.7726 5.34665 25.0566 5.04941C24.3409 4.75228 23.9592 3.92542 24.284 3.22185L24.7226 2.27159C25.097 1.46068 24.6844 0.499155 23.8155 0.292639C23.3576 0.183815 22.8932 0.0917832 22.423 0.0172294C21.5415 -0.12253 20.7935 0.607791 20.829 1.49957L20.8706 2.54526C20.9015 3.3202 20.2389 3.93945 19.4634 3.93945C18.6879 3.93945 18.0254 3.32021 18.0562 2.54529L18.0978 1.49956ZM12.3291 27.5447C12.5851 27.872 13.7826 28.5524 14.4362 28.7402C16.2325 29.2621 18.2547 28.5352 20.6265 26.5187C24.8263 22.9492 27.7514 16.6003 27.2901 12.0357C27.1246 10.3697 26.403 9.24243 24.9612 8.40658C24.2645 8.00323 24.0733 7.93746 23.6808 7.97295C22.9151 8.03912 22.6066 8.37257 21.327 10.5197C20.6386 11.6876 20.1932 12.5486 20.1952 12.7229C20.1864 13.3112 20.428 13.5804 21.4972 14.2412C22.2132 14.6809 22.5445 14.9382 22.5853 15.1029C22.65 15.3645 22.2149 16.9736 21.8347 17.8903C21.4082 18.9111 20.805 19.9242 20.1173 20.7629C19.3592 21.6909 18.2301 22.7417 17.9005 22.8233C17.755 22.8593 17.3533 22.6914 16.7123 22.3051C15.643 21.6855 15.1878 21.5926 14.6638 21.8868C14.3096 22.0774 12.033 25.8082 11.9737 26.2753C11.9291 26.6771 12.0852 27.2246 12.3291 27.5447Z" fill="#F59C37"/>
</svg>
