<svg width="38" height="38" viewBox="0 0 38 38" fill="none" xmlns="http://www.w3.org/2000/svg">
<path fill-rule="evenodd" clip-rule="evenodd" d="M13.7043 2.41674C13.4035 1.76524 13.7348 0.993593 14.4299 0.815368C15.0949 0.64485 15.7742 0.50989 16.4656 0.412633C17.1763 0.312662 17.7773 0.899154 17.7488 1.61626C17.7199 2.34219 18.3352 2.92533 19.0617 2.92358C19.0749 2.92355 19.0881 2.92353 19.1013 2.92353C19.1146 2.92353 19.1278 2.92355 19.141 2.92358C19.8675 2.92534 20.4828 2.3422 20.4539 1.61627C20.4254 0.899157 21.0264 0.312666 21.7371 0.412639C22.4285 0.509897 23.1078 0.644858 23.7728 0.815377C24.4679 0.993603 24.7992 1.76525 24.4985 2.41675C24.1939 3.07639 24.54 3.85043 25.2118 4.12709C25.2358 4.13697 25.2597 4.1469 25.2837 4.15689C25.954 4.43677 26.7459 4.13443 26.997 3.45283C27.245 2.77959 28.0249 2.46855 28.6423 2.83412C29.239 3.18748 29.8144 3.57296 30.3662 3.98821C30.9395 4.41968 30.9501 5.25928 30.4229 5.74608C29.8893 6.23889 29.9124 7.08618 30.4273 7.59856C30.446 7.61718 30.4647 7.63585 30.4833 7.65456C30.9957 8.16946 31.843 8.1926 32.3358 7.65894C32.8226 7.13177 33.6622 7.14236 34.0937 7.71569C34.5089 8.26746 34.8944 8.84288 35.2477 9.43958C35.6133 10.0569 35.3023 10.8369 34.629 11.0849C33.9474 11.3359 33.6451 12.1279 33.9249 12.7982C33.9349 12.8221 33.9449 12.8461 33.9547 12.8701C34.2314 13.5419 35.0054 13.8879 35.6651 13.5834C36.3166 13.2827 37.0882 13.614 37.2665 14.3091C37.437 14.9741 37.5719 15.6533 37.6692 16.3447C37.7692 17.0554 37.1827 17.6565 36.4655 17.6279C35.7396 17.599 35.1565 18.2144 35.1582 18.9409C35.1582 18.9541 35.1582 18.9672 35.1582 18.9804C35.1582 18.9936 35.1582 19.0069 35.1582 19.0201C35.1564 19.7466 35.7396 20.362 36.4655 20.3331C37.1827 20.3045 37.7692 20.9056 37.6692 21.6163C37.5719 22.3076 37.437 22.9869 37.2665 23.6519C37.0882 24.347 36.3166 24.6783 35.665 24.3776C35.0054 24.0731 34.2313 24.4191 33.9547 25.0909C33.9448 25.1149 33.9349 25.1388 33.9249 25.1627C33.645 25.833 33.9473 26.6251 34.629 26.8761C35.3022 27.1241 35.6133 27.9041 35.2477 28.5214C34.8944 29.1181 34.5089 29.6935 34.0937 30.2453C33.6622 30.8186 32.8226 30.8292 32.3357 30.302C31.8429 29.7683 30.9956 29.7915 30.4832 30.3064C30.4646 30.3251 30.4459 30.3437 30.4272 30.3623C29.9123 30.8747 29.8892 31.722 30.4229 32.2149C30.9501 32.7017 30.9395 33.5413 30.3661 33.9728C29.8144 34.388 29.239 34.7735 28.6423 35.1268C28.025 35.4924 27.245 35.1814 26.997 34.5081C26.7459 33.8265 25.9539 33.5241 25.2836 33.804C25.2597 33.814 25.2358 33.8239 25.2118 33.8337C24.54 34.1104 24.1939 34.8845 24.4984 35.5442C24.7992 36.1957 24.4678 36.9674 23.7727 37.1456C23.1077 37.3161 22.4285 37.4511 21.7372 37.5483C21.0265 37.6483 20.4254 37.0618 20.4539 36.3446C20.4828 35.6187 19.8675 35.0355 19.1409 35.0373C19.1277 35.0373 19.1145 35.0373 19.1013 35.0373C19.0882 35.0373 19.075 35.0373 19.0618 35.0373C18.3353 35.0355 17.7199 35.6187 17.7488 36.3446C17.7773 37.0618 17.1762 37.6483 16.4655 37.5483C15.7742 37.4511 15.095 37.3161 14.43 37.1456C13.7349 36.9674 13.4035 36.1957 13.7043 35.5442C14.0088 34.8845 13.6627 34.1104 12.9909 33.8338C12.967 33.8239 12.943 33.814 12.9191 33.804C12.2488 33.5241 11.4568 33.8265 11.2057 34.5081C10.9577 35.1814 10.1777 35.4924 9.56038 35.1269C8.96371 34.7735 8.38832 34.388 7.83658 33.9728C7.26322 33.5413 7.25264 32.7017 7.77982 32.2149C8.3135 31.7221 8.29036 30.8747 7.77544 30.3623C7.75675 30.3437 7.73811 30.3251 7.71951 30.3064C7.20711 29.7915 6.35979 29.7684 5.86696 30.302C5.38014 30.8292 4.54051 30.8186 4.10902 30.2453C3.6938 29.6935 3.30832 29.1181 2.95498 28.5215C2.5894 27.9041 2.90045 27.1241 3.57371 26.8761C4.25533 26.6251 4.55768 25.8331 4.27779 25.1627C4.26781 25.1388 4.25789 25.1149 4.24802 25.0909C3.97134 24.4191 3.19729 24.0731 2.53763 24.3776C1.88611 24.6783 1.11444 24.347 0.93621 23.6519C0.765698 22.9869 0.630741 22.3076 0.533485 21.6163C0.433509 20.9056 1.02001 20.3045 1.73713 20.3331C2.46308 20.362 3.04623 19.7466 3.04448 19.0201C3.04444 19.0069 3.04443 18.9936 3.04443 18.9804C3.04443 18.9672 3.04444 18.9541 3.04448 18.9409C3.04623 18.2144 2.46308 17.599 1.73713 17.6279C1.02001 17.6565 0.433508 17.0554 0.533483 16.3447C0.63074 15.6533 0.765699 14.9741 0.936214 14.3091C1.11444 13.614 1.88609 13.2827 2.5376 13.5834C3.19725 13.8879 3.97129 13.5418 4.24795 12.87C4.25783 12.8461 4.26776 12.8221 4.27775 12.7982C4.55762 12.1279 4.25528 11.3359 3.57367 11.0848C2.90043 10.8369 2.58939 10.0569 2.95496 9.43957C3.30831 8.84286 3.6938 8.26744 4.10904 7.71567C4.54052 7.14234 5.38011 7.13175 5.86692 7.65892C6.35973 8.19258 7.20702 8.16944 7.7194 7.65454C7.73802 7.63583 7.75669 7.61716 7.7754 7.59854C8.29029 7.08616 8.31343 6.23887 7.77977 5.74607C7.25261 5.25926 7.26319 4.41966 7.83653 3.98819C8.3883 3.57295 8.96373 3.18746 9.56043 2.8341C10.1778 2.46853 10.9577 2.77957 11.2057 3.45281C11.4568 4.13441 12.2487 4.43675 12.919 4.15688C12.943 4.14689 12.9669 4.13696 12.9909 4.12708C13.6627 3.85041 14.0088 3.07638 13.7043 2.41674ZM10.5647 12.6935C10.5647 11.8651 11.2363 11.1935 12.0647 11.1935H27.0647C27.8931 11.1935 28.5647 11.8651 28.5647 12.6935V21.6935C28.5647 22.5219 27.8931 23.1935 27.0647 23.1935H12.0647C11.2363 23.1935 10.5647 22.5219 10.5647 21.6935V12.6935ZM15.0647 14.1935C14.2363 14.1935 13.5647 14.8651 13.5647 15.6935V18.6935C13.5647 19.5219 14.2363 20.1935 15.0647 20.1935H24.0647C24.8931 20.1935 25.5647 19.5219 25.5647 18.6935V15.6935C25.5647 14.8651 24.8931 14.1935 24.0647 14.1935H15.0647ZM16.0647 24.1935C15.2363 24.1935 14.5647 24.8651 14.5647 25.6935V26.6935C14.5647 27.5219 15.2363 28.1935 16.0647 28.1935H23.0647C23.8931 28.1935 24.5647 27.5219 24.5647 26.6935V25.6935C24.5647 24.8651 23.8931 24.1935 23.0647 24.1935H16.0647Z" fill="#3C4950" fill-opacity="0.23"/>
</svg>
