<svg width="58" height="58" viewBox="0 0 58 58" fill="none" xmlns="http://www.w3.org/2000/svg">
<path fill-rule="evenodd" clip-rule="evenodd" d="M23.1397 12.3269C22.8389 11.6754 23.1702 10.9037 23.8653 10.7255C24.5304 10.555 25.2096 10.42 25.901 10.3228C26.6117 10.2228 27.2128 10.8093 27.1842 11.5264C27.1553 12.2523 27.7707 12.8355 28.4972 12.8337C28.5104 12.8337 28.5236 12.8337 28.5368 12.8337C28.55 12.8337 28.5632 12.8337 28.5764 12.8337C29.3029 12.8355 29.9182 12.2524 29.8894 11.5264C29.8608 10.8093 30.4619 10.2228 31.1725 10.3228C31.8639 10.4201 32.5432 10.555 33.2082 10.7255C33.9033 10.9038 34.2346 11.6754 33.9339 12.3269C33.6294 12.9865 33.9754 13.7606 34.6472 14.0372C34.6712 14.0471 34.6952 14.0571 34.7191 14.0671C35.3894 14.3469 36.1814 14.0446 36.4324 13.363C36.6804 12.6897 37.4604 12.3787 38.0777 12.7443C38.6744 13.0976 39.2498 13.4831 39.8016 13.8984C40.3749 14.3298 40.3855 15.1694 39.8583 15.6562C39.3247 16.149 39.3478 16.9963 39.8627 17.5087C39.8814 17.5273 39.9001 17.546 39.9187 17.5647C40.4311 18.0796 41.2784 18.1028 41.7712 17.5691C42.258 17.0419 43.0976 17.0525 43.5291 17.6259C43.9443 18.1776 44.3298 18.753 44.6831 19.3497C45.0487 19.9671 44.7377 20.747 44.0644 20.995C43.3828 21.2461 43.0805 22.0381 43.3604 22.7084C43.3703 22.7323 43.3803 22.7562 43.3902 22.7802C43.6668 23.452 44.4409 23.7981 45.1005 23.4936C45.752 23.1928 46.5237 23.5241 46.7019 24.2192C46.8724 24.8842 47.0074 25.5635 47.1046 26.2549C47.2046 26.9656 46.6181 27.5666 45.901 27.5381C45.175 27.5092 44.5919 28.1245 44.5936 28.851C44.5937 28.8642 44.5937 28.8774 44.5937 28.8906C44.5937 28.9038 44.5937 28.917 44.5936 28.9303C44.5919 29.6568 45.175 30.2721 45.901 30.2432C46.6181 30.2147 47.2046 30.8158 47.1046 31.5264C47.0074 32.2178 46.8724 32.897 46.7019 33.5621C46.5237 34.2572 45.752 34.5885 45.1005 34.2877C44.4408 33.9832 43.6668 34.3293 43.3901 35.0011C43.3802 35.0251 43.3703 35.049 43.3603 35.0729C43.0804 35.7432 43.3828 36.5352 44.0644 36.7863C44.7377 37.0343 45.0487 37.8142 44.6831 38.4316C44.3298 39.0283 43.9443 39.6037 43.5291 40.1554C43.0976 40.7288 42.258 40.7394 41.7712 40.2122C41.2783 39.6785 40.431 39.7016 39.9186 40.2165C39.9 40.2352 39.8814 40.2539 39.8627 40.2725C39.3478 40.7849 39.3246 41.6322 39.8583 42.125C40.3855 42.6119 40.3749 43.4515 39.8015 43.883C39.2498 44.2982 38.6744 44.6837 38.0778 45.037C37.4604 45.4026 36.6804 45.0915 36.4324 44.4183C36.1813 43.7366 35.3893 43.4343 34.719 43.7141C34.6951 43.7241 34.6712 43.734 34.6472 43.7439C33.9754 44.0206 33.6293 44.7947 33.9338 45.4543C34.2346 46.1059 33.9033 46.8776 33.2081 47.0558C32.5432 47.2263 31.8639 47.3612 31.1726 47.4585C30.4619 47.5585 29.8608 46.972 29.8894 46.2548C29.9182 45.5288 29.3029 44.9457 28.5763 44.9474C28.5631 44.9474 28.55 44.9475 28.5368 44.9475C28.5236 44.9475 28.5104 44.9474 28.4972 44.9474C27.7707 44.9457 27.1553 45.5288 27.1842 46.2548C27.2128 46.972 26.6117 47.5585 25.9009 47.4585C25.2096 47.3612 24.5304 47.2263 23.8654 47.0558C23.1703 46.8776 22.839 46.1059 23.1397 45.4543C23.4442 44.7947 23.0982 44.0206 22.4263 43.7439C22.4024 43.7341 22.3785 43.7241 22.3546 43.7142C21.6843 43.4343 20.8922 43.7366 20.6412 44.4183C20.3932 45.0915 19.6132 45.4026 18.9958 45.037C18.3991 44.6837 17.8237 44.2982 17.272 43.883C16.6986 43.4515 16.6881 42.6119 17.2152 42.125C17.7489 41.6322 17.7258 40.7849 17.2109 40.2725C17.1922 40.2539 17.1735 40.2353 17.1549 40.2166C16.6425 39.7017 15.7952 39.6785 15.3024 40.2122C14.8156 40.7394 13.9759 40.7288 13.5444 40.1554C13.1292 39.6037 12.7437 39.0283 12.3904 38.4316C12.0248 37.8143 12.3359 37.0343 13.0091 36.7863C13.6908 36.5352 13.9931 35.7432 13.7132 35.0729C13.7032 35.049 13.6933 35.0251 13.6834 35.0011C13.4068 34.3293 12.6327 33.9832 11.9731 34.2877C11.3215 34.5885 10.5499 34.2572 10.3716 33.5621C10.2011 32.8971 10.0662 32.2178 9.96891 31.5264C9.86893 30.8158 10.4554 30.2147 11.1726 30.2432C11.8985 30.2721 12.4817 29.6568 12.4799 28.9303C12.4799 28.917 12.4799 28.9038 12.4799 28.8906C12.4799 28.8774 12.4799 28.8642 12.4799 28.851C12.4817 28.1245 11.8985 27.5092 11.1726 27.5381C10.4554 27.5666 9.86893 26.9656 9.96891 26.2549C10.0662 25.5635 10.2011 24.8842 10.3716 24.2192C10.5499 23.5241 11.3215 23.1928 11.973 23.4936C12.6327 23.7981 13.4067 23.452 13.6834 22.7802C13.6933 22.7562 13.7032 22.7323 13.7132 22.7083C13.993 22.0381 13.6907 21.2461 13.0091 20.995C12.3359 20.747 12.0248 19.9671 12.3904 19.3497C12.7437 18.753 13.1292 18.1776 13.5445 17.6258C13.9759 17.0525 14.8155 17.0419 15.3023 17.5691C15.7952 18.1027 16.6424 18.0796 17.1548 17.5647C17.1734 17.546 17.1921 17.5273 17.2108 17.5087C17.7257 16.9963 17.7489 16.149 17.2152 15.6562C16.688 15.1694 16.6986 14.3298 17.272 13.8983C17.8237 13.4831 18.3992 13.0976 18.9959 12.7443C19.6132 12.3787 20.3931 12.6897 20.6411 13.363C20.8922 14.0446 21.6842 14.3469 22.3545 14.067C22.3784 14.057 22.4023 14.0471 22.4263 14.0372C23.0981 13.7606 23.4442 12.9865 23.1397 12.3269Z" fill="#40C115"/>
<path d="M37.5 28.8107C37.5 33.7812 33.4706 37.8107 28.5 37.8107C23.5294 37.8107 19.5 33.7812 19.5 28.8107C19.5 23.8401 23.5294 19.8107 28.5 19.8107C33.4706 19.8107 37.5 23.8401 37.5 28.8107Z" stroke="white" stroke-width="3" stroke-linecap="round" stroke-linejoin="round"/>
<path d="M28.5 25.3107V28.8107L31.5 32.3107" stroke="#EEF1F3" stroke-width="3" stroke-linecap="round" stroke-linejoin="round"/>
</svg>
