<svg width="26" height="26" viewBox="0 0 26 26" fill="none" xmlns="http://www.w3.org/2000/svg">
<path d="M2.87047 5.01763C1.91418 6.57891 1.91418 8.70422 1.91418 12.9548C1.91418 17.2055 1.91418 19.3308 2.87047 20.892C3.40556 21.7657 4.13971 22.5002 5.01291 23.0355C6.57342 23.9923 8.6977 23.9923 12.9462 23.9923C17.1948 23.9923 19.3191 23.9923 20.8796 23.0355C21.7528 22.5002 22.4869 21.7657 23.022 20.892C23.9783 19.3308 23.9783 17.2055 23.9783 12.9549V12.9548V12.9548C23.9783 8.70421 23.9783 6.5789 23.022 5.01763C22.4869 4.14402 21.7528 3.40951 20.8796 2.87415C19.3191 1.9174 17.1948 1.9174 12.9462 1.9174C8.6977 1.9174 6.57342 1.9174 5.01291 2.87415C4.13971 3.40951 3.40556 4.14402 2.87047 5.01763Z" stroke="#8099A6" stroke-width="2"/>
<path d="M8.27019 9.18191C8.2918 9.79553 8.42143 10.811 8.52946 11.2215C8.57268 11.3987 8.61157 11.5888 8.61157 11.6407C8.61157 11.6969 8.62885 11.7487 8.65046 11.7617C8.67206 11.7747 8.71528 11.8913 8.74553 12.0123C8.77145 12.1376 8.81467 12.2716 8.83195 12.3062C8.85356 12.3407 8.91838 12.4877 8.98319 12.6303C9.15604 13.0235 9.27704 13.2568 9.31161 13.2568C9.33322 13.2568 9.34618 13.2784 9.34618 13.3087C9.34618 13.3346 9.39371 13.421 9.45421 13.4988C9.51471 13.5766 9.56224 13.6501 9.56224 13.6587C9.56224 13.6717 9.62706 13.7538 9.70484 13.8402C10.0938 14.2896 10.4092 14.5532 10.7938 14.7606C10.9883 14.86 11.3599 15.0286 11.3945 15.0286C11.4074 15.0286 11.4247 13.6933 11.429 12.0555L11.442 9.08684L12.5785 9.07388L13.7106 9.06524V10.7678V12.4747L13.8748 12.4488C13.9613 12.4358 14.0563 12.4099 14.0779 12.3926C14.1039 12.3753 14.1989 12.3364 14.2897 12.3062C14.4453 12.2586 14.8903 12.0166 15.0459 11.9C15.3052 11.7012 15.9836 10.9666 16.1824 10.6641C16.4201 10.3011 16.7787 9.64861 16.7787 9.57946C16.7787 9.55786 16.8176 9.43686 16.8695 9.30291L16.9559 9.06524H18.0837H19.2073L19.177 9.28994C19.1597 9.41526 19.1208 9.57514 19.0906 9.64861C19.0603 9.71775 19.0214 9.83442 19.0042 9.90788C18.9912 9.97702 18.935 10.1239 18.8875 10.232C18.719 10.6122 18.6196 10.8153 18.5936 10.8369C18.5807 10.8499 18.5418 10.9234 18.5115 10.9968C18.477 11.0746 18.4381 11.1394 18.4165 11.1394C18.3949 11.1394 18.3776 11.1654 18.3776 11.1956C18.3776 11.2259 18.3344 11.3123 18.2782 11.3857C18.2263 11.4592 18.1529 11.5629 18.1183 11.6148C17.9282 11.9 17.1071 12.7513 16.8306 12.9544C16.7485 13.0149 16.6621 13.084 16.6361 13.1056C16.6059 13.1315 16.5108 13.1963 16.4244 13.2525C16.2429 13.3605 16.2213 13.4081 16.338 13.447C16.3768 13.4599 16.4503 13.4945 16.4978 13.5248C16.5411 13.555 16.7398 13.6803 16.93 13.8056C17.4874 14.1557 18.1399 14.7693 18.585 15.3526C18.7535 15.5773 18.8961 15.7977 18.9912 15.9792C19.0214 16.0397 19.0603 16.0959 19.0776 16.1089C19.1252 16.1478 19.5011 16.9472 19.5011 17.0163C19.5011 17.0552 19.5227 17.1071 19.5443 17.1287C19.5789 17.1632 19.7172 17.6083 19.7172 17.6861C19.7172 17.6991 19.164 17.7077 18.4899 17.7077C17.1676 17.7077 17.2022 17.712 17.1417 17.4701C17.1115 17.3447 16.9905 17.0639 16.904 16.9299C16.8824 16.8953 16.8392 16.8175 16.8133 16.757C16.783 16.6965 16.7355 16.6231 16.7053 16.5928C16.675 16.5626 16.6491 16.5194 16.6491 16.4978C16.6491 16.4762 16.6232 16.433 16.5929 16.4027C16.5627 16.3725 16.4806 16.2687 16.4114 16.1737C16.204 15.8971 15.8021 15.5255 15.491 15.3181C15.1971 15.1236 14.8428 14.9421 14.7607 14.9421C14.7348 14.9421 14.7045 14.9248 14.6959 14.9076C14.6786 14.8557 14.173 14.7217 13.9181 14.6958L13.7106 14.6742V16.191V17.7077L13.0754 17.7034C12.7211 17.7034 12.3278 17.6818 12.1982 17.6645C11.6364 17.5781 11.187 17.4873 11.1438 17.4528C11.1179 17.4312 11.0228 17.4052 10.9364 17.3879C10.7852 17.362 10.6037 17.2929 10.1802 17.0984C10.0765 17.0552 9.97708 17.0163 9.95115 17.0163C9.92955 17.0163 9.90794 16.999 9.90794 16.9774C9.90794 16.9558 9.85609 16.9256 9.79559 16.9126C9.70052 16.8867 9.4715 16.7527 9.06962 16.4891C8.52514 16.1261 7.71275 15.2749 7.33248 14.6742C7.15963 14.4063 6.71022 13.5248 6.71022 13.4643C6.71022 13.434 6.68429 13.3606 6.65404 13.3001C6.46391 12.9371 6.20896 12.0383 6.08364 11.2907C6.04907 11.1005 6.00154 10.8283 5.97561 10.6857C5.94968 10.5431 5.91943 10.1196 5.90215 9.74367L5.87622 9.06524H7.06888H8.26587L8.27019 9.18191Z" fill="#8099A6"/>
</svg>
