<svg width="26" height="26" viewBox="0 0 26 26" fill="none" xmlns="http://www.w3.org/2000/svg">
<path d="M7.37784 8.17265C7.59547 7.79471 8.20357 7.15413 8.44682 7.04524C8.68365 6.94274 9.04852 6.92993 9.29176 7.01961C9.5734 7.12851 11.5449 9.12071 11.6089 9.37053C11.7114 9.74207 11.5833 10.0111 11.0328 10.5812C10.6936 10.9207 10.5272 11.1449 10.5272 11.241C10.5272 11.4588 11.0072 12.3236 11.4681 12.9385C11.8842 13.4958 12.4219 14.0275 12.9916 14.4503C13.5037 14.8282 14.4382 15.3471 14.611 15.3471C14.7199 15.3471 14.9311 15.1806 15.3152 14.8026C15.8913 14.2389 16.0961 14.13 16.4609 14.2261C16.5698 14.2517 17.037 14.6617 17.6579 15.2702C18.7973 16.3977 18.9574 16.6411 18.8806 17.1279C18.8421 17.3777 18.7717 17.4866 18.4133 17.8582C17.6708 18.6269 16.8578 18.9023 15.7952 18.7486C12.8828 18.3322 9.38137 15.5329 7.80671 12.3684C6.91696 10.5812 6.77614 9.21039 7.37784 8.17265Z" fill="#8099A6"/>
<path d="M2.77695 18.6385L3.7373 18.9173C3.81592 18.6464 3.77654 18.355 3.62886 18.1148L2.77695 18.6385ZM1.21314 24.025L0.252789 23.7462C0.15161 24.0947 0.247179 24.4707 0.502498 24.7286C0.757818 24.9864 1.13281 25.0858 1.48232 24.9881L1.21314 24.025ZM6.67723 22.4978L7.19187 21.6404C6.95622 21.499 6.67275 21.4607 6.40805 21.5347L6.67723 22.4978ZM23.1142 12.6151C23.1142 18.424 18.4052 23.133 12.5963 23.133V25.133C19.5098 25.133 25.1142 19.5286 25.1142 12.6151H23.1142ZM12.5963 2.0972C18.4052 2.0972 23.1142 6.80623 23.1142 12.6151H25.1142C25.1142 5.70166 19.5098 0.0971985 12.5963 0.0971985V2.0972ZM2.07837 12.6151C2.07837 6.80623 6.7874 2.0972 12.5963 2.0972V0.0971985C5.68284 0.0971985 0.0783691 5.70166 0.0783691 12.6151H2.07837ZM3.62886 18.1148C2.64562 16.5153 2.07837 14.633 2.07837 12.6151H0.0783691C0.0783691 15.0132 0.753696 17.2567 1.92504 19.1622L3.62886 18.1148ZM2.17348 24.3038L3.7373 18.9173L1.81661 18.3597L0.252789 23.7462L2.17348 24.3038ZM6.40805 21.5347L0.943956 23.0619L1.48232 24.9881L6.94641 23.4609L6.40805 21.5347ZM12.5963 23.133C10.6183 23.133 8.77057 22.588 7.19187 21.6404L6.1626 23.3552C8.04351 24.4842 10.2457 25.133 12.5963 25.133V23.133Z" fill="#8099A6"/>
</svg>
