<svg width="38" height="38" viewBox="0 0 38 38" fill="none" xmlns="http://www.w3.org/2000/svg">
<path fill-rule="evenodd" clip-rule="evenodd" d="M13.631 2.41674C13.3302 1.76524 13.6615 0.993593 14.3566 0.815368C15.0216 0.64485 15.7009 0.50989 16.3923 0.412633C17.103 0.312662 17.704 0.899154 17.6755 1.61626C17.6466 2.34219 18.2619 2.92533 18.9884 2.92358C19.0016 2.92355 19.0148 2.92353 19.028 2.92353C19.0413 2.92353 19.0545 2.92355 19.0677 2.92358C19.7942 2.92534 20.4095 2.3422 20.3806 1.61627C20.3521 0.899157 20.9531 0.312666 21.6638 0.412639C22.3552 0.509897 23.0345 0.644858 23.6995 0.815377C24.3946 0.993603 24.7259 1.76525 24.4251 2.41675C24.1206 3.07639 24.4667 3.85043 25.1385 4.12709C25.1625 4.13697 25.1864 4.1469 25.2104 4.15689C25.8807 4.43677 26.6726 4.13443 26.9237 3.45283C27.1717 2.77959 27.9516 2.46855 28.569 2.83412C29.1657 3.18748 29.7411 3.57296 30.2929 3.98821C30.8662 4.41968 30.8768 5.25928 30.3496 5.74608C29.816 6.23889 29.8391 7.08618 30.354 7.59856C30.3727 7.61718 30.3914 7.63585 30.41 7.65456C30.9224 8.16946 31.7697 8.1926 32.2625 7.65894C32.7493 7.13177 33.5889 7.14236 34.0203 7.71569C34.4356 8.26746 34.8211 8.84288 35.1744 9.43958C35.54 10.0569 35.229 10.8369 34.5557 11.0849C33.8741 11.3359 33.5718 12.1279 33.8516 12.7982C33.8616 12.8221 33.8716 12.8461 33.8814 12.8701C34.1581 13.5419 34.9321 13.8879 35.5918 13.5834C36.2433 13.2827 37.0149 13.614 37.1932 14.3091C37.3637 14.9741 37.4986 15.6533 37.5959 16.3447C37.6959 17.0554 37.1094 17.6565 36.3922 17.6279C35.6663 17.599 35.0831 18.2144 35.0849 18.9409C35.0849 18.9541 35.0849 18.9672 35.0849 18.9804C35.0849 18.9936 35.0849 19.0069 35.0849 19.0201C35.0831 19.7466 35.6663 20.362 36.3922 20.3331C37.1094 20.3045 37.6959 20.9056 37.5959 21.6163C37.4986 22.3076 37.3637 22.9869 37.1932 23.6519C37.0149 24.347 36.2433 24.6783 35.5917 24.3776C34.9321 24.0731 34.158 24.4191 33.8814 25.0909C33.8715 25.1149 33.8616 25.1388 33.8516 25.1627C33.5717 25.833 33.874 26.6251 34.5557 26.8761C35.2289 27.1241 35.54 27.9041 35.1744 28.5214C34.8211 29.1181 34.4356 29.6935 34.0204 30.2453C33.5889 30.8186 32.7493 30.8292 32.2624 30.302C31.7696 29.7683 30.9223 29.7915 30.4099 30.3064C30.3913 30.3251 30.3726 30.3437 30.3539 30.3623C29.839 30.8747 29.8159 31.722 30.3496 32.2149C30.8768 32.7017 30.8662 33.5413 30.2928 33.9728C29.7411 34.388 29.1657 34.7735 28.569 35.1268C27.9517 35.4924 27.1717 35.1814 26.9237 34.5081C26.6726 33.8265 25.8806 33.5241 25.2103 33.804C25.1864 33.814 25.1624 33.8239 25.1385 33.8337C24.4667 34.1104 24.1206 34.8845 24.4251 35.5442C24.7259 36.1957 24.3945 36.9674 23.6994 37.1456C23.0344 37.3161 22.3552 37.4511 21.6639 37.5483C20.9532 37.6483 20.3521 37.0618 20.3806 36.3446C20.4095 35.6187 19.7942 35.0355 19.0676 35.0373C19.0544 35.0373 19.0412 35.0373 19.028 35.0373C19.0149 35.0373 19.0017 35.0373 18.9885 35.0373C18.262 35.0355 17.6466 35.6187 17.6755 36.3446C17.704 37.0618 17.1029 37.6483 16.3922 37.5483C15.7009 37.4511 15.0217 37.3161 14.3567 37.1456C13.6616 36.9674 13.3302 36.1957 13.631 35.5442C13.9355 34.8845 13.5894 34.1104 12.9176 33.8338C12.8937 33.8239 12.8697 33.814 12.8458 33.804C12.1755 33.5241 11.3835 33.8265 11.1324 34.5081C10.8844 35.1814 10.1044 35.4924 9.48707 35.1269C8.89041 34.7735 8.31501 34.388 7.76328 33.9728C7.18992 33.5413 7.17933 32.7017 7.70652 32.2149C8.2402 31.7221 8.21706 30.8747 7.70214 30.3623C7.68345 30.3437 7.66481 30.3251 7.64621 30.3064C7.13381 29.7915 6.28648 29.7684 5.79366 30.302C5.30683 30.8292 4.46721 30.8186 4.03572 30.2453C3.62049 29.6935 3.23502 29.1181 2.88168 28.5215C2.5161 27.9041 2.82715 27.1241 3.5004 26.8761C4.18203 26.6251 4.48438 25.8331 4.20449 25.1627C4.19451 25.1388 4.18458 25.1149 4.17472 25.0909C3.89804 24.4191 3.12399 24.0731 2.46433 24.3776C1.81281 24.6783 1.04114 24.347 0.862907 23.6519C0.692395 22.9869 0.557438 22.3076 0.460182 21.6163C0.360206 20.9056 0.946709 20.3045 1.66383 20.3331C2.38978 20.362 2.97293 19.7466 2.97117 19.0201C2.97114 19.0069 2.97112 18.9936 2.97112 18.9804C2.97112 18.9672 2.97114 18.9541 2.97117 18.9409C2.97292 18.2144 2.38977 17.599 1.66383 17.6279C0.946709 17.6565 0.360205 17.0554 0.46018 16.3447C0.557437 15.6533 0.692396 14.9741 0.862911 14.3091C1.04114 13.614 1.81279 13.2827 2.4643 13.5834C3.12394 13.8879 3.89799 13.5418 4.17465 12.87C4.18453 12.8461 4.19446 12.8221 4.20445 12.7982C4.48432 12.1279 4.18198 11.3359 3.50037 11.0848C2.82713 10.8369 2.51608 10.0569 2.88166 9.43957C3.23501 8.84286 3.6205 8.26744 4.03574 7.71567C4.46722 7.14234 5.30681 7.13175 5.79362 7.65892C6.28642 8.19258 7.13372 8.16944 7.6461 7.65454C7.66472 7.63583 7.68338 7.61716 7.7021 7.59854C8.21699 7.08616 8.24013 6.23887 7.70647 5.74607C7.17931 5.25926 7.18989 4.41966 7.76323 3.98819C8.315 3.57295 8.89042 3.18746 9.48713 2.8341C10.1045 2.46853 10.8844 2.77957 11.1324 3.45281C11.3835 4.13441 12.1754 4.43675 12.8457 4.15688C12.8697 4.14689 12.8936 4.13696 12.9176 4.12708C13.5894 3.85041 13.9355 3.07638 13.631 2.41674ZM19.8685 26.4793C19.5315 26.1423 18.9851 26.1423 18.6481 26.4793C18.311 26.8163 18.311 27.3627 18.6481 27.6998C18.9851 28.0368 19.5315 28.0368 19.8685 27.6998C20.2055 27.3627 20.2055 26.8163 19.8685 26.4793ZM16.5267 24.358C18.0353 22.8494 20.4812 22.8494 21.9898 24.358C23.4984 25.8666 23.4984 28.3125 21.9898 29.8211C20.4812 31.3297 18.0353 31.3297 16.5267 29.8211C15.0182 28.3125 15.0182 25.8666 16.5267 24.358ZM15.4175 23.2488C17.5387 21.1276 20.9778 21.1276 23.099 23.2488C23.6848 23.8346 24.6345 23.8346 25.2203 23.2488C25.8061 22.663 25.8061 21.7133 25.2203 21.1275C21.9276 17.8347 16.5889 17.8347 13.2962 21.1275C12.7104 21.7133 12.7104 22.663 13.2962 23.2488C13.882 23.8346 14.8317 23.8346 15.4175 23.2488ZM26.3472 20.0006C22.4321 16.0855 16.0844 16.0855 12.1692 20.0006C11.5834 20.5864 10.6337 20.5864 10.0479 20.0006C9.46211 19.4148 9.46211 18.4651 10.0479 17.8793C15.1346 12.7926 23.3818 12.7926 28.4686 17.8793C29.0543 18.4651 29.0543 19.4148 28.4686 20.0006C27.8828 20.5864 26.933 20.5864 26.3472 20.0006ZM8.74693 16.5784C14.5522 10.7732 23.9643 10.7732 29.7695 16.5784C30.3553 17.1642 31.3051 17.1642 31.8908 16.5784C32.4766 15.9926 32.4766 15.0429 31.8908 14.4571C24.914 7.48029 13.6024 7.48029 6.62561 14.4571C6.03982 15.0429 6.03982 15.9926 6.62561 16.5784C7.2114 17.1642 8.16114 17.1642 8.74693 16.5784Z" fill="#3C4950" fill-opacity="0.23"/>
</svg>
