<svg width="29" height="29" viewBox="0 0 29 29" fill="none" xmlns="http://www.w3.org/2000/svg">
<path fill-rule="evenodd" clip-rule="evenodd" d="M13.3608 1.1274C13.3822 0.589563 12.9314 0.14969 12.3984 0.224666C11.8799 0.297607 11.3704 0.398825 10.8717 0.526712C10.3504 0.660377 10.1019 1.2391 10.3274 1.72772C10.5558 2.22245 10.2963 2.80297 9.79241 3.01045C9.77441 3.01786 9.75644 3.02532 9.73848 3.03281C9.23578 3.24271 8.6418 3.01596 8.45351 2.50476C8.26752 1.99984 7.68257 1.76656 7.21957 2.04073C6.77202 2.30576 6.34043 2.59488 5.92659 2.90633C5.4966 3.22992 5.48866 3.8596 5.88402 4.22469C6.28425 4.59429 6.2669 5.22974 5.88073 5.61401C5.86668 5.62799 5.85267 5.642 5.83869 5.65605C5.45442 6.0422 4.81897 6.05955 4.44938 5.65932C4.08428 5.26396 3.45461 5.2719 3.13101 5.70188C2.81955 6.11573 2.53042 6.54733 2.26538 6.99489C1.99122 7.45787 2.22449 8.04281 2.7294 8.22879C3.24058 8.41708 3.46733 9.01105 3.25743 9.51375C3.24993 9.53171 3.24247 9.5497 3.23505 9.56771C3.02756 10.0715 2.44706 10.3311 1.95234 10.1027C1.46373 9.87714 0.885017 10.1256 0.75135 10.6469C0.62345 11.1457 0.522222 11.6552 0.449276 12.1738C0.3743 12.7068 0.814156 13.1576 1.35197 13.1361C1.8964 13.1145 2.33374 13.576 2.33243 14.1208C2.3324 14.1307 2.33239 14.1406 2.33239 14.1505C2.33239 14.1605 2.3324 14.1704 2.33243 14.1803C2.33375 14.7252 1.8964 15.1867 1.35197 15.165C0.814156 15.1436 0.3743 15.5944 0.449276 16.1274C0.522221 16.6459 0.623448 17.1554 0.751345 17.6542C0.885015 18.1755 1.46374 18.424 1.95236 18.1984C2.44708 17.9701 3.02759 18.2296 3.23509 18.7334C3.2425 18.7514 3.24995 18.7694 3.25745 18.7874C3.46736 19.2901 3.24061 19.884 2.72941 20.0723C2.22449 20.2583 1.99122 20.8433 2.26539 21.3063C2.53042 21.7538 2.81955 22.1854 3.13099 22.5992C3.4546 23.0292 4.08429 23.0372 4.4494 22.6418C4.819 22.2416 5.45447 22.2589 5.83876 22.6451C5.85272 22.6591 5.86672 22.6731 5.88075 22.6871C6.26693 23.0713 6.28429 23.7068 5.88404 24.0764C5.48867 24.4415 5.49661 25.0712 5.92661 25.3948C6.34044 25.7063 6.77201 25.9954 7.21954 26.2604C7.68255 26.5346 8.26753 26.3013 8.45352 25.7963C8.64182 25.2851 9.23582 25.0584 9.73855 25.2683C9.75648 25.2757 9.77443 25.2832 9.79241 25.2906C10.2963 25.4981 10.5558 26.0786 10.3274 26.5734C10.1019 27.062 10.3504 27.6408 10.8717 27.7744C11.3704 27.9023 11.8799 28.0035 12.3984 28.0765C12.9314 28.1514 13.3822 27.7116 13.3608 27.1737C13.3392 26.6292 13.8007 26.1918 14.3456 26.1932C14.3554 26.1932 14.3652 26.1932 14.3751 26.1932C14.385 26.1932 14.395 26.1932 14.4049 26.1932C14.9498 26.1918 15.4114 26.6292 15.3897 27.1737C15.3683 27.7115 15.8191 28.1514 16.3521 28.0764C16.8706 28.0035 17.38 27.9023 17.8788 27.7744C18.4001 27.6407 18.6486 27.062 18.423 26.5733C18.1947 26.0785 18.4542 25.498 18.9581 25.2905C18.976 25.2831 18.994 25.2756 19.0119 25.2681C19.5146 25.0582 20.1087 25.285 20.297 25.7962C20.483 26.3012 21.068 26.5345 21.531 26.2603C21.9785 25.9953 22.41 25.7062 22.8238 25.3948C23.2538 25.0712 23.2617 24.4414 22.8663 24.0763C22.4661 23.7067 22.4834 23.0712 22.8696 22.6868C22.8836 22.6729 22.8976 22.6589 22.9115 22.6449C23.2958 22.2587 23.9314 22.2414 24.301 22.6416C24.6661 23.037 25.2959 23.0291 25.6195 22.5991C25.9309 22.1853 26.22 21.7538 26.4849 21.3063C26.7591 20.8433 26.5258 20.2583 26.0209 20.0723C25.5096 19.8839 25.2829 19.2899 25.4928 18.7872C25.5003 18.7693 25.5077 18.7513 25.5151 18.7334C25.7226 18.2295 26.3032 17.9699 26.7979 18.1983C27.2866 18.4239 27.8654 18.1754 27.999 17.654C28.1269 17.1553 28.2281 16.6459 28.3011 16.1275C28.376 15.5944 27.9361 15.1436 27.3983 15.165C26.8538 15.1867 26.4164 14.7251 26.4177 14.1802C26.4177 14.1703 26.4178 14.1604 26.4178 14.1505C26.4178 14.1406 26.4177 14.1308 26.4177 14.1209C26.4164 13.576 26.8538 13.1145 27.3983 13.1361C27.9361 13.1575 28.376 12.7067 28.3011 12.1737C28.2281 11.6552 28.1269 11.1458 27.999 10.6471C27.8654 10.1257 27.2866 9.87724 26.7979 10.1028C26.3032 10.3312 25.7226 10.0716 25.5151 9.56776C25.5077 9.5498 25.5003 9.53186 25.4928 9.51395C25.2829 9.0112 25.5097 8.41718 26.0209 8.22888C26.5258 8.04288 26.7591 7.45789 26.4849 6.99487C26.22 6.54737 25.9309 6.11584 25.6195 5.70204C25.2958 5.27203 24.6661 5.26408 24.301 5.65947C23.9314 6.05973 23.2959 6.04237 22.9116 5.65618C22.8976 5.64216 22.8837 5.62818 22.8696 5.61423C22.4835 5.22993 22.4661 4.59443 22.8664 4.22482C23.2618 3.8597 23.2538 3.22998 22.8238 2.90636C22.41 2.59495 21.9785 2.30584 21.531 2.04084C21.0679 1.76665 20.483 1.99994 20.297 2.50487C20.1087 3.01609 19.5147 3.24285 19.0119 3.03293C18.994 3.02544 18.9761 3.01799 18.9581 3.01059C18.4542 2.80308 18.1947 2.22255 18.4231 1.72781C18.6486 1.23917 18.4001 0.66042 17.8788 0.526745C17.3801 0.398857 16.8706 0.297637 16.3521 0.224692C15.8191 0.149709 15.3683 0.589578 15.3897 1.12741C15.4114 1.67186 14.9499 2.10922 14.405 2.1079C14.395 2.10787 14.385 2.10786 14.3751 2.10786C14.3652 2.10786 14.3554 2.10787 14.3455 2.1079C13.8007 2.1092 13.3392 1.67185 13.3608 1.1274ZM15.9147 10.7276C16.735 9.86067 17.7193 9.74595 18.4711 10.0465C19.2246 10.3477 19.8583 11.1114 19.8583 12.2955C19.8583 12.7959 19.6614 13.4589 19.2426 14.2596C18.8322 15.0444 18.2559 15.8728 17.6105 16.6799C16.7832 17.7147 15.876 18.673 15.1357 19.4076C14.7138 19.8263 14.0367 19.8263 13.6148 19.4076C12.8745 18.673 11.9673 17.7147 11.14 16.6799C10.4947 15.8728 9.9183 15.0444 9.50789 14.2596C9.08909 13.4589 8.89221 12.7959 8.89221 12.2955C8.89221 11.0793 9.50191 10.3556 10.1959 10.0802C10.8973 9.80173 11.894 9.90054 12.8152 10.7994C13.6794 11.6425 15.1114 11.5764 15.9147 10.7276ZM22.1083 12.2955C22.1083 10.2084 20.9301 8.60635 19.3062 7.95722C17.999 7.43464 16.4763 7.55886 15.1803 8.41981C14.6667 8.76107 13.9731 8.77676 13.4515 8.44758C12.146 7.62354 10.6575 7.47616 9.36576 7.98891C7.74504 8.63224 6.64221 10.2343 6.64221 12.2955C6.64221 13.319 7.02136 14.3602 7.51411 15.3024C8.01525 16.2606 8.68595 17.2137 9.38268 18.085C10.7766 19.8284 12.3563 21.3452 13.1337 22.0604C13.8385 22.7088 14.912 22.7088 15.6168 22.0604C16.3942 21.3452 17.9739 19.8284 19.3679 18.085C20.0646 17.2137 20.7353 16.2606 21.2364 15.3024C21.7292 14.3602 22.1083 13.319 22.1083 12.2955Z" fill="#F59C37"/>
</svg>
