<svg width="98" height="98" viewBox="0 0 98 98" fill="none" xmlns="http://www.w3.org/2000/svg">
<g opacity="0.5" filter="url(#filter0_f_132_1083)">
<circle cx="48.7605" cy="48.7605" r="24.605" fill="#103F56"/>
</g>
<circle cx="48.7605" cy="38.7605" r="24.605" fill="#F59C37"/>
<path fill-rule="evenodd" clip-rule="evenodd" d="M45.517 22.3496L45.8217 23.4365L45.8271 23.4331C45.825 23.4554 45.8232 23.4786 45.8217 23.5027L46.4376 25.8456C45.7761 25.9718 45.1329 26.1493 44.5121 26.3737L43.7761 23.7478L43.7758 23.748C43.6672 23.3359 43.5581 22.924 43.449 22.5121L43.4489 22.5118L43.4487 22.5111L43.4472 22.5055L43.4463 22.5021L43.4463 22.502C43.1246 21.2873 42.803 20.0727 42.4933 18.8551C42.4138 18.5429 42.2947 18.4595 41.9859 18.5703C41.0655 18.8915 40.1641 19.2647 39.2859 19.688C39.0428 19.8076 38.9648 19.9282 39.1202 20.184C39.698 21.1384 40.2686 22.0969 40.8393 23.0554L40.8394 23.0555L40.8395 23.0556L40.8396 23.0558C41.0353 23.3846 41.2311 23.7133 41.4271 24.0419L43.1186 26.9742C42.5448 27.2635 41.9959 27.5949 41.4759 27.9645C40.1605 25.6938 38.848 23.4217 37.5383 21.1483C37.3579 20.8355 37.2241 20.8066 36.9349 21.0159C36.2452 21.5159 35.5643 22.0238 34.8981 22.5566C34.4633 22.8997 34.456 23.0929 34.8589 23.488C36.3676 24.9653 37.8559 26.465 39.3443 27.9647L39.3444 27.9648L39.3445 27.9649L39.3446 27.9651L39.3448 27.9652L39.3468 27.9672C39.6614 28.2842 39.976 28.6012 40.2907 28.918C39.8087 29.3556 39.3604 29.8296 38.9502 30.3357L38.8941 30.28C37.0707 28.4663 35.2462 26.6516 33.4383 24.8218C33.081 24.4576 32.8672 24.4164 32.556 24.8498C32.0864 25.5027 31.5927 26.1404 31.0726 26.7537C30.6888 27.2061 30.8501 27.3958 31.3069 27.6532C32.718 28.4474 34.1181 29.2604 35.5181 30.0734L35.5183 30.0735C36.1653 30.4492 36.8123 30.8249 37.4604 31.1988L38.0768 31.553C37.7307 32.1007 37.4253 32.6767 37.1647 33.2768C34.8311 31.9403 32.4981 30.6029 30.1658 29.2645C29.8087 29.059 29.7137 29.2459 29.5915 29.4865L29.5775 29.514C29.2673 30.1283 29.0135 30.7659 28.7596 31.4038L28.7595 31.4039L28.7595 31.404C28.6925 31.5723 28.6255 31.7407 28.5574 31.9086C28.3746 32.3606 28.527 32.4826 28.9398 32.589C30.8983 33.0937 32.8525 33.6125 34.8067 34.1314L34.8069 34.1314L34.8069 34.1314L34.817 34.1341L35.829 34.4027L36.6679 34.6264C36.5189 35.1156 36.3986 35.6173 36.3089 36.1295C33.6312 35.5112 30.9538 34.8917 28.2765 34.2709C27.8889 34.1805 27.8554 34.3839 27.8125 34.6447L27.8079 34.6728C27.6974 35.3372 27.6458 36.0069 27.5941 36.6771C27.5805 36.8544 27.5668 37.0318 27.552 37.2091C27.5128 37.6846 27.6878 37.7552 28.0976 37.7366C30.2228 37.6403 32.3485 37.5611 34.4742 37.4818L34.9516 37.464C35.3512 37.4492 35.7508 37.4345 36.1504 37.4201C36.1311 37.6909 36.1202 37.9641 36.1181 38.2394C33.333 38.637 30.5469 39.0333 27.7599 39.4282C27.365 39.4836 27.4054 39.6858 27.4571 39.9452L27.4628 39.9738C27.5947 40.6407 27.784 41.2911 27.9735 41.9418L27.9735 41.9418L27.9735 41.9419C28.0221 42.1086 28.0706 42.2754 28.1182 42.4425C28.2491 42.9018 28.4378 42.9047 28.8153 42.7395C29.3046 42.5247 29.7937 42.2999 30.2843 42.0744L30.2844 42.0743L30.2845 42.0743L30.2845 42.0743L30.2846 42.0742L30.2847 42.0742C31.9019 41.3308 33.5349 40.5802 35.2427 40.1567C36.8138 39.7684 38.1663 39.5101 39.6452 39.2488L39.6462 39.2479C41.0134 39.0292 42.3598 38.8686 43.6806 38.7584C43.3845 38.2949 43.0885 37.831 42.8555 37.3307C42.7026 37.0018 42.5751 36.665 42.5295 36.3013C42.4848 35.9356 42.5275 35.5644 42.654 35.2184C42.7432 34.9697 42.8533 34.7281 42.9633 34.4867L42.9635 34.4862C42.9944 34.4185 43.0252 34.3509 43.0555 34.2831C43.0909 34.2036 43.1327 34.1268 43.178 34.0435C43.2017 33.9999 43.2264 33.9546 43.2516 33.9062C43.198 33.9201 43.1461 33.9324 43.0956 33.9443C42.9857 33.9703 42.8825 33.9947 42.7835 34.0307C42.3305 34.1944 41.9844 34.4964 41.7124 34.8885C41.4543 35.2732 41.2653 35.7001 41.154 36.1498C41.0423 36.5797 40.9805 37.021 40.9697 37.465C40.9697 37.4825 40.9671 37.4997 40.9644 37.517L40.9644 37.517C40.9629 37.5265 40.9614 37.5359 40.9604 37.5454L40.9339 37.5498C40.8982 37.4576 40.862 37.3656 40.8257 37.2736L40.8256 37.2733L40.8255 37.2731L40.8255 37.273C40.7405 37.0571 40.6554 36.8412 40.5771 36.6224C40.4609 36.2915 40.3854 35.9503 40.405 35.5954C40.4106 35.4882 40.4255 35.3818 40.4496 35.2772C40.4656 35.2117 40.4901 35.1483 40.5147 35.0849L40.5147 35.0848C40.5277 35.051 40.5408 35.0172 40.5526 34.9831C40.5864 34.8851 40.6266 34.842 40.7227 34.7464C40.7489 34.722 40.7766 34.6993 40.8055 34.6782C40.8313 34.6595 40.856 34.6393 40.8795 34.6179C40.8949 34.6031 40.9096 34.5874 40.9242 34.5717L40.9242 34.5716C40.9477 34.5464 40.9711 34.5212 40.9977 34.4998C41.2401 34.302 41.503 34.1307 41.782 33.989C42.1629 33.7964 42.5594 33.6552 42.9898 33.6253C43.02 33.623 43.0502 33.6183 43.0858 33.6126L43.0859 33.6126L43.0862 33.6126C43.1049 33.6096 43.1252 33.6064 43.1477 33.6032C42.7281 33.413 42.3036 33.3552 41.8761 33.3145C41.6021 33.2885 41.3286 33.2924 41.0683 33.4424L41.0769 33.4052L41.084 33.3748L41.0854 33.3689C41.0869 33.3584 41.0893 33.3481 41.0928 33.338C41.2776 32.8772 41.5369 32.4674 41.9222 32.1478C42.1673 31.9434 42.4438 31.8091 42.7756 31.8365C43.0124 31.8562 43.2094 31.9444 43.2923 32.187C43.334 32.3115 43.3653 32.4392 43.3859 32.5689C43.4439 32.8941 43.5397 33.2115 43.6712 33.5145L43.6823 33.482C43.6898 33.4599 43.6957 33.4426 43.7011 33.4253C43.7307 33.306 43.7679 33.1888 43.8124 33.0743C44.1065 32.441 44.5143 31.9032 45.1065 31.5189C45.4496 31.2954 45.8217 31.2356 46.2139 31.3596C46.5056 31.4529 46.7746 31.6062 47.0036 31.8096C47.2041 31.9856 47.397 32.1703 47.59 32.3551C47.6707 32.4323 47.7513 32.5095 47.8325 32.5861C47.8482 32.6006 47.8626 32.6163 47.877 32.6321L47.8771 32.6321L47.8879 32.6439C47.9001 32.6571 47.9099 32.6684 47.9197 32.6795L47.9197 32.6796L47.934 32.6959C47.6597 32.5967 47.3753 32.5279 47.0859 32.491C46.691 32.4369 46.2929 32.4097 45.8943 32.4096C45.5091 32.4006 45.1276 32.4864 44.7835 32.6596C44.4497 32.8228 44.1651 33.0716 43.959 33.3807C43.9424 33.4062 43.9281 33.4332 43.9137 33.4603L43.9137 33.4605C43.9068 33.4735 43.8999 33.4865 43.8928 33.4993C43.8998 33.5011 43.9071 33.5014 43.9142 33.5C43.9214 33.4986 43.9281 33.4957 43.934 33.4915L44.0382 33.4205C44.1426 33.3494 44.2469 33.2784 44.3521 33.2081L44.534 33.1106C44.5523 33.0958 44.5714 33.0821 44.5913 33.0694C44.8193 32.9381 45.0659 32.8423 45.3227 32.7851C45.625 32.7207 45.9402 32.7602 46.2173 32.8973C46.4546 33.0207 46.667 33.1869 46.8438 33.3875C47.2237 33.7964 47.432 34.2753 47.4399 34.8385C47.4443 35.2052 47.3683 35.5601 47.2845 35.9125C47.2112 36.2205 47.1298 36.5263 47.0485 36.8316L46.9874 37.0616C46.9854 37.0473 46.9842 37.0329 46.984 37.0184C46.9928 36.5248 46.9761 36.0336 46.8595 35.5503C46.7902 35.2442 46.6663 34.9531 46.4938 34.691C46.2692 34.3612 45.9433 34.1137 45.5653 33.9861C45.3246 33.8988 45.0815 33.8258 44.8188 33.8557C44.6945 33.8699 44.5697 33.8783 44.4451 33.8867L44.4451 33.8867L44.445 33.8867L44.445 33.8867C44.3898 33.8904 44.3346 33.8941 44.2795 33.8983L43.8874 33.9297L43.9017 33.9494C43.9089 33.9595 43.9145 33.9673 43.9207 33.9748C43.9906 34.0618 44.0618 34.1478 44.133 34.2338L44.133 34.2338L44.133 34.2339L44.133 34.2339C44.2816 34.4135 44.4303 34.5931 44.5668 34.7817C45.1732 35.6209 45.7433 36.4836 46.1541 37.4395C46.2849 37.7439 46.406 38.0537 46.5099 38.3684C46.5346 38.443 46.5583 38.5179 46.5814 38.5931C47.5114 38.5643 48.4258 38.5592 49.3228 38.5747C49.3402 38.4826 49.3582 38.3907 49.3771 38.2993C49.4369 38.0088 49.5055 37.7201 49.583 37.4331L49.5984 37.3763C49.7064 36.9766 49.8147 36.5763 49.9448 36.1836C50.0654 35.8175 50.206 35.4567 50.3585 35.1023C50.8369 33.989 51.5011 32.9846 52.2075 32.0071C52.3689 31.7841 52.5449 31.5715 52.7208 31.3589L52.7209 31.3589L52.7209 31.3588L52.7209 31.3588L52.721 31.3586C52.801 31.262 52.8809 31.1655 52.9595 31.0679C52.9664 31.0595 52.9727 31.0505 52.9807 31.0393C52.9857 31.0323 52.9914 31.0243 52.9982 31.015L52.5438 30.9787C52.4758 30.9734 52.4076 30.9689 52.3395 30.9643C52.198 30.9548 52.0565 30.9452 51.9159 30.9297C51.6095 30.8949 51.3276 30.9787 51.0462 31.0816C50.6007 31.2429 50.2325 31.5062 49.9649 31.9022C49.7643 32.2078 49.62 32.5468 49.5389 32.9032C49.4031 33.466 49.384 34.038 49.3943 34.613C49.3939 34.6295 49.3924 34.6458 49.3899 34.6621C49.3552 34.529 49.3199 34.3959 49.2846 34.2627L49.2846 34.2626C49.2019 33.9509 49.1191 33.6385 49.0443 33.3243C48.9462 32.9135 48.858 32.5003 48.8634 32.0738C48.8702 31.4169 49.1153 30.8596 49.5565 30.3831C49.7693 30.1542 50.0016 29.9503 50.2859 29.8106C50.6085 29.6509 50.9755 29.6046 51.3276 29.6792C51.6266 29.7457 51.9136 29.8573 52.1791 30.0101C52.2023 30.025 52.2246 30.0414 52.2458 30.0591L52.4585 30.1767C52.579 30.2571 52.6985 30.3385 52.8181 30.42L52.8186 30.4204L52.8188 30.4205L52.9453 30.5066C52.9523 30.5117 52.9603 30.5151 52.9688 30.5166C52.9773 30.5181 52.986 30.5177 52.9943 30.5155C52.9862 30.5009 52.9784 30.4862 52.9705 30.4714L52.9705 30.4714C52.9535 30.4394 52.9364 30.4074 52.9173 30.3772C52.6773 30.0177 52.3465 29.7281 51.9585 29.5375C51.5574 29.3363 51.113 29.2365 50.6644 29.2468C50.2002 29.2467 49.7365 29.2783 49.2766 29.3414C48.939 29.3846 48.6073 29.465 48.2874 29.5812C48.2951 29.5726 48.3027 29.5639 48.3102 29.5553C48.3204 29.5436 48.3306 29.5319 48.3413 29.5204L48.3528 29.5079C48.369 29.4902 48.3874 29.4701 48.4055 29.4532C48.4991 29.365 48.592 29.276 48.6849 29.187L48.685 29.1869L48.6852 29.1866L48.6853 29.1866L48.6853 29.1865C48.9108 28.9706 49.1362 28.7547 49.3707 28.5493C49.6379 28.312 49.9516 28.133 50.2918 28.0238C50.7487 27.8797 51.1806 27.9493 51.5815 28.2091C52.2708 28.6571 52.7482 29.2831 53.0884 30.0204C53.1287 30.1079 53.1545 30.2023 53.1803 30.2965L53.1804 30.2968C53.1925 30.3412 53.2047 30.3856 53.2183 30.4292C53.2255 30.4533 53.2337 30.477 53.2451 30.5098L53.2531 30.5331C53.4058 30.1809 53.5166 29.8121 53.5835 29.4341C53.6074 29.283 53.6438 29.1341 53.6923 28.989C53.7904 28.7066 54.0183 28.6037 54.2943 28.5807C54.6806 28.5488 55.0016 28.7052 55.2884 28.9434C55.7369 29.316 56.0389 29.7929 56.2536 30.3292C56.2578 30.341 56.2609 30.3531 56.2629 30.3655L56.2713 30.4015L56.2825 30.4513C55.9791 30.2763 55.661 30.2714 55.3418 30.3017C54.8443 30.3508 54.3497 30.4169 53.861 30.638C53.8891 30.642 53.9141 30.646 53.937 30.6497L53.9372 30.6497L53.9372 30.6497L53.9373 30.6497C53.9769 30.6561 54.0107 30.6615 54.0448 30.664C54.5458 30.6988 55.008 30.863 55.4517 31.0875C55.7763 31.2525 56.0823 31.4518 56.3644 31.6821C56.3938 31.7065 56.4203 31.735 56.447 31.7635L56.447 31.7635C56.4649 31.7826 56.4828 31.8018 56.5017 31.8199C56.5292 31.8447 56.558 31.8681 56.5879 31.89C56.622 31.9145 56.6548 31.9408 56.686 31.9689C56.7977 32.0807 56.8458 32.1341 56.8821 32.2449C56.896 32.2876 56.9129 32.331 56.9299 32.3748L56.9299 32.3749C56.957 32.4448 56.9847 32.5161 57.0021 32.588C57.0305 32.7098 57.0478 32.8338 57.0541 32.9586C57.0771 33.3719 56.9889 33.7689 56.8536 34.1547C56.7639 34.4107 56.6637 34.6631 56.5637 34.9151L56.5637 34.9152L56.5637 34.9152L56.5637 34.9152C56.5216 35.0212 56.4796 35.1271 56.4384 35.2331L56.4075 35.2282L56.4057 35.213L56.4033 35.1961L56.4032 35.1959C56.4003 35.1755 56.3974 35.1551 56.3968 35.1346C56.3844 34.6168 56.3124 34.1021 56.182 33.6008C56.0418 33.0768 55.8418 32.5802 55.5311 32.1302C55.2139 31.6733 54.811 31.3218 54.2835 31.1312C54.1732 31.0911 54.0584 31.0633 53.9369 31.034L53.9369 31.034C53.8727 31.0185 53.8067 31.0026 53.7384 30.9841C53.7656 31.0357 53.7921 31.0843 53.8177 31.131L53.8177 31.1311L53.8178 31.1312L53.8178 31.1312C53.8737 31.2335 53.9248 31.3271 53.9678 31.4253C54.0032 31.5043 54.0391 31.5831 54.075 31.662C54.203 31.9429 54.3313 32.2244 54.435 32.5145C54.5806 32.9169 54.6288 33.3482 54.5757 33.7728C54.5227 34.1969 54.3742 34.589 54.1958 34.9719C53.9269 35.55 53.5859 36.0863 53.2456 36.6216L53.2456 36.6216L53.1663 36.7464C53.1594 36.7578 53.1503 36.7677 53.1394 36.7755C53.1285 36.7832 53.1162 36.7887 53.1031 36.7915C53.1031 36.7181 53.1043 36.6446 53.1056 36.5711V36.571V36.5708V36.5707C53.1083 36.4066 53.111 36.2423 53.1002 36.0792C53.0766 35.7361 53.0369 35.3929 52.9962 35.0498C52.9794 34.9091 52.959 34.769 52.9387 34.6288L52.9387 34.6287L52.9387 34.6283L52.9386 34.628L52.9386 34.6279C52.9082 34.4182 52.8778 34.2086 52.859 33.9978C52.8242 33.6057 52.8967 33.2238 52.9757 32.8419C52.9908 32.7685 53.0064 32.6951 53.022 32.6217L53.0221 32.6213L53.0224 32.6199C53.1126 32.1952 53.2029 31.7701 53.21 31.3326C53.21 31.2894 53.2074 31.2459 53.2049 31.2025L53.2048 31.2023C53.2037 31.1828 53.2026 31.1633 53.2016 31.1439L53.1747 31.1395L53.1368 31.2019L53.1051 31.2547C53.0541 31.3397 53.003 31.4248 52.9487 31.5071L52.7874 31.7488C52.5687 32.0771 52.3498 32.4055 52.1227 32.7282C51.6899 33.3439 51.2982 33.9836 51.0261 34.689C50.8158 35.2322 50.6261 35.7836 50.4423 36.3366C50.3031 36.7567 50.1766 37.1822 50.0634 37.6111C49.9776 37.9346 49.8955 38.2591 49.8209 38.5855C52.3963 38.6522 54.8227 38.8869 57.0536 39.2183L57.0546 39.2189L57.1097 39.2267C57.9736 39.3558 58.8081 39.4994 59.6104 39.6533C62.8585 40.3007 65.8737 41.2572 68.9752 42.3101C69.3326 42.4312 69.4316 42.3106 69.489 41.9984C69.5169 41.846 69.5445 41.6935 69.5722 41.5412L69.5723 41.5406L69.5723 41.5404C69.6964 40.856 69.8204 40.1726 69.9699 39.4944C70.0797 39.0013 69.887 38.89 69.4424 38.8738C68.624 38.8448 67.8056 38.794 66.9868 38.7432L66.9856 38.7431C66.6444 38.722 66.3033 38.7008 65.962 38.6812L61.5558 38.4292L61.5554 38.3856L61.5546 38.3385C61.5546 37.8981 61.5322 37.4629 61.4885 37.0341C64.0941 37.2096 66.6996 37.386 69.3027 37.5704C69.6757 37.5969 69.7414 37.4552 69.7213 37.1395C69.7109 36.9768 69.7002 36.8141 69.6895 36.6514L69.6894 36.65L69.6893 36.6486C69.6444 35.9666 69.5994 35.2844 69.5797 34.6013C69.5654 34.0983 69.3537 34.0385 68.9223 34.1366C68.1295 34.3161 67.3325 34.4738 66.5356 34.6315L66.5355 34.6315L66.5355 34.6315L66.5354 34.6315L66.5341 34.6318L66.5334 34.6319L66.5332 34.632C66.1971 34.6985 65.861 34.765 65.5252 34.8331L61.2796 35.6952C61.208 35.3565 61.1229 35.0228 61.025 34.6947C63.5952 34.0292 66.165 33.3642 68.737 32.7071C69.1081 32.612 69.1257 32.4606 69.0022 32.1763C68.921 31.9878 68.8388 31.7997 68.7566 31.6115L68.7563 31.6106L68.7558 31.6095L68.7552 31.6082L68.7551 31.608C68.506 31.0376 68.2566 30.4666 68.0321 29.8851C67.8527 29.4267 67.6272 29.44 67.2394 29.6679C66.5288 30.0852 65.8068 30.4845 65.0846 30.884C64.7776 31.0538 64.4706 31.2237 64.1644 31.3949L60.5639 33.4085C60.3039 32.7907 59.9965 32.1977 59.6462 31.6341C61.9059 30.344 64.167 29.0564 66.4296 27.7713C66.7282 27.6007 66.6953 27.4552 66.5208 27.2321C66.4268 27.1118 66.3325 26.9916 66.2382 26.8715L66.2378 26.871L66.2374 26.8705L66.237 26.8699C65.8246 26.3446 65.4122 25.8192 65.0247 25.2762C64.7046 24.8282 64.4767 24.814 64.0738 25.2238C62.7906 26.5279 61.4856 27.8098 60.1797 29.0925L60.1795 29.0926L60.1772 29.0949L60.176 29.096C59.8388 29.4273 59.5014 29.7587 59.1644 30.0905L58.8063 30.4409C58.379 29.9023 57.9091 29.399 57.4015 28.9364L59.9306 26.4777H59.9291C60.2153 26.1958 60.5009 25.9135 60.7865 25.6312C61.5176 24.9085 62.2487 24.1859 62.9889 23.4703C63.2115 23.2566 63.2399 23.1096 62.9762 22.9135C62.235 22.3543 61.4997 21.7867 60.7703 21.2105C60.5027 20.9988 60.3487 21.0208 60.1732 21.335C59.4955 22.5476 58.8071 23.7541 58.1187 24.9607C57.8625 25.4097 57.6063 25.8587 57.3507 26.3081L56.3279 28.0594C55.7949 27.6703 55.2304 27.3216 54.6391 27.0179L56.1865 24.2792L56.186 24.2781L56.1849 24.2753L56.1865 24.2757C56.4029 23.9063 56.6186 23.5365 56.8344 23.1667C57.4025 22.193 57.9705 21.2194 58.5507 20.2527C58.7404 19.937 58.5845 19.8473 58.3428 19.7282C57.5276 19.3272 56.686 18.9929 55.835 18.6752C55.4639 18.536 55.3365 18.6198 55.2438 18.9904C54.9583 20.1308 54.6592 21.2675 54.3601 22.4043L54.3601 22.4043L54.36 22.4044L54.36 22.4045L54.3598 22.4053L54.3572 22.4153L54.357 22.4159L54.3568 22.4166L54.3567 22.4172C54.2486 22.828 54.1405 23.2388 54.033 23.6497L53.2791 26.4175C52.671 26.1907 52.0408 26.0092 51.3927 25.8769L52.1423 23.0238C52.288 22.5118 52.4321 21.9995 52.5762 21.4873L52.5764 21.4867C52.8688 20.4474 53.1612 19.4082 53.4659 18.3723C53.5742 18.0036 53.4237 17.9041 53.1021 17.863C52.5174 17.7875 51.9336 17.708 51.3496 17.6286L51.3493 17.6285C51.0384 17.5862 50.7274 17.5439 50.4163 17.5022C50.0698 17.4556 49.8747 17.536 49.8825 17.9527C49.9034 19.0638 49.9084 20.1768 49.9135 21.2898C49.9154 21.7206 49.9174 22.1514 49.9203 22.5821V25.6654C49.5628 25.6352 49.2012 25.6199 48.8359 25.6199C48.5282 25.6199 48.223 25.6308 47.9207 25.6523V22.7238C47.9066 22.7362 47.8924 22.7484 47.878 22.7603C47.8929 22.7283 47.9065 22.6939 47.9188 22.6571C47.9216 22.2201 47.9239 21.783 47.9262 21.3459C47.9323 20.1911 47.9384 19.0362 47.9541 17.8816C47.9585 17.5468 47.8614 17.3948 47.4977 17.4242C46.5479 17.4978 45.6029 17.6247 44.6673 17.8041C44.3403 17.8684 44.2908 18.0032 44.3732 18.2919C44.7585 19.6426 45.1374 20.9949 45.5164 22.3475L45.5166 22.3481L45.5168 22.3488L45.517 22.3496ZM46.12 38.6092C45.3548 38.6392 44.5794 38.6852 43.7949 38.749L43.7942 38.7059C43.7919 38.5642 43.7896 38.4225 43.7991 38.2812C43.8188 37.9871 43.8531 37.6929 43.8879 37.3988C43.9023 37.2785 43.9197 37.1585 43.937 37.0386L43.937 37.0386L43.937 37.0385L43.937 37.0384L43.9371 37.0382L43.9371 37.0382C43.9632 36.8574 43.9893 36.6767 44.0055 36.4949C44.0374 36.1601 43.9751 35.8302 43.9075 35.5027C43.8943 35.4386 43.8807 35.3745 43.8671 35.3104C43.7898 34.9462 43.7123 34.5813 43.7065 34.2062C43.7058 34.1672 43.7084 34.1283 43.711 34.0893C43.712 34.0743 43.713 34.0594 43.7139 34.0444L43.7369 34.0405C43.7622 34.0808 43.7868 34.1214 43.8113 34.162L43.8114 34.1622L43.8115 34.1623C43.8511 34.2278 43.8906 34.2931 43.933 34.3567C43.9838 34.4326 44.0344 34.5088 44.0851 34.585L44.0852 34.5851C44.2684 34.8603 44.4518 35.136 44.6418 35.4047C45.0139 35.9336 45.3501 36.4831 45.584 37.0871C45.7644 37.5532 45.9271 38.0273 46.0849 38.5018C46.0967 38.5376 46.1084 38.5734 46.12 38.6092ZM69.6114 43.8276C69.6122 43.8254 69.6129 43.8231 69.6134 43.8209C68.1428 43.1837 48.4207 35.0532 27.9524 44.3209C28.1333 45.0072 28.3696 45.717 28.6142 46.3739C29.0711 47.5567 29.7137 48.9548 30.5686 50.2714C31.2377 51.3061 31.9867 52.2869 32.8088 53.2048C32.8088 53.2048 47.3648 39.3194 69.6085 43.841C69.6085 43.8365 69.61 43.832 69.6114 43.8276ZM33.7613 54.1876L33.4328 53.8626C33.4328 53.8626 49.5947 39.6925 69.1874 45.3606C69.1874 45.3606 69.1193 45.5758 69.0212 45.8508C67.9335 48.9749 66.2158 51.6567 63.9193 53.9391C63.9065 53.9337 49.2256 47.8278 34.878 55.1945L34.4167 54.7945L34.0735 54.4817L33.7613 54.1876ZM36.0412 56.118L35.4387 55.6519C50.4177 49.4342 60.88 54.3151 62.508 55.1543L62.51 55.1556L62.5122 55.1574C62.5162 55.1608 62.5192 55.1653 62.5209 55.1703C62.5219 55.1732 62.5224 55.1762 62.5225 55.1791C62.5226 55.1831 62.5219 55.1871 62.5204 55.1909C62.5179 55.1975 62.513 55.2029 62.5068 55.2063C62.5006 55.2096 62.4933 55.2107 62.4864 55.2092C49.5761 51.9033 40.2971 58.5367 40.2971 58.5367L39.4584 58.1661L38.8108 57.8337C38.1794 57.5038 37.5819 57.1509 36.9677 56.7499C36.836 56.6641 36.706 56.5721 36.574 56.4788L36.5739 56.4787L36.5738 56.4787C36.4021 56.3573 36.2271 56.2336 36.0412 56.118ZM41.3633 58.9514C41.3633 58.9514 51.0663 52.5298 62.0031 55.6671C60.6349 56.819 52.1408 62.9676 41.3633 58.9514Z" fill="white"/>
<defs>
<filter id="filter0_f_132_1083" x="0.155518" y="0.155518" width="97.21" height="97.21" filterUnits="userSpaceOnUse" color-interpolation-filters="sRGB">
<feFlood flood-opacity="0" result="BackgroundImageFix"/>
<feBlend mode="normal" in="SourceGraphic" in2="BackgroundImageFix" result="shape"/>
<feGaussianBlur stdDeviation="12" result="effect1_foregroundBlur_132_1083"/>
</filter>
</defs>
</svg>
