<svg width="39" height="39" viewBox="0 0 39 39" fill="none" xmlns="http://www.w3.org/2000/svg">
<path fill-rule="evenodd" clip-rule="evenodd" d="M14.1394 2.9729C13.8387 2.32139 14.17 1.54975 14.8651 1.37152C15.5301 1.201 16.2094 1.06604 16.9008 0.968786C17.6115 0.868814 18.2125 1.45531 18.184 2.17242C18.1551 2.89835 18.7704 3.48149 19.4969 3.47973C19.5101 3.4797 19.5233 3.47968 19.5365 3.47968C19.5497 3.47968 19.563 3.4797 19.5762 3.47973C20.3027 3.48149 20.918 2.89835 20.8891 2.17242C20.8606 1.45531 21.4616 0.868818 22.1723 0.968791C22.8637 1.06605 23.543 1.20101 24.208 1.37153C24.9031 1.54976 25.2344 2.3214 24.9336 2.97291C24.6291 3.63254 24.9752 4.40658 25.647 4.68324C25.671 4.69312 25.6949 4.70305 25.7189 4.71305C26.3891 4.99292 27.1811 4.69058 27.4322 4.00898C27.6802 3.33574 28.4601 3.0247 29.0775 3.39027C29.6742 3.74363 30.2496 4.12912 30.8013 4.54436C31.3747 4.97583 31.3853 5.81543 30.8581 6.30223C30.3244 6.79504 30.3476 7.64233 30.8625 8.15471C30.8812 8.17333 30.8999 8.192 30.9185 8.21071C31.4309 8.72561 32.2782 8.74875 32.771 8.21509C33.2578 7.68793 34.0974 7.69851 34.5288 8.27185C34.9441 8.82361 35.3296 9.39903 35.6829 9.99573C36.0485 10.6131 35.7374 11.393 35.0642 11.641C34.3826 11.8921 34.0802 12.6841 34.3601 13.3544C34.3701 13.3783 34.38 13.4022 34.3899 13.4262C34.6666 14.098 35.4406 14.4441 36.1003 14.1396C36.7518 13.8388 37.5234 14.1701 37.7016 14.8652C37.8722 15.5302 38.0071 16.2095 38.1044 16.9009C38.2043 17.6116 37.6178 18.2126 36.9007 18.1841C36.1748 18.1552 35.5916 18.7705 35.5934 19.497C35.5934 19.5102 35.5934 19.5234 35.5934 19.5366C35.5934 19.5498 35.5934 19.563 35.5934 19.5763C35.5916 20.3028 36.1748 20.9181 36.9007 20.8892C37.6178 20.8607 38.2043 21.4618 38.1044 22.1724C38.0071 22.8638 37.8722 23.543 37.7017 24.208C37.5234 24.9032 36.7518 25.2345 36.1002 24.9337C35.4406 24.6292 34.6665 24.9753 34.3898 25.6471C34.38 25.671 34.3701 25.695 34.3601 25.7189C34.0802 26.3892 34.3825 27.1812 35.0642 27.4323C35.7374 27.6803 36.0485 28.4602 35.6829 29.0776C35.3295 29.6743 34.9441 30.2497 34.5289 30.8014C34.0974 31.3748 33.2577 31.3854 32.7709 30.8582C32.2781 30.3245 31.4308 30.3476 30.9184 30.8625C30.8998 30.8812 30.8811 30.8999 30.8624 30.9185C30.3475 31.4309 30.3244 32.2782 30.8581 32.771C31.3852 33.2579 31.3747 34.0975 30.8013 34.529C30.2496 34.9442 29.6742 35.3297 29.0775 35.683C28.4601 36.0486 27.6802 35.7375 27.4322 35.0642C27.1811 34.3826 26.3891 34.0803 25.7187 34.3601C25.6949 34.3701 25.6709 34.38 25.647 34.3899C24.9752 34.6666 24.6291 35.4406 24.9336 36.1003C25.2344 36.7519 24.903 37.5235 24.2079 37.7018C23.5429 37.8723 22.8637 38.0072 22.1724 38.1045C21.4617 38.2045 20.8606 37.6179 20.8891 36.9008C20.918 36.1748 20.3026 35.5917 19.5761 35.5934C19.5629 35.5934 19.5497 35.5935 19.5365 35.5935C19.5233 35.5935 19.5102 35.5934 19.497 35.5934C18.7704 35.5917 18.1551 36.1748 18.184 36.9008C18.2125 37.6179 17.6114 38.2045 16.9007 38.1045C16.2094 38.0072 15.5301 37.8723 14.8652 37.7018C14.17 37.5236 13.8387 36.7519 14.1395 36.1003C14.444 35.4407 14.0979 34.6666 13.4261 34.3899C13.4021 34.38 13.3782 34.3701 13.3543 34.3602C12.684 34.0803 11.892 34.3826 11.6409 35.0643C11.3929 35.7375 10.6129 36.0486 9.99556 35.683C9.39889 35.3297 8.8235 34.9442 8.27176 34.529C7.6984 34.0975 7.68782 33.2579 8.215 32.771C8.74868 32.2782 8.72554 31.4309 8.21062 30.9185C8.19193 30.8999 8.17329 30.8812 8.15469 30.8626C7.64229 30.3476 6.79497 30.3245 6.30215 30.8582C5.81532 31.3854 4.97569 31.3748 4.5442 30.8014C4.12898 30.2497 3.7435 29.6743 3.39016 29.0776C3.02458 28.4603 3.33563 27.6803 4.00889 27.4323C4.69051 27.1812 4.99286 26.3892 4.71298 25.7189C4.70299 25.695 4.69307 25.6711 4.6832 25.6471C4.40652 24.9753 3.63247 24.6292 2.97282 24.9337C2.32129 25.2345 1.54962 24.9032 1.37139 24.2081C1.20088 23.5431 1.06592 22.8638 0.968666 22.1724C0.86869 21.4618 1.45519 20.8607 2.17232 20.8892C2.89826 20.9181 3.48141 20.3028 3.47966 19.5763C3.47962 19.563 3.47961 19.5498 3.47961 19.5366C3.47961 19.5234 3.47962 19.5102 3.47966 19.497C3.48141 18.7705 2.89826 18.1552 2.17231 18.1841C1.45519 18.2126 0.868689 17.6116 0.968664 16.9009C1.06592 16.2095 1.20088 15.5302 1.37139 14.8652C1.54962 14.1701 2.32127 13.8388 2.97278 14.1396C3.63243 14.4441 4.40647 14.098 4.68313 13.4262C4.69301 13.4022 4.70294 13.3783 4.71293 13.3543C4.9928 12.6841 4.69046 11.8921 4.00885 11.641C3.33561 11.393 3.02457 10.6131 3.39014 9.99572C3.74349 9.39902 4.12898 8.82359 4.54422 8.27183C4.9757 7.69849 5.81529 7.6879 6.3021 8.21507C6.79491 8.74873 7.6422 8.72559 8.15458 8.21069C8.1732 8.19198 8.19187 8.17332 8.21058 8.15469C8.72547 7.64232 8.74861 6.79502 8.21495 6.30222C7.68779 5.81541 7.69837 4.97582 8.27171 4.54434C8.82348 4.1291 9.39891 3.74361 9.99561 3.39025C10.6129 3.02468 11.3929 3.33573 11.6409 4.00896C11.8919 4.69057 12.6839 4.99291 13.3542 4.71303C13.3781 4.70304 13.4021 4.69311 13.4261 4.68323C14.0979 4.40657 14.4439 3.63253 14.1394 2.9729Z" fill="#F59C37"/>
</svg>
