<svg width="39" height="39" viewBox="0 0 39 39" fill="none" xmlns="http://www.w3.org/2000/svg">
<path d="M9.99561 3.46356L9.74085 3.03333L9.99561 3.46356ZM8.15458 8.284L8.509 8.63668L8.15458 8.284ZM4.68313 13.4995L4.22081 13.3091L4.68313 13.4995ZM1.37139 14.9385L0.887062 14.8143L1.37139 14.9385ZM3.47966 19.5703L2.97966 19.5691L3.47966 19.5703ZM1.37139 24.2814L0.887059 24.4056L1.37139 24.2814ZM4.6832 25.7204L5.14553 25.53L4.6832 25.7204ZM8.15469 30.9359L8.50911 30.5832L8.15469 30.9359ZM8.27176 34.6023L7.97111 35.0018L8.27176 34.6023ZM9.99556 35.7563L10.2503 35.3261L9.99556 35.7563ZM13.3543 34.4335L13.1617 34.8949L13.3543 34.4335ZM13.4261 34.4632L13.6165 34.0009L13.4261 34.4632ZM14.8652 37.7751L14.741 38.2594L14.8652 37.7751ZM19.497 35.6667L19.4958 36.1667L19.497 35.6667ZM19.5761 35.6667L19.5749 35.1667L19.5761 35.6667ZM22.1724 38.1778L22.242 38.6729L22.1724 38.1778ZM25.647 34.4632L25.4566 34.0009L25.647 34.4632ZM25.7187 34.4334L25.9114 34.8948L25.7187 34.4334ZM29.0775 35.7563L29.3323 36.1865L29.0775 35.7563ZM30.8013 34.6023L30.5006 34.2028L30.8013 34.6023ZM30.9184 30.9358L30.5639 30.5832L30.9184 30.9358ZM34.5289 30.8747L34.9284 31.1754L34.5289 30.8747ZM35.6829 29.1509L35.2527 28.8961L35.6829 29.1509ZM34.3601 25.7922L33.8987 25.5995L34.3601 25.7922ZM35.5934 19.6496L36.0934 19.6508L35.5934 19.6496ZM35.5934 19.5703L36.0934 19.5691L35.5934 19.5703ZM37.7016 14.9385L38.186 14.8143L37.7016 14.9385ZM34.3899 13.4995L34.8522 13.3091L34.3899 13.4995ZM34.3601 13.4277L33.8987 13.6203L34.3601 13.4277ZM35.6829 10.069L36.1131 9.81427L35.6829 10.069ZM30.9185 8.28402L31.2729 7.93133L30.9185 8.28402ZM29.0775 3.46358L29.3322 3.03335L29.0775 3.46358ZM25.7189 4.78635L25.5262 5.24774L25.7189 4.78635ZM25.647 4.75654L25.4566 5.21887L25.647 4.75654ZM4.71298 25.7922L4.25158 25.9849L4.71298 25.7922ZM34.3898 25.7204L33.9275 25.53L34.3898 25.7204ZM3.39016 29.1509L2.95994 29.4057L3.39016 29.1509ZM22.1723 1.04209L22.1026 1.53722L22.1723 1.04209ZM30.8625 8.22801L30.5098 8.58243L30.8625 8.22801ZM37.7017 24.2814L37.2173 24.1572L37.7017 24.2814ZM4.5442 30.8747L4.94371 30.5741L4.5442 30.8747ZM16.8311 0.546964C16.1213 0.646817 15.4238 0.785391 14.7409 0.960491L14.9893 1.92916C15.6364 1.76322 16.2975 1.63187 16.9704 1.53721L16.8311 0.546964ZM19.4981 4.05303C19.5109 4.053 19.5237 4.05299 19.5365 4.05299V3.05299C19.5229 3.05299 19.5093 3.053 19.4957 3.05304L19.4981 4.05303ZM19.5365 4.05299C19.5493 4.05299 19.5621 4.053 19.575 4.05303L19.5774 3.05304C19.5638 3.053 19.5501 3.05299 19.5365 3.05299V4.05299ZM24.3322 0.9605C23.6493 0.785399 22.9518 0.646824 22.242 0.546969L22.1026 1.53722C22.7756 1.63188 23.4366 1.76323 24.0838 1.92916L24.3322 0.9605ZM25.4566 5.21887C25.4798 5.22844 25.503 5.23807 25.5262 5.24774L25.9115 4.32496C25.8868 4.31465 25.8621 4.3044 25.8374 4.29422L25.4566 5.21887ZM31.102 4.21815C30.5356 3.79189 29.9448 3.39613 29.3322 3.03335L28.8227 3.8938C29.4035 4.23773 29.9636 4.61296 30.5007 5.01717L31.102 4.21815ZM30.5098 8.58243C30.5279 8.60048 30.546 8.61857 30.5641 8.6367L31.2729 7.93133C31.2537 7.91204 31.2345 7.89279 31.2152 7.87359L30.5098 8.58243ZM36.1131 9.81427C35.7504 9.20165 35.3546 8.61091 34.9283 8.0445L34.1293 8.64581C34.5335 9.18292 34.9088 9.74302 35.2527 10.3238L36.1131 9.81427ZM33.8987 13.6203C33.9084 13.6435 33.918 13.6667 33.9276 13.6899L34.8522 13.3091C34.8421 13.2844 34.8318 13.2597 34.8215 13.235L33.8987 13.6203ZM38.5995 16.9045C38.4996 16.1947 38.3611 15.4972 38.186 14.8143L37.2173 15.0627C37.3832 15.7099 37.5146 16.3709 37.6092 17.0438L38.5995 16.9045ZM35.0934 19.5716C35.0934 19.5843 35.0934 19.5971 35.0934 19.6099H36.0934C36.0934 19.5963 36.0934 19.5827 36.0934 19.5691L35.0934 19.5716ZM35.0934 19.6099C35.0934 19.6227 35.0934 19.6355 35.0934 19.6483L36.0934 19.6508C36.0934 19.6371 36.0934 19.6235 36.0934 19.6099H35.0934ZM38.186 24.4055C38.3611 23.7227 38.4996 23.0252 38.5995 22.3154L37.6092 22.1761C37.5146 22.849 37.3832 23.51 37.2173 24.1572L38.186 24.4055ZM33.9275 25.53C33.918 25.5532 33.9083 25.5764 33.8987 25.5995L34.8215 25.9848C34.8318 25.9602 34.842 25.9355 34.8522 25.9108L33.9275 25.53ZM34.9284 31.1754C35.3546 30.609 35.7503 30.0183 36.1131 29.4057L35.2527 28.8961C34.9087 29.4769 34.5335 30.037 34.1293 30.5741L34.9284 31.1754ZM30.5639 30.5832C30.5459 30.6013 30.5279 30.6193 30.5097 30.6374L31.2151 31.3462C31.2344 31.327 31.2536 31.3078 31.2728 31.2885L30.5639 30.5832ZM29.3323 36.1865C29.9449 35.8237 30.5356 35.428 31.1019 35.0018L30.5006 34.2028C29.9636 34.607 29.4035 34.9822 28.8227 35.3261L29.3323 36.1865ZM25.5261 33.972C25.503 33.9817 25.4798 33.9913 25.4566 34.0009L25.8374 34.9255C25.8621 34.9154 25.8868 34.9051 25.9114 34.8948L25.5261 33.972ZM22.242 38.6729C22.9518 38.5731 23.6492 38.4345 24.3321 38.2594L24.0837 37.2908C23.4366 37.4567 22.7756 37.588 22.1027 37.6827L22.242 38.6729ZM19.5749 35.1667C19.5621 35.1667 19.5493 35.1668 19.5365 35.1668V36.1668C19.5501 36.1668 19.5637 36.1667 19.5773 36.1667L19.5749 35.1667ZM19.5365 35.1668C19.5237 35.1668 19.511 35.1667 19.4982 35.1667L19.4958 36.1667C19.5094 36.1667 19.5229 36.1668 19.5365 36.1668V35.1668ZM14.741 38.2594C15.4238 38.4345 16.1213 38.5731 16.831 38.6729L16.9703 37.6827C16.2975 37.588 15.6365 37.4567 14.9894 37.2908L14.741 38.2594ZM13.6165 34.0009C13.5933 33.9913 13.5701 33.9817 13.547 33.9721L13.1617 34.8949C13.1863 34.9051 13.211 34.9154 13.2357 34.9255L13.6165 34.0009ZM7.97111 35.0018C8.5375 35.428 9.1282 35.8238 9.74079 36.1865L10.2503 35.3261C9.66958 34.9822 9.1095 34.607 8.57242 34.2028L7.97111 35.0018ZM8.56331 30.6374C8.5452 30.6193 8.52713 30.6013 8.50911 30.5832L7.80028 31.2885C7.81945 31.3078 7.83867 31.327 7.85794 31.3462L8.56331 30.6374ZM2.95994 29.4057C3.32271 30.0183 3.71844 30.609 4.14469 31.1754L4.94371 30.5741C4.53951 30.037 4.1643 29.4769 3.82039 28.8961L2.95994 29.4057ZM5.17437 25.5996C5.1647 25.5764 5.15509 25.5532 5.14553 25.53L4.22087 25.9108C4.23105 25.9355 4.24129 25.9602 4.25158 25.9849L5.17437 25.5996ZM0.473541 22.3154C0.573394 23.0252 0.711964 23.7227 0.887059 24.4056L1.85572 24.1572C1.68979 23.51 1.55845 22.849 1.46379 22.1761L0.473541 22.3154ZM3.97965 19.6483C3.97962 19.6355 3.97961 19.6227 3.97961 19.6099H2.97961C2.97961 19.6235 2.97962 19.6371 2.97966 19.6508L3.97965 19.6483ZM3.97961 19.6099C3.97961 19.5971 3.97962 19.5843 3.97965 19.5716L2.97966 19.5691C2.97962 19.5827 2.97961 19.5963 2.97961 19.6099H3.97961ZM0.887062 14.8143C0.711965 15.4972 0.573392 16.1947 0.473539 16.9045L1.46379 17.0438C1.55845 16.3709 1.68979 15.7098 1.85573 15.0627L0.887062 14.8143ZM5.14546 13.6899C5.15503 13.6667 5.16465 13.6435 5.17433 13.6203L4.25154 13.235C4.24123 13.2597 4.23099 13.2844 4.22081 13.3091L5.14546 13.6899ZM4.14472 8.04447C3.71845 8.61089 3.3227 9.20163 2.95992 9.81425L3.82037 10.3238C4.16429 9.74301 4.53952 9.1829 4.94373 8.64579L4.14472 8.04447ZM8.509 8.63668C8.52704 8.61855 8.54513 8.60046 8.56327 8.58242L7.85789 7.87358C7.8386 7.89278 7.81936 7.91202 7.80016 7.93131L8.509 8.63668ZM9.74085 3.03333C9.12822 3.39611 8.53748 3.79187 7.97106 4.21814L8.57237 5.01715C9.10948 4.61294 9.66959 4.23771 10.2504 3.89378L9.74085 3.03333ZM13.5469 5.24773C13.57 5.23805 13.5933 5.22843 13.6165 5.21886L13.2357 4.2942C13.211 4.30439 13.1862 4.31464 13.1616 4.32494L13.5469 5.24773ZM13.6165 5.21886C14.5248 4.8448 15.0287 3.77966 14.5934 2.83664L13.6855 3.25576C13.8592 3.63201 13.671 4.11494 13.2357 4.2942L13.6165 5.21886ZM11.1717 4.25509C11.5307 5.22968 12.6404 5.62624 13.5469 5.24773L13.1616 4.32494C12.7275 4.50618 12.2532 4.29806 12.1101 3.90945L11.1717 4.25509ZM10.2504 3.89378C10.5773 3.70021 11.0228 3.85077 11.1717 4.25509L12.1101 3.90945C11.763 2.96729 10.6486 2.49576 9.74085 3.03333L10.2504 3.89378ZM8.55417 6.00819C8.23743 5.7157 8.26833 5.24596 8.57237 5.01715L7.97106 4.21814C7.12842 4.85227 7.13814 6.06173 7.87574 6.74286L8.55417 6.00819ZM8.56327 8.58242C9.2598 7.88929 9.31692 6.71255 8.55417 6.00819L7.87574 6.74286C8.1803 7.0241 8.19115 7.54195 7.85789 7.87358L8.56327 8.58242ZM5.93477 8.62759C6.63913 9.39034 7.81587 9.33322 8.509 8.63668L7.80016 7.93131C7.46853 8.26457 6.95068 8.25372 6.66944 7.94916L5.93477 8.62759ZM4.94373 8.64579C5.17254 8.34174 5.64228 8.31085 5.93477 8.62759L6.66944 7.94916C5.98831 7.21156 4.77885 7.20184 4.14472 8.04447L4.94373 8.64579ZM4.18167 11.2451C3.77735 11.0962 3.62679 10.6507 3.82037 10.3238L2.95992 9.81425C2.42234 10.722 2.89387 11.8364 3.83604 12.1835L4.18167 11.2451ZM5.17433 13.6203C5.55283 12.7138 5.15627 11.6041 4.18167 11.2451L3.83604 12.1835C4.22465 12.3266 4.43278 12.8009 4.25154 13.235L5.17433 13.6203ZM2.76322 14.6668C3.70625 15.1022 4.7714 14.5982 5.14546 13.6899L4.22081 13.3091C4.04154 13.7444 3.5586 13.9326 3.18235 13.7589L2.76322 14.6668ZM1.85573 15.0627C1.95009 14.6947 2.37172 14.4861 2.76322 14.6668L3.18235 13.7589C2.27083 13.3381 1.14916 13.7922 0.887062 14.8143L1.85573 15.0627ZM2.15243 17.7578C1.72136 17.7749 1.41076 17.4208 1.46379 17.0438L0.473539 16.9045C0.326622 17.9489 1.18903 18.7969 2.1922 18.757L2.15243 17.7578ZM3.97965 19.5716C3.98202 18.5885 3.1897 17.7165 2.15243 17.7578L2.1922 18.757C2.60681 18.7405 2.98079 19.0991 2.97966 19.5691L3.97965 19.5716ZM2.15243 21.4621C3.18971 21.5034 3.98203 20.6314 3.97965 19.6483L2.97966 19.6508C2.98079 20.1208 2.60682 20.4794 2.1922 20.4629L2.15243 21.4621ZM1.46379 22.1761C1.41076 21.7991 1.72136 21.445 2.15243 21.4621L2.1922 20.4629C1.18903 20.423 0.326622 21.271 0.473541 22.3154L1.46379 22.1761ZM2.76325 24.5531C2.37174 24.7338 1.95009 24.5252 1.85572 24.1572L0.887059 24.4056C1.14916 25.4277 2.27085 25.8818 3.18238 25.461L2.76325 24.5531ZM5.14553 25.53C4.77145 24.6217 3.70629 24.1177 2.76325 24.5531L3.18238 25.461C3.55865 25.2873 4.0416 25.4755 4.22087 25.9108L5.14553 25.53ZM8.50911 30.5832C7.81596 29.8866 6.63919 29.8295 5.93481 30.5923L6.66948 31.2707C6.95075 30.9661 7.46862 30.9553 7.80028 31.2885L8.50911 30.5832ZM8.55421 33.2117C9.31699 32.5073 9.25986 31.3305 8.56331 30.6374L7.85794 31.3462C8.19122 31.6779 8.18037 32.1957 7.87579 32.477L8.55421 33.2117ZM8.57242 34.2028C8.26835 33.974 8.23746 33.5042 8.55421 33.2117L7.87579 32.477C7.13817 33.1582 7.12845 34.3676 7.97111 35.0018L8.57242 34.2028ZM11.1717 34.9647C11.0228 35.3691 10.5772 35.5197 10.2503 35.3261L9.74079 36.1865C10.6486 36.7241 11.763 36.2526 12.1101 35.3104L11.1717 34.9647ZM13.547 33.9721C12.6404 33.5936 11.5307 33.9901 11.1717 34.9647L12.1101 35.3104C12.2532 34.9217 12.7276 34.7136 13.1617 34.8949L13.547 33.9721ZM14.5934 36.3832C15.0288 35.4401 14.5248 34.375 13.6165 34.0009L13.2357 34.9255C13.671 35.1048 13.8592 35.5878 13.6855 35.9641L14.5934 36.3832ZM14.9894 37.2908C14.6213 37.1964 14.4127 36.7747 14.5934 36.3832L13.6855 35.9641C13.2647 36.8756 13.7188 37.9973 14.741 38.2594L14.9894 37.2908ZM17.6844 36.994C17.7015 37.4251 17.3474 37.7357 16.9703 37.6827L16.831 38.6729C17.8755 38.8198 18.7235 37.9574 18.6836 36.9542L17.6844 36.994ZM19.4982 35.1667C18.5151 35.1643 17.6431 35.9567 17.6844 36.994L18.6836 36.9542C18.6671 36.5396 19.0257 36.1656 19.4958 36.1667L19.4982 35.1667ZM21.3887 36.994C21.43 35.9567 20.5579 35.1643 19.5749 35.1667L19.5773 36.1667C20.0473 36.1656 20.406 36.5396 20.3895 36.9542L21.3887 36.994ZM22.1027 37.6827C21.7257 37.7357 21.3716 37.4251 21.3887 36.994L20.3895 36.9542C20.3496 37.9574 21.1976 38.8198 22.242 38.6729L22.1027 37.6827ZM24.4796 36.3832C24.6604 36.7747 24.4518 37.1964 24.0837 37.2908L24.3321 38.2594C25.3543 37.9973 25.8084 36.8756 25.3876 35.9641L24.4796 36.3832ZM25.4566 34.0009C24.5483 34.3749 24.0443 35.4401 24.4796 36.3832L25.3876 35.9641C25.2139 35.5878 25.4021 35.1048 25.8374 34.9255L25.4566 34.0009ZM27.9013 34.9647C27.5424 33.9901 26.4326 33.5935 25.5261 33.972L25.9114 34.8948C26.3455 34.7136 26.8198 34.9217 26.963 35.3104L27.9013 34.9647ZM28.8227 35.3261C28.4958 35.5197 28.0503 35.3691 27.9013 34.9647L26.963 35.3104C27.31 36.2526 28.4245 36.7241 29.3323 36.1865L28.8227 35.3261ZM30.5188 33.2117C30.8356 33.5042 30.8047 33.9739 30.5006 34.2028L31.1019 35.0018C31.9446 34.3676 31.9349 33.1581 31.1973 32.477L30.5188 33.2117ZM30.5097 30.6374C29.8132 31.3305 29.7561 32.5073 30.5188 33.2117L31.1973 32.477C30.8927 32.1957 30.8818 31.6778 31.2151 31.3462L30.5097 30.6374ZM33.1382 30.5923C32.4339 29.8295 31.2571 29.8866 30.5639 30.5832L31.2728 31.2885C31.6044 30.9553 32.1223 30.9661 32.4036 31.2707L33.1382 30.5923ZM34.1293 30.5741C33.9005 30.8781 33.4307 30.909 33.1382 30.5923L32.4036 31.2707C33.0847 32.0083 34.2942 32.018 34.9284 31.1754L34.1293 30.5741ZM34.8913 27.9748C35.2957 28.1237 35.4462 28.5692 35.2527 28.8961L36.1131 29.4057C36.6507 28.4979 36.1792 27.3834 35.237 27.0364L34.8913 27.9748ZM33.8987 25.5995C33.5202 26.5061 33.9167 27.6158 34.8913 27.9748L35.237 27.0364C34.8483 26.8933 34.6402 26.4189 34.8215 25.9848L33.8987 25.5995ZM36.9206 21.4621C37.3517 21.445 37.6623 21.7991 37.6092 22.1761L38.5995 22.3154C38.7464 21.271 37.884 20.423 36.8808 20.4629L36.9206 21.4621ZM35.0934 19.6483C35.091 20.6314 35.8833 21.5034 36.9206 21.4621L36.8808 20.4629C36.4662 20.4794 36.0922 20.1208 36.0934 19.6508L35.0934 19.6483ZM36.9206 17.7578C35.8833 17.7165 35.091 18.5885 35.0934 19.5716L36.0934 19.5691C36.0923 19.0991 36.4662 18.7405 36.8808 18.757L36.9206 17.7578ZM37.6092 17.0438C37.6623 17.4208 37.3517 17.7749 36.9206 17.7578L36.8808 18.757C37.884 18.7969 38.7464 17.9489 38.5995 16.9045L37.6092 17.0438ZM36.3098 14.6668C36.7013 14.4861 37.123 14.6947 37.2173 15.0627L38.186 14.8143C37.9239 13.7922 36.8022 13.3381 35.8907 13.7589L36.3098 14.6668ZM33.9276 13.6899C34.3016 14.5982 35.3668 15.1022 36.3098 14.6668L35.8907 13.7589C35.5144 13.9326 35.0315 13.7444 34.8522 13.3091L33.9276 13.6899ZM34.8914 11.2451C33.9168 11.6041 33.5202 12.7138 33.8987 13.6203L34.8215 13.235C34.6403 12.8009 34.8484 12.3266 35.237 12.1835L34.8914 11.2451ZM35.2527 10.3238C35.4463 10.6507 35.2957 11.0962 34.8914 11.2451L35.237 12.1835C36.1792 11.8365 36.6507 10.7221 36.1131 9.81427L35.2527 10.3238ZM33.1383 8.62761C33.4308 8.31087 33.9005 8.34177 34.1293 8.64581L34.9283 8.0445C34.2942 7.20186 33.0848 7.21158 32.4036 7.94918L33.1383 8.62761ZM30.5641 8.6367C31.2572 9.33323 32.4339 9.39036 33.1383 8.62761L32.4036 7.94918C32.1224 8.25374 31.6045 8.26459 31.2729 7.93133L30.5641 8.6367ZM30.5007 5.01717C30.8047 5.24598 30.8356 5.71572 30.5189 6.0082L31.1973 6.74287C31.9349 6.06174 31.9446 4.85229 31.102 4.21815L30.5007 5.01717ZM27.9014 4.2551C28.0503 3.85079 28.4958 3.70023 28.8227 3.8938L29.3322 3.03335C28.4244 2.49578 27.31 2.9673 26.963 3.90946L27.9014 4.2551ZM25.5262 5.24774C26.4327 5.62625 27.5424 5.22969 27.9014 4.2551L26.963 3.90946C26.8199 4.29808 26.3456 4.5062 25.9115 4.32496L25.5262 5.24774ZM24.4797 2.83665C24.0443 3.77967 24.5483 4.84481 25.4566 5.21887L25.8374 4.29422C25.4021 4.11495 25.2139 3.63202 25.3876 3.25577L24.4797 2.83665ZM24.0838 1.92916C24.4518 2.02352 24.6604 2.44515 24.4797 2.83665L25.3876 3.25577C25.8084 2.34426 25.3543 1.22259 24.3322 0.9605L24.0838 1.92916ZM19.575 4.05303C20.558 4.05541 21.43 3.26309 21.3887 2.22584L20.3895 2.26561C20.406 2.68021 20.0474 3.05417 19.5774 3.05304L19.575 4.05303ZM4.18171 27.9748C5.15632 27.6158 5.55289 26.5061 5.17437 25.5996L4.25158 25.9849C4.43283 26.4189 4.2247 26.8933 3.83607 27.0364L4.18171 27.9748ZM17.6844 2.22583C17.6431 3.26309 18.5151 4.05541 19.4981 4.05303L19.4957 3.05304C19.0257 3.05417 18.6671 2.68021 18.6836 2.2656L17.6844 2.22583ZM36.3098 24.5531C35.3668 24.1177 34.3016 24.6217 33.9275 25.53L34.8522 25.9108C35.0314 25.4755 35.5144 25.2873 35.8907 25.461L36.3098 24.5531ZM3.82039 28.8961C3.6268 28.5692 3.77737 28.1237 4.18171 27.9748L3.83607 27.0364C2.89389 27.3835 2.42236 28.4979 2.95994 29.4057L3.82039 28.8961ZM14.7409 0.960491C13.7187 1.22258 13.2647 2.34425 13.6855 3.25576L14.5934 2.83664C14.4127 2.44514 14.6213 2.02351 14.9893 1.92916L14.7409 0.960491ZM21.3887 2.22584C21.3716 1.79478 21.7257 1.48419 22.1026 1.53722L22.242 0.546969C21.1976 0.400054 20.3496 1.26245 20.3895 2.26561L21.3887 2.22584ZM30.5189 6.0082C29.7561 6.71256 29.8133 7.8893 30.5098 8.58243L31.2152 7.87359C30.8819 7.54197 30.8928 7.02412 31.1973 6.74287L30.5189 6.0082ZM37.2173 24.1572C37.123 24.5252 36.7013 24.7338 36.3098 24.5531L35.8907 25.461C36.8022 25.8818 37.9239 25.4277 38.186 24.4055L37.2173 24.1572ZM5.93481 30.5923C5.64231 30.909 5.17253 30.8781 4.94371 30.5741L4.14469 31.1754C4.77884 32.018 5.98833 32.0083 6.66948 31.2707L5.93481 30.5923ZM16.9704 1.53721C17.3474 1.48418 17.7015 1.79478 17.6844 2.22583L18.6836 2.2656C18.7235 1.26244 17.8755 0.400051 16.8311 0.546964L16.9704 1.53721Z" fill="#3C4950"/>
</svg>
