<svg width="462" height="462" viewBox="0 0 462 462" fill="none" xmlns="http://www.w3.org/2000/svg">
<circle cx="231" cy="231" r="105" stroke="white" stroke-linecap="round" stroke-dasharray="1 3"/>
<path d="M233.043 32.0324L239.114 97.3852C239.472 101.233 244.897 101.722 245.935 97.9991L263.579 34.7807C264.391 31.8696 268.715 32.6541 268.452 35.6651L262.757 101.052C262.422 104.902 267.672 106.351 269.359 102.874L298.007 43.8217C299.326 41.1025 303.44 42.6463 302.644 45.5621L285.366 108.881C284.348 112.61 289.255 114.973 291.536 111.853L330.268 58.8649C332.051 56.4248 335.823 58.6784 334.52 61.4053L306.213 120.622C304.546 124.108 308.952 127.31 311.753 124.647L359.324 79.4266C361.515 77.3443 364.823 80.2351 363.054 82.6854L324.628 135.896C322.366 139.029 326.13 142.966 329.361 140.846L384.242 104.846C386.769 103.188 389.509 106.624 387.33 108.719L340.021 154.213C337.235 156.891 340.236 161.437 343.794 159.928L404.22 134.306C407.003 133.127 409.085 136.996 406.567 138.668L351.895 174.983C348.676 177.122 350.817 182.13 354.587 181.281L418.618 166.86C421.566 166.196 422.924 170.375 420.148 171.571L359.87 197.541C356.321 199.07 357.533 204.38 361.394 204.218L426.97 201.462C429.99 201.335 430.58 205.689 427.635 206.37L363.689 221.16C359.924 222.031 360.168 227.472 363.996 228.001L429.011 236.999C432.005 237.414 431.808 241.803 428.789 241.947L363.229 245.081C359.369 245.265 358.638 250.663 362.31 251.868L424.673 272.33C427.545 273.272 426.567 277.555 423.571 277.158L358.506 268.536C354.674 268.028 352.991 273.208 356.389 275.049L414.097 306.317C416.754 307.757 415.027 311.798 412.15 310.872L349.67 290.77C345.991 289.586 343.41 294.382 346.424 296.801L397.621 337.871C399.979 339.762 397.558 343.429 394.893 342.004L337.006 311.069C333.597 309.248 330.202 313.506 332.736 316.424L375.777 365.975C377.759 368.257 374.722 371.433 372.354 369.555L320.921 328.781C317.893 326.38 313.791 329.964 315.764 333.287L349.265 389.727C350.807 392.327 347.253 394.909 345.258 392.639L301.932 343.336C299.381 340.433 294.705 343.227 296.053 346.849L318.938 408.364C319.992 411.197 316.033 413.103 314.475 410.513L280.649 354.267C278.657 350.955 273.558 352.869 274.237 356.673L285.771 421.286C286.302 424.262 282.066 425.43 280.996 422.604L257.757 361.222C256.388 357.607 251.029 358.58 251.018 362.444L250.829 428.078C250.82 431.101 246.444 431.495 245.896 428.522L233.99 363.977C233.289 360.176 227.843 360.176 227.142 363.977L215.236 428.522C214.688 431.495 210.312 431.101 210.303 428.078L210.114 362.444C210.103 358.58 204.744 357.607 203.375 361.222L180.136 422.604C179.066 425.431 174.83 424.262 175.362 421.286L186.895 356.673C187.574 352.869 182.475 350.955 180.483 354.267L146.657 410.513C145.099 413.103 141.14 411.197 142.194 408.364L165.079 346.849C166.427 343.227 161.751 340.433 159.2 343.336L115.874 392.639C113.879 394.909 110.325 392.327 111.867 389.727L145.369 333.287C147.341 329.964 143.24 326.38 140.211 328.781L88.7784 369.555C86.4099 371.433 83.3735 368.257 85.3555 365.975L128.396 316.424C130.931 313.506 127.535 309.248 124.126 311.069L66.2395 342.004C63.5739 343.429 61.1533 339.762 63.5109 337.871L114.708 296.801C117.722 294.382 115.141 289.586 111.462 290.77L48.9822 310.872C46.1051 311.798 44.3781 307.757 47.0355 306.318L104.743 275.049C108.141 273.208 106.458 268.028 102.627 268.536L37.5611 277.158C34.5649 277.555 33.5872 273.272 36.459 272.33L98.8222 251.868C102.494 250.663 101.763 245.265 97.9029 245.081L32.3434 241.947C29.3245 241.803 29.1273 237.414 32.1212 236.999L97.1358 228.001C100.964 227.472 101.208 222.031 97.4431 221.16L33.4967 206.37C30.5521 205.689 31.1418 201.335 34.1616 201.462L99.738 204.218C103.599 204.38 104.811 199.07 101.262 197.541L40.984 171.571C38.2083 170.375 39.566 166.196 42.5146 166.86L106.545 181.281C110.315 182.13 112.456 177.122 109.237 174.983L54.5647 138.668C52.0471 136.996 54.1291 133.126 56.9118 134.306L117.338 159.928C120.896 161.437 123.897 156.891 121.111 154.213L73.8021 108.719C71.6236 106.624 74.363 103.188 76.8903 104.846L131.771 140.846C135.002 142.966 138.766 139.029 136.504 135.896L98.0781 82.6854C96.3086 80.2351 99.6174 77.3442 101.808 79.4266L149.379 124.647C152.18 127.31 156.586 124.108 154.919 120.622L126.612 61.4053C125.309 58.6784 129.081 56.4248 130.864 58.8649L169.596 111.853C171.877 114.973 176.784 112.61 175.766 108.881L158.488 45.5621C157.692 42.6464 161.806 41.1024 163.125 43.8218L191.773 102.874C193.46 106.351 198.71 104.902 198.375 101.052L192.68 35.6651C192.418 32.6541 196.741 31.8695 197.553 34.7807L215.197 97.9991C216.236 101.722 221.66 101.233 222.018 97.3852L228.09 32.0324C228.369 29.023 232.763 29.0229 233.043 32.0324Z" stroke="white" stroke-opacity="0.31" stroke-width="0.994872"/>
<circle cx="231" cy="231" r="86" stroke="#F59C37" stroke-width="0.994872" stroke-linecap="round" stroke-dasharray="2.98 4.97"/>
</svg>
