<svg width="116" height="116" viewBox="0 0 116 116" fill="none" xmlns="http://www.w3.org/2000/svg">
<path d="M22.1851 102.847L23.7829 104.085C24.6553 104.627 25.4367 105.236 26.2402 105.76C27.8706 106.823 29.4555 107.759 31.1287 108.636L32.8553 109.516L35.0799 110.499C35.0799 110.499 59.6903 92.9052 93.9321 101.673C93.9505 101.677 93.9696 101.675 93.9862 101.666C94.0027 101.657 94.0155 101.642 94.0224 101.625C94.0292 101.607 94.0297 101.588 94.0236 101.57C94.0176 101.552 94.0054 101.537 93.9893 101.528C89.6703 99.3032 61.9161 86.359 22.1851 102.847Z" fill="#1B96D2"/>
<path d="M37.9025 111.599C37.9025 111.599 63.6375 94.5668 92.6463 102.888C89.0111 105.943 66.4887 122.251 37.9025 111.599Z" fill="#1B96D2"/>
<path d="M70.7103 41.4521L80.4405 31.9923C79.5337 31.1665 78.5827 30.3905 77.5919 29.6676C75.2889 33.6174 72.995 37.5456 70.7103 41.4521Z" fill="#F59C37"/>
<path d="M78.3187 28.4234C79.4168 29.2205 80.4681 30.08 81.4677 30.9977L87.1493 25.4734L80.3066 25.017L78.3187 28.4234Z" fill="#F59C37"/>
<path d="M95.2322 16.0174C93.2612 14.5353 91.311 13.0293 89.3816 11.4994C88.6704 10.9378 88.2622 10.9976 87.7967 11.8297C85.3264 16.2423 82.8107 20.6264 80.3105 25.0196L87.1531 25.4695C89.8548 22.8081 92.5435 20.1389 95.2686 17.4931C95.8498 16.9223 95.9304 16.5414 95.2322 16.0174Z" fill="#F59C37"/>
<path d="M55.2958 23.2826C53.9869 23.3756 52.6845 23.5449 51.3953 23.7897C52.5915 28.387 53.7863 33.0116 54.9811 37.5582L55.2958 37.5062V23.2826Z" fill="#F59C37"/>
<path d="M49.7286 17.4034C50.162 19.0615 50.5975 20.7274 51.0352 22.4011C52.4428 22.1298 53.8656 21.9452 55.2958 21.8486V15.3388C55.3218 11.1172 55.3322 6.89433 55.3881 2.67277C55.3998 1.78477 55.1424 1.38173 54.1777 1.45973C51.6581 1.65449 49.1514 1.99045 46.6694 2.46604C45.7983 2.63506 45.667 2.9926 45.8893 3.76619C47.1829 8.30238 48.4506 12.8555 49.7286 17.4034Z" fill="#F59C37"/>
<path d="M64.5035 23.8768C63.2153 23.6148 61.9129 23.4281 60.603 23.3177V37.4893L60.9203 37.5374L64.5035 23.8768Z" fill="#F59C37"/>
<path d="M60.5977 21.8824C62.0321 21.9971 63.4581 22.2003 64.8674 22.4908C65.4134 20.4305 65.9547 18.3689 66.4913 16.306C64.3317 15.8783 63.6153 15.7431 60.5977 15.1359V21.8824Z" fill="#F59C37"/>
<path d="M66.4913 16.306C67.6614 12.1924 68.7951 8.07094 70.0017 3.9703C70.289 2.99129 69.8898 2.72866 69.037 2.61815C66.6616 2.31261 64.2888 1.97978 61.9135 1.66124C60.9943 1.53773 60.4768 1.75225 60.4976 2.85607C60.5756 6.94762 60.5717 11.047 60.5977 15.1346L66.4913 16.306Z" fill="#F59C37"/>
<path d="M77.2174 19.6331C79.2976 16.0733 81.3649 12.5005 83.488 8.96284C83.9898 8.12555 83.5764 7.88762 82.9367 7.57169C80.7733 6.50427 78.541 5.62147 76.2852 4.76988C75.2997 4.40064 74.9617 4.62296 74.7159 5.60587C73.6758 9.73512 72.5811 13.8462 71.5046 17.965L77.2161 19.6331H77.2174Z" fill="#F59C37"/>
<path d="M73.1116 26.9022C71.9416 26.3021 70.7373 25.7711 69.505 25.3121L65.7346 39.1599L66.0948 39.3238L73.1116 26.9022Z" fill="#F59C37"/>
<path d="M71.4072 24.5282C72.2263 24.8749 73.028 25.2506 73.8124 25.6554C74.9479 23.648 76.082 21.6405 77.2149 19.6331L71.5034 17.965L69.8808 23.9262C70.3948 24.1151 70.9036 24.3158 71.4072 24.5282Z" fill="#F59C37"/>
<path d="M49.7831 39.3186L50.164 39.1509L46.2545 25.1964C44.9921 25.6528 43.7582 26.1847 42.5595 26.7891L49.7831 39.3186Z" fill="#F59C37"/>
<path d="M38.0715 19.0064L41.8419 25.5462C42.5596 25.183 43.2902 24.8436 44.0339 24.5281C44.6398 24.2681 45.2509 24.0367 45.8658 23.8157C45.3458 21.9539 44.8257 20.0903 44.3057 18.2251L38.0715 19.0064Z" fill="#F59C37"/>
<path d="M38.0715 19.0064L44.3018 18.2263C43.1629 13.9008 42.0019 9.5804 40.9006 5.24573C40.69 4.41884 40.3728 4.19651 39.5537 4.49034C37.1125 5.3462 34.7216 6.33936 32.3925 7.46507C31.7424 7.7823 31.5422 8.10084 31.9531 8.77951C34.0112 12.1742 36.0355 15.5936 38.0715 19.0064Z" fill="#F59C37"/>
<path d="M35.8638 32.7516C38.8671 35.7705 41.8648 38.795 44.8569 41.8252L45.1975 41.4755L38.208 29.4102C37.1089 30.1911 36.0574 31.0368 35.059 31.9429C35.3269 32.2124 35.5951 32.482 35.8638 32.7516Z" fill="#F59C37"/>
<path d="M34.0501 30.9274C35.1371 29.9356 36.2852 29.0128 37.4877 28.1646C34.2382 22.555 30.9948 16.9414 27.7574 11.3239C27.2803 10.4931 26.924 10.4138 26.157 10.9716C24.3277 12.2977 22.5166 13.646 20.7549 15.0579C19.6016 15.9797 19.5847 16.4881 20.6509 17.5282C25.1598 21.9539 29.601 26.4472 34.0501 30.9274Z" fill="#F59C37"/>
<path d="M34.0814 55.2219L23.9936 56.6677C23.9936 56.7548 23.9936 56.8406 23.9936 56.9277C23.9933 58.3355 24.0801 59.7419 24.2536 61.1389C27.374 60.4303 30.259 59.8881 33.3546 59.3421C33.7889 58.9351 33.6575 55.6523 34.0814 55.2219Z" fill="#F59C37"/>
<path d="M22.5595 56.9277C22.5595 56.9095 22.5595 56.8913 22.5595 56.8731C15.648 57.8638 8.73553 58.8458 1.82224 59.8192C0.735319 59.97 0.890036 60.5408 1.03305 61.2663C1.4725 63.4869 2.15247 65.6399 2.77134 67.8125C3.11848 69.032 3.61903 69.0398 4.62014 68.6004C10.1978 66.1522 15.7637 63.2087 21.6689 61.7499C22.0681 61.6524 22.4594 61.5575 22.8481 61.4652C22.6558 59.9604 22.5594 58.4448 22.5595 56.9277Z" fill="#F59C37"/>
<path d="M33.2259 54.174C33.7797 53.9543 34.3297 53.7098 34.8758 53.4628L24.498 51.0732C24.3015 52.206 24.1627 53.3482 24.082 54.4951C27.1286 54.3859 30.1766 54.2789 33.2259 54.174Z" fill="#F59C37"/>
<path d="M23.099 50.7507C16.4614 49.2218 9.82632 47.685 3.19387 46.1404C2.12775 45.8908 2.07184 46.4785 1.95093 47.2052C1.58039 49.4337 1.45948 51.6842 1.27226 53.9322C1.16694 55.1933 1.63109 55.3805 2.71801 55.3311C8.77668 55.0568 14.8366 54.8345 20.8966 54.6095L22.6414 54.5458C22.7249 53.2734 22.8777 52.0065 23.099 50.7507Z" fill="#F59C37"/>
<path d="M35.6025 49.8133C36.22 49.7678 36.8389 49.6963 37.4565 49.6209L26.768 43.5102C26.261 44.6778 25.8208 45.8732 25.4496 47.0908C28.8352 47.994 32.2195 48.9015 35.6025 49.8133Z" fill="#F59C37"/>
<path d="M24.0663 46.7177C24.4239 45.5371 24.8436 44.3762 25.3236 43.2398C25.3873 43.0903 25.4536 42.9421 25.5186 42.7938C19.7433 39.4898 13.9716 36.1787 8.20328 32.8608C7.22037 32.2952 6.98634 32.8504 6.64311 33.5225C5.60299 35.5833 4.8021 37.7402 3.93751 39.875C3.45386 41.0725 3.8569 41.3962 4.95292 41.6783C11.0519 43.2502 17.1379 44.8741 23.2238 46.4889L24.0663 46.7177Z" fill="#F59C37"/>
<path d="M79.5265 56.4805C79.9166 56.851 79.4225 59.2225 79.5265 59.2576C83.5427 59.8205 87.3911 60.5759 91.1485 61.4678C91.3415 60.0391 91.4431 58.5995 91.4527 57.1578L79.5265 56.4805Z" fill="#F59C37"/>
<path d="M112.382 58.3487C109.301 58.2382 106.225 58.0133 103.151 57.8365L92.8803 57.2501C92.8666 58.779 92.755 60.3055 92.5461 61.8201C98.857 63.3933 104.935 65.3552 111.138 67.4614C112.085 67.7839 112.347 67.4614 112.499 66.6346C112.908 64.4165 113.291 62.1933 113.776 59.9934C114.07 58.6907 113.562 58.3904 112.382 58.3487Z" fill="#F59C37"/>
<path d="M78.9337 52.3122C79.3991 52.5722 79.5005 52.6723 79.6084 52.6801C83.4985 52.9402 87.3889 53.2028 91.2798 53.468C91.1579 52.2754 90.9721 51.0901 90.7233 49.9173L78.9337 52.3122Z" fill="#F59C37"/>
<path d="M113.116 53.7501C112.973 51.5074 112.805 49.2647 112.741 47.0193C112.702 45.6841 112.141 45.528 110.996 45.7868C108.006 46.4615 104.991 47.0232 101.986 47.633L92.1275 49.6352C92.4014 50.9342 92.601 52.2477 92.7256 53.5694C99.1535 54.0028 105.58 54.4444 112.005 54.8943C112.995 54.9606 113.17 54.5835 113.116 53.7501Z" fill="#F59C37"/>
<path d="M77.4905 50.1942C78.0274 50.2826 78.1601 50.3438 78.2706 50.3164C82.197 49.3015 86.1239 48.2843 90.0512 47.265C89.706 46.1061 89.298 44.9668 88.829 43.8521L77.4905 50.1942Z" fill="#F59C37"/>
<path d="M111.21 40.5836C110.332 38.5671 109.431 36.5532 108.629 34.5106C108.153 33.295 107.556 33.3314 106.527 33.9347C103.84 35.5118 101.093 36.9926 98.372 38.5151L90.0823 43.1501L90.1213 43.2398C90.6268 44.4368 91.0656 45.6608 91.4358 46.9062C97.79 45.2594 104.146 43.6212 110.505 41.9917C111.49 41.7394 111.537 41.3377 111.21 40.5836Z" fill="#F59C37"/>
<path d="M40.9578 45.6893L41.275 45.2992C38.8698 42.9473 36.4476 40.6122 34.0605 38.2407L31.5058 35.7029C30.6707 36.7316 29.8971 37.8087 29.1889 38.9285C33.1101 41.189 37.0331 43.4426 40.9578 45.6893Z" fill="#F59C37"/>
<path d="M27.9459 38.2147C28.7181 36.9873 29.5662 35.8092 30.4851 34.6875C25.9364 30.1647 21.4028 25.6268 16.8843 21.0737C15.9352 20.1129 15.3684 19.9985 14.5441 21.1478C13.2998 22.8796 11.9906 24.5711 10.6099 26.1975C9.59184 27.3976 10.0196 27.902 11.2326 28.5833C16.7036 31.6633 22.1148 34.85 27.5533 37.9885L27.9459 38.2147Z" fill="#F59C37"/>
<path d="M74.5859 45.3486C74.7069 45.463 74.8278 45.5774 74.95 45.6906L86.3912 39.1521C85.7085 38.0542 84.9641 36.996 84.1615 35.9824C80.9761 39.1105 77.7843 42.2326 74.5859 45.3486Z" fill="#F59C37"/>
<path d="M104.626 27.4704C103.285 25.7555 101.923 24.0536 100.66 22.2867C99.8114 21.0971 99.2068 21.0607 98.1381 22.1463C93.8788 26.4771 89.5273 30.7181 85.1952 34.9787C86.0804 36.0832 86.898 37.2403 87.6434 38.4436C93.221 35.2582 98.8025 32.0772 104.388 28.9005C105.176 28.4494 105.089 28.0619 104.626 27.4704Z" fill="#F59C37"/>
<path d="M24.0313 61.161C50.1056 55.1478 74.0282 57.6012 91.1784 61.4327C91.3894 59.9424 91.482 58.4378 91.4553 56.9329C91.4553 38.298 76.3477 23.1968 57.7231 23.1968C39.0986 23.1968 23.9897 38.298 23.9897 56.9277C23.9893 56.9711 23.9867 57.0145 23.9819 57.0577C23.9741 58.4476 23.9064 59.8049 24.0313 61.161Z" fill="#F59C37"/>
<path d="M79.5186 42.6534C79.5027 42.3227 79.4566 41.9941 79.3808 41.6718C79.3054 41.3611 79.1676 41.066 79.0636 40.7617C78.9596 40.4575 78.8348 40.3262 78.5435 40.031C78.4605 39.9565 78.3737 39.8862 78.2835 39.8204C78.2068 39.7593 78.1249 39.7021 78.0547 39.6345C77.9247 39.5162 77.8232 39.3745 77.6906 39.2692C76.9422 38.6587 76.1306 38.13 75.2698 37.6921C74.0931 37.0966 72.8671 36.6611 71.5384 36.5688C71.3966 36.5584 71.2549 36.5285 71.0521 36.4999C72.3523 35.9135 73.6524 35.7341 74.9785 35.608C75.8249 35.5287 76.6687 35.5417 77.4735 36.0045C77.4501 35.9005 77.4358 35.8394 77.4215 35.777C77.4159 35.7443 77.4076 35.7121 77.3968 35.6808C76.8273 34.2584 76.0265 32.9934 74.8368 32.0053C74.0762 31.3734 73.2246 30.9587 72.2014 31.0445C71.4682 31.1043 70.8597 31.3773 70.6036 32.1262C70.4749 32.511 70.3783 32.9059 70.3149 33.3067C70.1364 34.3111 69.841 35.2911 69.4347 36.2268C69.3944 36.1046 69.3671 36.0279 69.3424 35.9512C69.2508 35.5828 69.1357 35.2206 68.9979 34.8669C68.0956 32.9102 66.8292 31.2499 65.0012 30.0629C63.939 29.3725 62.791 29.1879 61.5806 29.5701C60.6801 29.8592 59.8498 30.333 59.1428 30.9613C58.2639 31.7322 57.4331 32.5565 56.5815 33.3587C56.5217 33.4146 56.4671 33.477 56.4112 33.5381C56.3553 33.5992 56.3163 33.6447 56.2682 33.6981C57.1157 33.3919 57.9942 33.1796 58.888 33.0649C60.1071 32.9 61.3359 32.8175 62.5661 32.8179C63.7562 32.7901 64.9349 33.0553 65.9985 33.5901C67.0288 34.0915 67.908 34.8568 68.5467 35.8082C68.6234 35.9239 68.6767 36.0513 68.7509 36.1735C68.7288 36.1795 68.7057 36.1804 68.6832 36.1764C68.6607 36.1724 68.6394 36.1634 68.6208 36.1501C68.1905 35.8589 67.7627 35.5638 67.3298 35.2751L66.7668 34.9644C66.7107 34.9174 66.6517 34.8739 66.59 34.8344C65.8723 34.4443 65.1352 34.1141 64.3304 33.9568C63.3972 33.7583 62.4243 33.8801 61.5689 34.3026C60.8135 34.6732 60.1972 35.2127 59.633 35.8212C58.4628 37.0849 57.8128 38.5632 57.792 40.3041C57.779 41.4365 58.013 42.5312 58.2717 43.6207C58.5551 44.8104 58.8828 45.9896 59.1818 47.1688C59.1886 47.1258 59.1925 47.0824 59.1935 47.0388C59.1662 45.515 59.2169 43.9978 59.5836 42.5052C59.7971 41.5594 60.1799 40.66 60.7134 39.8503C61.422 38.7985 62.4036 38.1003 63.5802 37.6726C64.3239 37.4035 65.074 37.1772 65.8866 37.2695C66.4392 37.3333 66.997 37.3593 67.5521 37.3996L68.7574 37.4958C68.7105 37.5608 68.6846 37.5998 68.6559 37.6362C67.9877 38.4657 67.283 39.2666 66.6602 40.1286C64.7867 42.7197 63.0198 45.3837 61.7561 48.3364C61.353 49.2764 60.976 50.2333 60.6588 51.2045C60.2986 52.2966 59.9996 53.4082 59.6993 54.5185C59.4938 55.2778 59.3118 56.0436 59.1532 56.8159C59.0843 57.1526 59.0726 57.2059 59.0102 57.5479L60.322 57.5765C60.5236 56.6768 60.7329 55.8863 60.9721 54.997C61.2724 53.862 61.6079 52.7334 61.9784 51.6166C62.4647 50.1501 62.9678 48.6874 63.5256 47.2468C64.2485 45.3811 65.286 43.6844 66.4353 42.0463C67.1842 40.9802 67.9006 39.8919 68.6247 38.8089C68.8367 38.4917 69.0252 38.1588 69.2241 37.8325L69.2956 37.8442C69.3034 38.0106 69.3216 38.1783 69.319 38.3448C69.2969 39.7073 68.9693 41.0244 68.6963 42.3492C68.4882 43.3607 68.2945 44.3787 68.3881 45.4136C68.4713 46.3471 68.6403 47.2728 68.7509 48.2037C68.8588 49.1138 68.9641 50.0239 69.0265 50.934C69.0681 51.562 69.0343 52.1939 69.0343 52.8231C69.1013 52.8084 69.1597 52.7677 69.1968 52.71C70.1745 51.1798 71.1665 49.656 71.9349 48.0048C72.4069 46.9881 72.8008 45.948 72.9412 44.8234C73.0851 43.699 72.9603 42.5566 72.5772 41.4898C72.2248 40.5056 71.7672 39.5578 71.3394 38.6009C71.1717 38.2265 70.9598 37.8728 70.7297 37.4308C71.2497 37.5673 71.7282 37.6544 72.1754 37.8208C73.5744 38.3266 74.6457 39.2588 75.4843 40.4705C76.3086 41.6588 76.8403 42.9772 77.2109 44.3709C77.5548 45.6968 77.7451 47.0579 77.7777 48.4274C77.7777 48.5106 77.7972 48.5938 77.8076 48.677L77.8883 48.69C78.2575 47.7357 78.6514 46.7905 78.9908 45.8297C79.347 44.8039 79.581 43.7495 79.5186 42.6534Z" fill="white"/>
<path d="M50.5164 57.6506C50.5472 57.6531 50.578 57.6531 50.6088 57.6506L51.7568 57.6038C51.6918 57.3879 51.6268 57.2202 51.5566 57.007C51.2809 56.1723 50.9611 55.3506 50.614 54.5367C49.5244 52.0014 48.0137 49.7132 46.4028 47.4887C45.8684 46.7489 45.2626 46.0585 44.6892 45.3473C44.6645 45.3161 44.6411 45.2823 44.6008 45.2277L45.6409 45.1445C46.1181 45.1081 46.5978 45.086 47.0711 45.0314C47.7679 44.9521 48.4128 45.1458 49.0512 45.3772C50.0544 45.7163 50.9195 46.3737 51.515 47.2494C51.9729 47.945 52.3014 48.7176 52.4849 49.5299C52.7943 50.8105 52.8385 52.1133 52.8151 53.4225C52.8156 53.4609 52.819 53.4991 52.8255 53.5369C53.0855 52.5241 53.369 51.5113 53.6056 50.4894C53.8279 49.5546 54.0294 48.6133 54.0177 47.6421C53.9995 46.1469 53.4457 44.8767 52.4368 43.7923C51.9675 43.2606 51.4042 42.8198 50.7752 42.4922C50.0405 42.1295 49.2052 42.0246 48.4037 42.1945C47.7223 42.3464 47.0679 42.6006 46.4626 42.9486C46.4104 42.9826 46.36 43.0195 46.3118 43.0591L45.8268 43.3256C45.4563 43.5739 45.0884 43.8275 44.7178 44.0771C44.7024 44.0882 44.6848 44.0958 44.6662 44.0994C44.6475 44.103 44.6283 44.1025 44.6099 44.0979C44.6671 43.9926 44.7191 43.8834 44.7854 43.7832C45.3321 42.9638 46.0862 42.3039 46.971 41.8707C47.8839 41.4119 48.8956 41.1842 49.9171 41.2077C50.9734 41.2076 52.0285 41.2793 53.0751 41.4222C53.8427 41.5201 54.5971 41.7028 55.3244 41.9669C55.2841 41.9201 55.2438 41.8733 55.2022 41.8278C55.1606 41.7823 55.1073 41.7225 55.0552 41.6744C54.3246 40.9853 53.6121 40.2768 52.8567 39.6163C52.2495 39.0771 51.5366 38.6701 50.7635 38.4215C49.7234 38.0925 48.7379 38.2511 47.8252 38.844C46.2559 39.8633 45.1677 41.2896 44.3941 42.9694C44.2758 43.2731 44.1768 43.584 44.0976 43.9003C44.0768 43.9666 44.0534 44.0303 44.0183 44.1369C43.6695 43.3336 43.4156 42.4923 43.2617 41.6302C43.2075 41.2859 43.1249 40.9467 43.0146 40.6161C42.7949 39.966 42.2722 39.7385 41.643 39.6865C40.7641 39.6137 40.0321 39.9699 39.3794 40.5121C38.3575 41.3611 37.6697 42.4467 37.1809 43.6688C37.172 43.6956 37.165 43.723 37.1601 43.7507C37.1471 43.804 37.1354 43.8574 37.1146 43.9471C37.8063 43.5492 38.5304 43.5375 39.2572 43.6064C40.3909 43.7143 41.5182 43.8665 42.6298 44.3722C42.4556 44.3969 42.3334 44.4229 42.2111 44.4307C41.0709 44.51 40.0178 44.8845 39.0076 45.3954C38.2681 45.772 37.5708 46.2261 36.9274 46.7502C36.8129 46.8425 36.7219 46.9621 36.6153 47.0635C36.5542 47.122 36.4853 47.1714 36.419 47.2234C36.3421 47.2797 36.2684 47.34 36.198 47.4041C35.938 47.6577 35.8352 47.7799 35.7481 48.0321C35.6441 48.2874 35.5529 48.5477 35.4751 48.8122C35.4103 49.0889 35.3707 49.3709 35.3568 49.6547C35.3035 50.596 35.5037 51.5009 35.8118 52.385C36.1031 53.2132 36.4411 54.0245 36.7583 54.8436L36.8286 54.8319C36.8377 54.7617 36.8507 54.6901 36.8533 54.6186C36.8825 53.4397 37.047 52.2679 37.3434 51.1265C37.6399 49.9337 38.1419 48.8017 38.8269 47.7812C39.5484 46.7411 40.4663 45.9402 41.6677 45.5059C42.0577 45.3681 42.4595 45.294 42.9093 45.1757C42.7117 45.5514 42.5297 45.8544 42.3893 46.1755C42.0213 46.9972 41.6287 47.8111 41.3257 48.6575C40.9938 49.5721 40.8842 50.5525 41.0059 51.5178C41.1255 52.4838 41.4636 53.377 41.8692 54.2481C42.5297 55.6665 42.9262 55.8902 43.7648 57.2046C43.7921 57.2475 44.121 57.6155 44.203 57.6376C44.3668 57.0941 44.333 57.3086 44.372 56.7704C44.4253 55.9903 44.515 55.2102 44.6086 54.4301C44.7035 53.6305 44.8491 52.8348 44.9206 52.0339C44.9999 51.1447 44.8335 50.271 44.6606 49.4012C44.4253 48.2648 44.1406 47.1337 44.1263 45.9636C44.1263 45.8206 44.1379 45.6763 44.1458 45.5332L44.2069 45.5228C44.3785 45.8037 44.5397 46.0897 44.7269 46.3614C45.3484 47.291 45.9634 48.2271 46.6082 49.1424C47.5937 50.544 48.4856 52.0027 49.1058 53.6032C49.5855 54.8397 50.0159 56.0969 50.4345 57.3554C50.4579 57.4594 50.4852 57.5466 50.5164 57.6506Z" fill="white"/>
<path d="M16.8701 98.1032L17.7399 98.9639L18.568 99.744L19.4781 100.573L20.7029 101.634C58.7554 82.0932 97.6934 98.2904 97.7246 98.3047C103.817 92.2512 108.371 85.1395 111.256 76.8524C111.517 76.123 111.697 75.5522 111.697 75.5522C59.7357 60.5187 16.8701 98.1032 16.8701 98.1032Z" fill="#1B96D2"/>
<path d="M112.817 71.5218L112.831 71.4685C108.93 69.7783 56.6206 48.2141 2.33313 72.7946C2.81288 74.6148 3.43955 76.4987 4.08832 78.2396C5.30005 81.3782 7.00454 85.0836 9.27199 88.5784C11.047 91.3224 13.034 93.9232 15.2149 96.3571C15.2149 96.3571 53.8214 59.5293 112.817 71.5218Z" fill="#1B96D2"/>
<path d="M57.987 109.266C58.1032 110.01 57.9645 110.654 57.571 111.2C57.1775 111.745 56.6111 112.075 55.8717 112.192C55.5522 112.243 55.2262 112.238 54.9083 112.177C54.5999 112.118 54.3052 112.002 54.0398 111.834C53.7599 111.653 53.5257 111.41 53.3559 111.123C53.1593 110.794 53.0306 110.429 52.9776 110.05C52.8879 109.56 52.9403 109.054 53.1284 108.593C53.2923 108.187 53.5683 107.837 53.9241 107.583C54.2729 107.339 54.6734 107.179 55.0942 107.116C55.4076 107.066 55.7273 107.073 56.0381 107.137C56.3464 107.198 56.6408 107.315 56.9066 107.482C57.1871 107.665 57.423 107.908 57.597 108.194C57.7999 108.52 57.9327 108.886 57.987 109.266ZM54.2543 109.85C54.274 110.029 54.3303 110.203 54.4197 110.359C54.5092 110.516 54.6299 110.652 54.7744 110.76C55.0403 110.95 55.3701 111.028 55.6929 110.978C56.0157 110.927 56.3059 110.752 56.501 110.49C56.6063 110.343 56.6798 110.175 56.7167 109.998C56.7537 109.821 56.7533 109.638 56.7155 109.461C56.6959 109.282 56.6396 109.109 56.5501 108.952C56.4607 108.796 56.3399 108.659 56.1955 108.551C56.0661 108.456 55.9189 108.387 55.7626 108.35C55.6062 108.312 55.4439 108.306 55.2854 108.333C55.1227 108.355 54.966 108.408 54.8243 108.491C54.6826 108.574 54.5587 108.684 54.4598 108.815C54.2569 109.079 54.1885 109.422 54.2543 109.846V109.85Z" fill="white"/>
<path d="M59.3769 107.687L58.1769 107.874L58.0027 106.758L61.6301 106.19L61.8043 107.306L60.616 107.493L61.2049 111.263L59.9698 111.456L59.3769 107.687Z" fill="white"/>
<path d="M65.3342 105.61L65.5084 106.719L63.7363 106.996L63.8455 107.694L65.4772 107.434L65.6527 108.551L64.0197 108.811L64.1497 109.607L65.9842 109.32L66.1663 110.49L63.055 110.977L62.2905 106.094L65.3342 105.61Z" fill="white"/>
<path d="M68.2126 106.325L68.3739 108.594C68.4064 109.075 68.3739 109.439 68.2776 109.687C68.2289 109.811 68.1547 109.923 68.0597 110.017C67.9647 110.11 67.8511 110.182 67.7264 110.228C67.3684 110.353 66.9893 110.406 66.6109 110.384L66.4886 109.468C66.7617 109.448 66.9359 109.392 67.0087 109.3C67.0815 109.208 67.1127 109.024 67.0984 108.75L66.9177 105.366L70.367 104.822L71.1315 109.707L69.8612 109.905L69.2749 106.159L68.2126 106.325Z" fill="white"/>
<path d="M72.6526 104.465L72.8815 105.922L73.7812 105.782C74.0156 105.741 74.2553 105.741 74.4897 105.782C74.6933 105.819 74.8868 105.898 75.0579 106.015C75.2176 106.127 75.3596 106.263 75.4792 106.418C75.6 106.572 75.6885 106.749 75.7392 106.938C75.7894 107.122 75.819 107.311 75.8276 107.502C75.8352 107.695 75.8047 107.888 75.7379 108.07C75.6712 108.253 75.5779 108.425 75.4609 108.581C75.3332 108.745 75.173 108.881 74.9903 108.98C74.7817 109.096 74.554 109.173 74.3181 109.208L72.1768 109.543L71.4071 104.659L72.6526 104.465ZM73.9528 106.905L73.0531 107.046L73.2377 108.225L74.1374 108.084C74.263 108.068 74.3779 108.005 74.4598 107.909C74.538 107.819 74.581 107.704 74.5807 107.585C74.582 107.468 74.5613 107.352 74.5196 107.242C74.4778 107.134 74.4021 107.043 74.3038 106.982C74.2021 106.913 74.0779 106.886 73.9567 106.905H73.9528Z" fill="white"/>
<path d="M67.2844 79.4605L70.8767 79.5073L70.8597 80.8581L68.7795 80.8321L68.7236 85.2526L67.2155 85.2331L67.2844 79.4605Z" fill="white"/>
<path d="M76.3035 85.5425V85.6257L74.6835 85.5191L74.4027 84.765L72.2327 84.6233L71.8635 85.3332L70.237 85.2279V85.1447L73.3183 79.5918L73.9762 79.6347L76.3035 85.5425ZM72.8633 83.3596L73.9242 83.4298L73.4978 81.9892L72.8633 83.3596Z" fill="white"/>
<path d="M81.5482 84.6194C81.4182 85.6166 80.5653 86.1887 79.4368 86.0496L76.7377 85.6972L77.4723 79.9766L79.884 80.2861C81.045 80.4356 81.7354 81.2053 81.6067 82.2025C81.582 82.4155 81.5057 82.6193 81.3845 82.7962C81.2633 82.9732 81.1008 83.1179 80.9111 83.2179C81.1384 83.3679 81.3188 83.579 81.4315 83.8269C81.5442 84.0748 81.5847 84.3495 81.5482 84.6194ZM80.0426 84.31C80.0829 83.9993 79.8931 83.7899 79.533 83.7457L78.5111 83.6157L78.3811 84.5973L79.403 84.7273C79.7696 84.7729 80.0049 84.6207 80.0452 84.31H80.0426ZM79.598 81.5433L78.7971 81.4406L78.6671 82.4209L79.468 82.5236C79.8125 82.5678 80.0387 82.4144 80.079 82.1037C80.1193 81.7929 79.9373 81.5875 79.598 81.5433Z" fill="white"/>
<path d="M87.4249 87.3302L87.4106 87.4108L85.8153 87.1105L85.6268 86.3304L83.4881 85.9287L83.0369 86.5904L81.4417 86.2901L81.456 86.2095L85.1887 81.0635L85.8387 81.1858L87.4249 87.3302ZM84.2708 84.7494L85.3109 84.9458L85.0613 83.4649L84.2708 84.7494Z" fill="white"/>
<path d="M94.0557 83.123L92.6658 88.724L91.2019 88.3612L91.7544 86.138L89.8692 85.666L89.318 87.8893L87.854 87.5252L89.2452 81.9346L90.7078 82.2974L90.1956 84.3607L92.0795 84.8235L92.5995 82.7602L94.0557 83.123Z" fill="white"/>
<path d="M98.8636 88.4704C98.5697 89.4326 97.6024 90.2048 96.2776 89.8018L93.7865 89.0438L95.4676 83.5234L96.9094 83.9629L96.4089 85.6101L97.4568 85.93C98.7816 86.3343 99.1587 87.5005 98.8636 88.4704ZM97.384 88.0362C97.4867 87.6982 97.384 87.2964 96.9939 87.1768L96.024 86.8804L95.6184 88.213L96.5883 88.5082C96.9874 88.6317 97.28 88.3599 97.384 88.0362Z" fill="white"/>
<path d="M12.0063 85.7336C11.0013 84.4335 11.195 82.8187 12.4626 81.8436C13.6015 80.966 14.8367 81.0557 15.8183 81.8592L14.6976 82.7212C14.4788 82.6118 14.2328 82.5686 13.9898 82.597C13.7468 82.6254 13.5174 82.7242 13.3298 82.8811C12.6966 83.3687 12.6225 84.1514 13.1569 84.8469C13.6912 85.5425 14.4687 85.6712 15.1071 85.1837C15.3229 85.0321 15.4856 84.8163 15.5719 84.5671C15.6583 84.3179 15.6639 84.0478 15.5882 83.7951L16.6959 82.9422C17.29 84.1215 17.0651 85.3826 15.8885 86.2875C14.6156 87.2652 13.0113 87.0403 12.0063 85.7336Z" fill="white"/>
<path d="M16.8167 82.0672C15.9274 80.6826 16.2967 79.0769 17.6995 78.1668C19.1024 77.2567 20.7237 77.6 21.6143 78.9859C22.5049 80.3719 22.1343 81.9762 20.7315 82.8863C19.3286 83.7964 17.7112 83.4532 16.8167 82.0672ZM20.3921 79.7712C19.9215 79.0392 19.1362 78.8507 18.4302 79.3044C17.7242 79.7582 17.5656 80.5435 18.0402 81.282C18.5147 82.0204 19.2948 82.2025 20.0008 81.7487C20.7068 81.295 20.8628 80.5032 20.3921 79.7712Z" fill="white"/>
<path d="M25.1793 73.9531L27.7666 78.7363L26.5224 79.4098L24.5383 75.7395L23.4514 76.3271L24.3953 78.5283C24.8946 79.6984 24.7542 80.4005 23.8935 80.8685C23.7153 80.9634 23.5541 81.0427 23.311 81.1467L22.813 80.2249C22.9054 80.1833 22.9665 80.1508 23.0549 80.1027C23.3968 79.9181 23.4449 79.701 23.2421 79.2238L21.8041 75.7798L25.1793 73.9531Z" fill="white"/>
<path d="M30.7413 71.3749L32.9879 76.3258L31.6878 76.9135L30.8011 74.9425L29.1317 75.6992L30.0236 77.6728L28.73 78.2604L26.4833 73.3082L27.777 72.7218L28.6052 74.542L30.2746 73.7854L29.4464 71.9652L30.7413 71.3749Z" fill="white"/>
<path d="M36.7778 73.4954L37.2341 74.685L34.0007 75.9267L32.0505 70.8496L35.2202 69.634L35.674 70.8158L33.8239 71.5257L34.1138 72.2798L35.8183 71.6297L36.2629 72.7894L34.5584 73.4395L34.8627 74.23L36.7778 73.4954Z" fill="white"/>
<path d="M40.1504 67.9997L41.8237 73.1743L40.4702 73.6111L39.8904 71.8143C39.6663 71.9311 39.4328 72.0285 39.1922 72.1056C37.9284 72.5138 37.0001 72.1446 36.4957 70.5844L36.0848 69.3129L37.4461 68.8734L37.7984 69.9681C38.0923 70.8782 38.3718 71.0316 39.0362 70.8171C39.1972 70.761 39.3512 70.6864 39.4951 70.5948L38.7982 68.4418L40.1504 67.9997Z" fill="white"/>
<path d="M46.0348 66.4265L47.3934 71.6921L46.0166 72.0483L45.477 69.9564L43.7023 70.4154L44.2419 72.506L42.8663 72.8622L41.5038 67.5954L42.8806 67.2404L43.3812 69.1802L45.1559 68.7226L44.6553 66.7815L46.0348 66.4265Z" fill="white"/>
<path d="M53.4105 70.4128L53.4248 70.4882L51.9232 70.782L51.4863 70.1631L49.4724 70.5532L49.3047 71.2904L47.803 71.5816L47.7874 71.5062L49.2618 65.7024L49.8728 65.584L53.4105 70.4128ZM49.7493 69.2492L50.7322 69.058L49.999 67.8476L49.7493 69.2492Z" fill="white"/>
<path d="M57.2355 64.488L57.9727 69.8719L56.5646 70.0656L56.3319 68.3755L55.5999 68.4756L54.9707 70.2867L53.4859 70.4908L53.4755 70.4141L54.2452 68.4418C53.6016 68.2168 53.2116 67.6617 53.1206 66.9895C52.9906 66.0417 53.4976 65.0003 54.7978 64.8222L57.2355 64.488ZM54.5442 66.7633C54.5536 66.8507 54.5802 66.9354 54.6226 67.0124C54.665 67.0894 54.7223 67.1573 54.7911 67.212C54.8599 67.2667 54.939 67.3071 55.0236 67.331C55.1082 67.3548 55.1967 67.3616 55.284 67.3509L56.1941 67.2209L56.0121 65.8974L55.102 66.0274C55.0156 66.036 54.932 66.0622 54.8562 66.1045C54.7804 66.1469 54.7142 66.2043 54.6616 66.2734C54.6091 66.3424 54.5713 66.4215 54.5506 66.5058C54.53 66.5901 54.5269 66.6778 54.5416 66.7633H54.5442Z" fill="white"/>
<path d="M39.8059 102.746L40.9396 102.427C40.9588 102.5 40.9984 102.565 41.0537 102.616C41.1091 102.666 41.1778 102.7 41.2516 102.712C41.4274 102.749 41.6094 102.744 41.7826 102.696C41.9558 102.649 42.1152 102.561 42.2475 102.439C42.3012 102.395 42.3413 102.337 42.3631 102.271C42.385 102.205 42.3878 102.135 42.3711 102.067C42.3544 102.003 42.3243 101.943 42.2827 101.892C42.2437 101.844 42.1911 101.81 42.1318 101.793C42.0789 101.777 42.0251 101.764 41.9706 101.754C41.903 101.747 41.8347 101.749 41.7678 101.762L41.5832 101.789C41.5468 101.789 41.4844 101.807 41.3973 101.828C41.1859 101.876 40.9703 101.901 40.7537 101.903C40.5538 101.905 40.3546 101.878 40.1621 101.824C39.9723 101.77 39.8001 101.667 39.6629 101.525C39.5135 101.366 39.407 101.172 39.3534 100.961C39.2836 100.752 39.2657 100.53 39.3012 100.313C39.3368 100.096 39.4248 99.8907 39.5576 99.7154C39.8469 99.3465 40.2508 99.0844 40.7056 98.9704C40.9959 98.8866 41.2996 98.8597 41.6001 98.8911C41.8905 98.9228 42.1662 99.0354 42.3958 99.2161C42.6361 99.4067 42.8058 99.6721 42.8781 99.9702L41.7639 100.284C41.747 100.216 41.7125 100.155 41.6641 100.106C41.6157 100.056 41.555 100.021 41.4883 100.003C41.3343 99.962 41.1719 99.9661 41.0202 100.014C40.6085 100.13 40.4412 100.327 40.5184 100.606C40.5302 100.668 40.5604 100.726 40.6051 100.771C40.6499 100.816 40.707 100.846 40.7693 100.858C40.9579 100.882 41.1491 100.873 41.3349 100.833C41.5287 100.794 41.7244 100.764 41.9212 100.745C42.0979 100.731 42.2756 100.734 42.4517 100.754C42.6161 100.768 42.7765 100.812 42.9249 100.884C43.069 100.963 43.1945 101.071 43.2929 101.203C43.4139 101.362 43.5023 101.544 43.5529 101.738C43.6182 101.947 43.6293 102.169 43.5851 102.383C43.541 102.597 43.4431 102.796 43.3007 102.962C42.9908 103.335 42.5708 103.601 42.1006 103.721C41.6305 103.869 41.1256 103.863 40.6588 103.705C40.4457 103.633 40.2551 103.507 40.1056 103.338C39.9561 103.17 39.8529 102.966 39.8059 102.746Z" fill="white"/>
<path d="M45.8528 102.55L44.6606 102.885L43.3787 98.3242L44.3837 98.0382C45.0493 97.8483 45.3861 97.756 45.3913 97.7586C45.9113 97.613 46.3634 97.6698 46.7473 97.9289C47.1283 98.1815 47.4002 98.5681 47.5092 99.012C47.6389 99.4431 47.6017 99.9071 47.4052 100.312C47.2093 100.723 46.8548 101.001 46.3417 101.145L45.5213 101.376L45.8528 102.55ZM45.2106 100.339L46.0505 100.103C46.1226 100.083 46.1884 100.045 46.2415 99.9925C46.2946 99.9399 46.3331 99.8744 46.3534 99.8025C46.4077 99.6395 46.41 99.4636 46.3599 99.2993C46.3181 99.1371 46.2273 98.9918 46.0999 98.8833C46.044 98.8331 45.9759 98.7984 45.9025 98.7826C45.829 98.7669 45.7528 98.7707 45.6812 98.7935L44.8413 99.0302L45.2106 100.339Z" fill="white"/>
<path d="M51.4292 100.377L49.7221 100.857L49.6207 101.498L48.3764 101.848L48.3309 101.685L49.1747 96.6549L49.7221 96.5001L53.0439 100.362L53.0894 100.524L51.8582 100.87L51.4292 100.377ZM49.9847 98.5193L49.8248 99.7531L50.7687 99.4866L49.9847 98.5193Z" fill="white"/>
</svg>
