<svg width="971" height="971" viewBox="0 0 971 971" fill="none" xmlns="http://www.w3.org/2000/svg">
<circle opacity="0.3" cx="485.5" cy="487.5" r="280.5" stroke="#3C4950" stroke-linecap="round" stroke-dasharray="1 3"/>
<path opacity="0.2" d="M483.099 10.9844C483.753 8.52227 487.247 8.52227 487.901 10.9844L515.554 115.054C516.389 118.197 520.692 118.584 522.075 115.641L567.865 18.1812C568.949 15.8755 572.387 16.4994 572.591 19.0388L581.216 126.373C581.477 129.615 585.642 130.764 587.528 128.115L649.985 40.3982C651.462 38.3229 654.734 39.5507 654.481 42.0857L643.803 149.236C643.48 152.471 647.373 154.346 649.702 152.077L726.817 76.921C728.642 75.1429 731.641 76.9352 730.94 79.3843L701.301 182.906C700.406 186.032 703.902 188.572 706.598 186.754L795.894 126.576C798.006 125.152 800.638 127.451 799.511 129.736L751.863 226.301C750.424 229.217 753.41 232.341 756.388 231.034L854.994 187.767C857.327 186.743 859.506 189.475 857.988 191.522L793.864 278.027C791.928 280.64 794.308 284.246 797.472 283.492L902.219 258.527C904.697 257.937 906.352 261.014 904.494 262.756L825.955 336.422C823.583 338.647 825.281 342.62 828.528 342.443L936.049 336.583C938.593 336.444 939.673 339.767 937.533 341.15L847.102 399.608C844.371 401.374 845.333 405.587 848.559 405.992L955.399 419.425C957.926 419.742 958.395 423.205 956.044 424.184L856.628 465.555C853.625 466.805 853.819 471.122 856.921 472.097L959.646 504.39C962.076 505.154 961.919 508.645 959.43 509.188L854.225 532.143C851.047 532.836 850.467 537.119 853.346 538.632L948.653 588.749C950.908 589.934 950.13 593.341 947.584 593.431L839.971 597.232C836.721 597.347 835.385 601.456 837.947 603.459L922.774 669.788C924.781 671.358 923.408 674.571 920.887 674.205L814.324 658.73C811.105 658.262 809.058 662.067 811.221 664.496L882.841 744.905C884.535 746.807 882.61 749.724 880.195 748.913L778.108 714.659C775.025 713.625 772.331 717.003 774.025 719.779L830.137 811.684C831.464 813.859 829.05 816.384 826.818 815.156L732.488 763.224C729.639 761.656 726.385 764.499 727.557 767.532L766.356 867.98C767.274 870.356 764.447 872.41 762.471 870.803L678.929 802.862C676.406 800.81 672.697 803.027 673.308 806.221L693.548 911.982C694.027 914.484 690.879 916 689.221 914.066L619.153 832.3C617.037 829.831 612.992 831.349 613.023 834.601L614.053 942.277C614.078 944.824 610.709 945.754 609.424 943.554L555.082 850.592C553.441 847.784 549.189 848.556 548.639 851.761L530.427 957.89C529.996 960.401 526.516 960.714 525.644 958.321L488.774 857.149C487.661 854.093 483.339 854.093 482.226 857.149L445.356 958.321C444.484 960.714 441.004 960.401 440.573 957.89L422.361 851.761C421.811 848.556 417.559 847.784 415.918 850.592L361.576 943.554C360.29 945.754 356.922 944.824 356.947 942.277L357.977 834.601C358.008 831.349 353.963 829.831 351.847 832.3L281.779 914.066C280.121 916 276.973 914.484 277.452 911.982L297.692 806.221C298.303 803.027 294.594 800.81 292.071 802.862L208.529 870.803C206.553 872.41 203.726 870.356 204.644 867.98L243.443 767.532C244.615 764.499 241.361 761.656 238.512 763.224L144.182 815.156C141.95 816.384 139.536 813.859 140.863 811.684L196.975 719.779C198.669 717.003 195.975 713.625 192.892 714.659L90.8048 748.913C88.3896 749.724 86.4647 746.807 88.1591 744.905L159.779 664.496C161.942 662.067 159.895 658.262 156.676 658.73L50.1135 674.205C47.5924 674.571 46.2191 671.358 48.2259 669.788L133.053 603.459C135.615 601.456 134.279 597.347 131.029 597.232L23.4158 593.431C20.8699 593.341 20.0923 589.934 22.3471 588.749L117.654 538.632C120.533 537.119 119.952 532.836 116.775 532.143L11.5699 509.188C9.08094 508.645 8.92416 505.154 11.3544 504.39L114.079 472.097C117.181 471.122 117.375 466.805 114.372 465.555L14.9565 424.184L14.7644 424.645L14.9565 424.184C12.6045 423.205 13.0735 419.742 15.6012 419.425L122.441 405.992C125.667 405.587 126.629 401.374 123.898 399.608L33.4668 341.15C31.3273 339.767 32.4071 336.444 34.9509 336.583L142.472 342.443C145.719 342.62 147.417 338.647 145.045 336.422L66.5057 262.756C64.6476 261.014 66.3034 257.937 68.7815 258.527L173.528 283.492C176.692 284.246 179.072 280.64 177.136 278.027L113.012 191.522C111.494 189.475 113.673 186.743 116.006 187.767L214.612 231.034C217.59 232.341 220.576 229.217 219.137 226.301L171.489 129.736C170.362 127.451 172.994 125.152 175.106 126.576L264.402 186.754C267.098 188.572 270.594 186.032 269.699 182.906L240.06 79.3843C239.359 76.9351 242.358 75.143 244.183 76.921L321.298 152.077C323.627 154.346 327.52 152.471 327.197 149.236L316.519 42.0857C316.266 39.5507 319.538 38.3229 321.015 40.3982L383.472 128.115C385.358 130.764 389.523 129.615 389.784 126.373L398.409 19.0388C398.613 16.4995 402.051 15.8755 403.135 18.1813L448.925 115.641C450.308 118.584 454.611 118.197 455.446 115.054L483.099 10.9844Z" stroke="#3C4950"/>
</svg>
