<svg width="40" height="40" viewBox="0 0 40 40" fill="none" xmlns="http://www.w3.org/2000/svg">
<path fill-rule="evenodd" clip-rule="evenodd" d="M17.401 4.94711L17.6823 5.95037L17.6873 5.94717C17.6853 5.9678 17.6837 5.98924 17.6823 6.01145L18.2507 8.1741C17.6402 8.2906 17.0465 8.45438 16.4735 8.66149L15.7941 6.23769L15.7938 6.23788C15.693 5.85551 15.5918 5.47326 15.4905 5.09101L15.4897 5.08785L15.4897 5.08776C15.1928 3.96658 14.8958 2.84544 14.61 1.72153C14.5367 1.43331 14.4267 1.35639 14.1417 1.45865C13.2921 1.75516 12.46 2.09959 11.6494 2.49029C11.425 2.60069 11.3531 2.712 11.4965 2.94819C12.0298 3.82922 12.5566 4.714 13.0835 5.59882L13.0835 5.59887L13.0835 5.59892L13.0835 5.59897C13.2642 5.90242 13.4449 6.20587 13.6258 6.50917L15.1872 9.21584C14.6575 9.48283 14.1508 9.78877 13.6709 10.1299C12.4568 8.03396 11.2452 5.93674 10.0364 3.83822C9.86984 3.54954 9.74632 3.52284 9.47936 3.71605C8.84273 4.17757 8.21424 4.64634 7.59933 5.13818C7.19798 5.45491 7.19119 5.63318 7.56313 5.99788C8.95582 7.36158 10.3297 8.746 11.7036 10.1304L11.7038 10.1306L11.7056 10.1324C11.996 10.425 12.2864 10.7176 12.577 11.0101C12.132 11.4139 11.7182 11.8515 11.3396 12.3187L11.2878 12.2672L11.2878 12.2671C9.60471 10.5931 7.92057 8.91799 6.25186 7.22906C5.922 6.89287 5.72472 6.85486 5.4374 7.25485C5.00393 7.85755 4.54829 8.44622 4.06821 9.01227C3.71392 9.4299 3.86279 9.60501 4.28449 9.84256C5.58698 10.5756 6.8793 11.3261 8.1716 12.0765L8.17174 12.0766C8.76897 12.4234 9.36619 12.7702 9.96441 13.1153L10.5334 13.4422C10.2139 13.9478 9.93197 14.4795 9.69147 15.0334C7.53742 13.7998 5.38397 12.5653 3.23113 11.3298C2.90151 11.1402 2.81389 11.3127 2.70107 11.5348L2.68816 11.5602C2.40179 12.1272 2.16752 12.7157 1.93316 13.3045C1.87129 13.46 1.80941 13.6154 1.74656 13.7705C1.57779 14.1877 1.71851 14.3003 2.09949 14.3985C3.90728 14.8644 5.71113 15.3433 7.51495 15.8222L7.5151 15.8223L7.51515 15.8223L7.52439 15.8247L8.45858 16.0727L9.2329 16.2792C9.09535 16.7307 8.98428 17.1938 8.9015 17.6666C6.42989 17.0959 3.95849 16.524 1.48729 15.951C1.12947 15.8675 1.09859 16.0553 1.05901 16.2961L1.05473 16.322C0.952755 16.9353 0.905103 17.5534 0.85741 18.172C0.84479 18.3357 0.832168 18.4994 0.818535 18.6631C0.782337 19.102 0.94387 19.1672 1.32214 19.15C3.28383 19.0611 5.24591 18.988 7.20801 18.9148L7.64864 18.8984C8.0175 18.8847 8.38636 18.8712 8.75522 18.8579C8.73738 19.1079 8.72737 19.36 8.72543 19.6141C6.1546 19.9811 3.58292 20.3469 1.01038 20.7115C0.6459 20.7625 0.683156 20.9492 0.730926 21.1886L0.736184 21.2151C0.85792 21.8306 1.03269 22.4309 1.20756 23.0316L1.20757 23.0316L1.20759 23.0317C1.2524 23.1856 1.29721 23.3395 1.34114 23.4937C1.46195 23.9177 1.63616 23.9204 1.98456 23.7679C2.43616 23.5697 2.88759 23.3622 3.34036 23.154L3.34071 23.1539L3.34078 23.1538L3.34084 23.1538L3.34089 23.1538C4.83366 22.4676 6.34105 21.7747 7.91741 21.3838C9.3676 21.0255 10.616 20.787 11.9811 20.5459L11.982 20.545C13.2439 20.3431 14.4868 20.1949 15.706 20.0932C15.4327 19.6653 15.1594 19.2372 14.9444 18.7753C14.8032 18.4717 14.6855 18.1609 14.6435 17.8251C14.6021 17.4875 14.6415 17.145 14.7584 16.8256C14.8407 16.596 14.9423 16.373 15.0439 16.1501L15.0439 16.15C15.0724 16.0875 15.1009 16.0249 15.129 15.9623C15.1617 15.8889 15.2002 15.818 15.242 15.7411C15.2639 15.7009 15.2867 15.659 15.31 15.6143C15.2605 15.6272 15.2126 15.6385 15.1659 15.6495C15.0645 15.6735 14.9693 15.6961 14.8778 15.7293C14.4598 15.8804 14.1403 16.1591 13.8892 16.5211C13.6509 16.8762 13.4765 17.2702 13.3738 17.6853C13.2707 18.0821 13.2136 18.4894 13.2037 18.8993C13.2037 18.9154 13.2012 18.9313 13.1987 18.9473C13.1974 18.956 13.196 18.9647 13.1951 18.9735L13.1707 18.9776C13.1376 18.8923 13.1041 18.8072 13.0706 18.7222L13.0705 18.7219C12.992 18.5227 12.9135 18.3234 12.8412 18.1215C12.734 17.8161 12.6643 17.5011 12.6824 17.1736C12.6875 17.0747 12.7013 16.9764 12.7236 16.8799C12.7384 16.8194 12.761 16.7609 12.7836 16.7023L12.7836 16.7023C12.7957 16.6711 12.8078 16.6399 12.8186 16.6084C12.8498 16.5179 12.8869 16.4781 12.9756 16.3899C12.9999 16.3674 13.0254 16.3464 13.0521 16.327C13.0759 16.3097 13.0987 16.2911 13.1204 16.2713C13.1346 16.2576 13.1481 16.2431 13.1616 16.2287L13.1616 16.2286L13.1616 16.2286L13.1617 16.2286C13.1833 16.2053 13.2049 16.1821 13.2295 16.1623C13.4532 15.9797 13.6959 15.8216 13.9534 15.6908C14.305 15.513 14.6711 15.3827 15.0683 15.3551C15.0962 15.353 15.124 15.3486 15.1569 15.3434L15.157 15.3434L15.1571 15.3434C15.1744 15.3406 15.1932 15.3377 15.214 15.3347C14.8267 15.1591 14.4349 15.1057 14.0403 15.0682C13.7874 15.0442 13.5349 15.0478 13.2946 15.1863L13.3026 15.1519L13.3105 15.1184C13.3118 15.1087 13.3141 15.0992 13.3173 15.0899C13.4878 14.6646 13.7272 14.2863 14.0828 13.9913C14.3091 13.8026 14.5643 13.6786 14.8706 13.704C15.0891 13.7221 15.271 13.8035 15.3475 14.0275C15.386 14.1424 15.4149 14.2603 15.4339 14.38C15.4875 14.6802 15.5759 14.9731 15.6973 15.2528L15.7075 15.2228C15.7144 15.2024 15.7199 15.1864 15.7249 15.1705C15.7522 15.0604 15.7865 14.9522 15.8276 14.8465C16.0991 14.2619 16.4755 13.7655 17.0221 13.4108C17.3388 13.2044 17.6823 13.1492 18.0443 13.2637C18.3135 13.3498 18.5618 13.4913 18.7732 13.6791C18.9583 13.8415 19.1364 14.012 19.3145 14.1826C19.3889 14.2539 19.4634 14.3251 19.5383 14.3958C19.5528 14.4092 19.5661 14.4238 19.5795 14.4383L19.5895 14.4492L19.5967 14.4571L19.609 14.471L19.632 14.4972C19.3788 14.4056 19.1163 14.3422 18.8492 14.308C18.4847 14.2581 18.1172 14.233 17.7492 14.2329C17.3937 14.2246 17.0416 14.3038 16.7239 14.4637C16.4158 14.6143 16.1532 14.844 15.9629 15.1293C15.9476 15.1528 15.9344 15.1778 15.9211 15.2028L15.9211 15.2029L15.9211 15.2029L15.921 15.203C15.9147 15.2149 15.9084 15.2269 15.9018 15.2388C15.9083 15.2405 15.915 15.2407 15.9216 15.2394C15.9282 15.2382 15.9344 15.2355 15.9398 15.2315L16.0361 15.166C16.1324 15.1004 16.2287 15.0348 16.3258 14.97L16.4936 14.88C16.5106 14.8663 16.5282 14.8536 16.5466 14.842C16.757 14.7208 16.9846 14.6323 17.2217 14.5795C17.5007 14.5201 17.7917 14.5566 18.0474 14.6831C18.2664 14.797 18.4625 14.9504 18.6257 15.1356C18.9764 15.513 19.1687 15.955 19.1759 16.4749C19.18 16.8134 19.1098 17.141 19.0325 17.4663C18.9648 17.7506 18.8897 18.0328 18.8146 18.3147L18.7583 18.5269C18.7564 18.5137 18.7553 18.5004 18.7551 18.4871C18.7632 18.0314 18.7479 17.5781 18.6402 17.1319C18.5762 16.8494 18.4619 16.5807 18.3026 16.3387C18.0954 16.0344 17.7945 15.8059 17.4456 15.6881C17.2235 15.6075 16.999 15.5401 16.7565 15.5677C16.6418 15.5809 16.5266 15.5886 16.4115 15.5964C16.3606 15.5998 16.3096 15.6032 16.2588 15.6071L15.8968 15.636L15.91 15.6543C15.9166 15.6635 15.9218 15.6708 15.9276 15.6777C15.9919 15.7578 16.0575 15.8371 16.1231 15.9163L16.1232 15.9165L16.1235 15.9168C16.2607 16.0826 16.3979 16.2484 16.5239 16.4224C17.0837 17.1971 17.6099 17.9934 17.9891 18.8758C18.1099 19.1568 18.2216 19.4427 18.3176 19.7332C18.3403 19.802 18.3622 19.8712 18.3835 19.9406C19.2419 19.914 20.086 19.9093 20.9139 19.9236C20.93 19.8386 20.9467 19.7538 20.9641 19.6694C21.0193 19.4012 21.0826 19.1347 21.1541 18.8699L21.1683 18.8175C21.2681 18.4485 21.3679 18.079 21.488 17.7165C21.5994 17.3785 21.7292 17.0455 21.8699 16.7184C22.3115 15.6908 22.9247 14.7637 23.5767 13.8614C23.7257 13.6555 23.8881 13.4592 24.0506 13.263L24.0506 13.263L24.0507 13.2629L24.0509 13.2625C24.1246 13.1735 24.1983 13.0844 24.2708 12.9945C24.2771 12.9867 24.283 12.9785 24.2903 12.9682L24.2903 12.9681L24.2977 12.9577L24.3065 12.9456L23.8871 12.9122C23.8243 12.9073 23.7614 12.9031 23.6985 12.8988C23.5679 12.89 23.4372 12.8813 23.3074 12.8669C23.0246 12.8348 22.7645 12.9122 22.5048 13.0072C22.0935 13.156 21.7536 13.399 21.5066 13.7646C21.3214 14.0467 21.1883 14.3596 21.1134 14.6886C20.9881 15.208 20.9704 15.736 20.9799 16.2668C20.9796 16.282 20.9782 16.2971 20.9758 16.312C20.9439 16.1892 20.9113 16.0664 20.8787 15.9434L20.8787 15.9433L20.8786 15.9431L20.8786 15.943L20.8786 15.9429C20.8023 15.6553 20.7259 15.3672 20.6568 15.0772C20.5664 14.6981 20.4849 14.3166 20.4899 13.923C20.4962 13.3167 20.7225 12.8022 21.1297 12.3624C21.3261 12.1511 21.5405 11.9629 21.803 11.8339C22.1007 11.6866 22.4395 11.6438 22.7645 11.7126C23.0404 11.7741 23.3054 11.8771 23.5504 12.0181C23.5719 12.0318 23.5924 12.047 23.612 12.0633L23.8083 12.1719C23.9198 12.2462 24.0302 12.3215 24.1407 12.3968L24.1409 12.3969L24.2576 12.4764C24.2641 12.4811 24.2715 12.4842 24.2793 12.4856C24.2872 12.487 24.2952 12.4867 24.3029 12.4846C24.2955 12.4711 24.2882 12.4575 24.281 12.4439L24.2809 12.4439C24.2652 12.4144 24.2495 12.3848 24.2319 12.357C24.0103 12.0251 23.705 11.7578 23.3468 11.5819C22.9766 11.3961 22.5664 11.304 22.1523 11.3136C21.7238 11.3134 21.2958 11.3426 20.8713 11.4009C20.5597 11.4407 20.2535 11.5149 19.9582 11.6221C19.9654 11.6142 19.9723 11.6063 19.9793 11.5983C19.9887 11.5875 19.9981 11.5767 20.008 11.566L20.0186 11.5545C20.0336 11.5382 20.0506 11.5197 20.0673 11.5041C20.1535 11.4227 20.2392 11.3406 20.3249 11.2585L20.3252 11.2582L20.3255 11.258L20.3255 11.2579L20.3256 11.2579C20.5336 11.0586 20.7417 10.8593 20.9582 10.6697C21.2048 10.4506 21.4944 10.2854 21.8084 10.1846C22.2301 10.0516 22.6287 10.1159 22.9989 10.3557C23.635 10.7692 24.0758 11.347 24.3898 12.0276C24.4269 12.1084 24.4508 12.1955 24.4746 12.2824L24.4746 12.2826C24.4858 12.3236 24.4971 12.3646 24.5097 12.4049C24.5163 12.4271 24.5239 12.4489 24.5343 12.479L24.5343 12.4792L24.5344 12.4793L24.5418 12.5009C24.6827 12.1758 24.785 11.8353 24.8468 11.4864C24.8688 11.3469 24.9024 11.2095 24.9472 11.0756C25.0377 10.8149 25.2481 10.7199 25.5029 10.6986C25.8594 10.6692 26.1558 10.8136 26.4205 11.0335C26.8345 11.3774 27.1132 11.8176 27.3114 12.3126C27.3152 12.3235 27.3181 12.3347 27.32 12.3461C27.325 12.3674 27.3299 12.3891 27.3381 12.4253C27.058 12.2638 26.7644 12.2592 26.4698 12.2873C26.0105 12.3325 25.554 12.3936 25.1029 12.5977C25.1289 12.6013 25.152 12.6051 25.1733 12.6085L25.1733 12.6085C25.2099 12.6144 25.2411 12.6194 25.2725 12.6217C25.735 12.6538 26.1617 12.8054 26.5711 13.0126C26.8708 13.1648 27.1533 13.3489 27.4137 13.5615C27.4408 13.5839 27.4653 13.6102 27.4899 13.6366L27.49 13.6366C27.5064 13.6543 27.523 13.6719 27.5403 13.6886C27.5658 13.7115 27.5924 13.7331 27.62 13.7533C27.6515 13.7759 27.6817 13.8002 27.7105 13.8262C27.8136 13.9293 27.858 13.9786 27.8915 14.0809C27.9044 14.1203 27.9199 14.1603 27.9356 14.2008L27.9356 14.2009C27.9607 14.2654 27.9862 14.3312 28.0023 14.3976C28.0285 14.51 28.0445 14.6245 28.0503 14.7397C28.0716 15.1211 27.9901 15.4876 27.8652 15.8437C27.7824 16.0801 27.6899 16.3131 27.5976 16.5457C27.5588 16.6435 27.52 16.7413 27.482 16.8392L27.4535 16.8347C27.4524 16.8248 27.451 16.8149 27.4495 16.805L27.4495 16.8048C27.4468 16.786 27.4441 16.7671 27.4435 16.7482C27.4322 16.2703 27.3657 15.7952 27.2453 15.3324C27.1159 14.8487 26.9313 14.3904 26.6444 13.975C26.3517 13.5533 25.9798 13.2289 25.4929 13.0529C25.391 13.0159 25.2851 12.9903 25.1729 12.9632L25.1729 12.9632C25.1137 12.9489 25.0528 12.9342 24.9897 12.9171C25.0149 12.9648 25.0393 13.0096 25.0629 13.0527L25.063 13.0528L25.063 13.0529L25.0631 13.053C25.1146 13.1474 25.1618 13.2337 25.2015 13.3244C25.2341 13.3973 25.2673 13.47 25.3005 13.5428C25.4186 13.8022 25.537 14.062 25.6327 14.3298C25.7671 14.7012 25.8116 15.0993 25.7626 15.4913C25.7137 15.8827 25.5766 16.2446 25.4119 16.598C25.1638 17.1316 24.849 17.6267 24.5349 18.1208L24.5349 18.1208L24.4617 18.236C24.4553 18.2465 24.4469 18.2557 24.4368 18.2628C24.4268 18.27 24.4154 18.275 24.4033 18.2776C24.4033 18.2099 24.4045 18.142 24.4056 18.0741V18.0739V18.0737C24.4081 17.9223 24.4106 17.7707 24.4006 17.6202C24.3789 17.3034 24.3423 16.9867 24.3047 16.67C24.2891 16.5401 24.2703 16.4106 24.2516 16.2812V16.2812V16.2812L24.2515 16.2809L24.2515 16.2806L24.2515 16.2805C24.2234 16.0869 24.1954 15.8935 24.178 15.6989C24.1459 15.337 24.2128 14.9845 24.2857 14.632C24.2997 14.5642 24.3141 14.4965 24.3285 14.4288L24.3286 14.4282L24.3287 14.4276L24.3288 14.4271C24.4121 14.035 24.4954 13.6427 24.502 13.2388C24.502 13.1989 24.4996 13.1588 24.4973 13.1187L24.4972 13.1185C24.4962 13.1005 24.4951 13.0826 24.4943 13.0646L24.4694 13.0606C24.4478 13.0958 24.4265 13.1314 24.4052 13.1669C24.3581 13.2454 24.3109 13.3239 24.2608 13.3999L24.112 13.623C23.91 13.926 23.708 14.2291 23.4984 14.527C23.0989 15.0953 22.7373 15.6858 22.4862 16.3369C22.2921 16.8383 22.117 17.3473 21.9473 17.8577C21.8188 18.2455 21.7021 18.6382 21.5975 19.0341C21.5184 19.3327 21.4425 19.6323 21.3737 19.9335C23.7509 19.9951 25.9906 20.2118 28.0498 20.5177L28.0507 20.5182L28.1016 20.5254C28.8991 20.6446 29.6693 20.7771 30.4098 20.9192C33.408 21.5168 36.1912 22.3996 39.054 23.3716C39.3839 23.4833 39.4753 23.372 39.5282 23.0838C39.554 22.9431 39.5795 22.8024 39.605 22.6618L39.6052 22.6612C39.7197 22.0295 39.8341 21.3986 39.9721 20.7725C40.0735 20.3174 39.8956 20.2146 39.4852 20.1997C38.7298 20.1729 37.9744 20.126 37.2186 20.0791L37.2185 20.0791L37.2183 20.0791C36.9031 20.0595 36.5879 20.04 36.2727 20.0219L32.2056 19.7893C32.2053 19.7614 32.205 19.7335 32.2045 19.7056C32.2045 19.2991 32.1838 18.8974 32.1435 18.5015C34.5485 18.6636 36.9535 18.8264 39.3563 18.9966C39.7006 19.021 39.7612 18.8903 39.7427 18.5989C39.7331 18.4478 39.7231 18.2968 39.7132 18.1457C39.6717 17.5162 39.6302 16.8865 39.6119 16.2559C39.5988 15.7917 39.4033 15.7365 39.0052 15.827C38.2733 15.9927 37.5376 16.1383 36.802 16.2839L36.8008 16.2841L36.8001 16.2842C36.4898 16.3456 36.1795 16.4071 35.8695 16.47L31.9506 17.2656C31.8845 16.953 31.806 16.645 31.7156 16.3421C34.088 15.7279 36.46 15.1141 38.8341 14.5076C39.1767 14.4198 39.1929 14.28 39.0789 14.0175C39.0035 13.8427 38.9273 13.6681 38.851 13.4934L38.8509 13.4932L38.8509 13.4931C38.6209 12.9665 38.3907 12.4394 38.1835 11.9027C38.0179 11.4796 37.8097 11.4918 37.4518 11.7022C36.7958 12.0874 36.1294 12.456 35.4628 12.8247C35.1795 12.9815 34.8961 13.1383 34.6134 13.2963L31.29 15.155C31.05 14.5847 30.7662 14.0374 30.4429 13.5172C32.5287 12.3263 34.6158 11.1378 36.7043 9.9516C36.9799 9.79414 36.9496 9.65976 36.7885 9.45388C36.7021 9.34327 36.6154 9.23285 36.5287 9.12242L36.5265 9.11957C36.1459 8.63467 35.7652 8.14967 35.4075 7.64851C35.1121 7.23494 34.9017 7.22182 34.5297 7.60009C33.3454 8.80388 32.1407 9.98711 30.9353 11.1711L30.9352 11.1712L30.9331 11.1733L30.933 11.1733L30.933 11.1734L30.9329 11.1734C30.6213 11.4795 30.3096 11.7857 29.9982 12.0923L29.6676 12.4157C29.2733 11.9185 28.8395 11.454 28.371 11.027L30.7054 8.75752H30.7041C30.9682 8.49733 31.2318 8.23674 31.4955 7.97615L31.4955 7.97608L31.4956 7.976L31.4957 7.97592C32.1705 7.30897 32.8452 6.642 33.5284 5.98159C33.7338 5.78431 33.7601 5.64857 33.5166 5.46758C32.8325 4.95146 32.1538 4.42749 31.4805 3.89568C31.2335 3.70021 31.0914 3.72057 30.9294 4.01061C30.3039 5.12964 29.6686 6.24315 29.0333 7.35673L29.033 7.35727L29.0329 7.35729C28.7965 7.77174 28.56 8.1862 28.324 8.60097L27.3799 10.2175C26.888 9.8583 26.367 9.53645 25.8212 9.25611L27.2494 6.72817L27.249 6.72721L27.248 6.72463L27.2494 6.72501C27.4492 6.38401 27.6483 6.04266 27.8475 5.70133C28.3718 4.80256 28.8962 3.90384 29.4317 3.01154C29.6068 2.72015 29.4629 2.63735 29.2398 2.52739C28.4874 2.15727 27.7105 1.84868 26.925 1.55548C26.5825 1.42697 26.4648 1.50435 26.3793 1.84642C26.1158 2.89907 25.8397 3.94832 25.5636 4.99755L25.5636 4.9976L25.5635 4.99771L25.5635 4.99778L25.5633 4.99854L25.5609 5.00773L25.5599 5.01146L25.5599 5.01167L25.5598 5.01189C25.4602 5.39027 25.3607 5.76865 25.2617 6.14719L24.5658 8.70191C24.0045 8.49261 23.4228 8.32504 22.8245 8.20296L23.5165 5.56939C23.6508 5.09723 23.7837 4.62479 23.9166 4.15239L23.917 4.15112L23.9171 4.15065C24.187 3.19124 24.4569 2.23202 24.7382 1.27585C24.8382 0.935588 24.6993 0.843736 24.4024 0.805728C23.8628 0.736054 23.3238 0.66272 22.7848 0.589371L22.7848 0.589362C22.4977 0.550297 22.2106 0.511228 21.9233 0.472706C21.6034 0.429721 21.4233 0.503927 21.4306 0.888531C21.4498 1.91418 21.4545 2.94148 21.4592 3.9689C21.461 4.36651 21.4628 4.76414 21.4654 5.16171V8.00775C21.1355 7.9799 20.8017 7.96569 20.4645 7.96569C20.1805 7.96569 19.8988 7.97578 19.6198 7.99562V5.29247C19.6067 5.30397 19.5936 5.31521 19.5804 5.32618C19.5941 5.29662 19.6066 5.26492 19.618 5.23093C19.6206 4.82752 19.6227 4.42408 19.6248 4.02062C19.6305 2.95471 19.6361 1.8887 19.6505 0.822921C19.6546 0.513881 19.565 0.373614 19.2293 0.400762C18.3526 0.468704 17.4803 0.585777 16.6167 0.75143C16.3149 0.810704 16.2692 0.935135 16.3452 1.20164C16.701 2.4489 17.0509 3.69757 17.4009 4.94654L17.4009 4.94675L17.401 4.94711ZM17.9576 19.9555C17.2513 19.9831 16.5356 20.0256 15.8114 20.0845L15.8108 20.0447V20.0447C15.8087 19.9139 15.8066 19.7831 15.8154 19.6527C15.8335 19.3812 15.8651 19.1097 15.8973 18.8382C15.9106 18.7271 15.9266 18.6163 15.9426 18.5056L15.9426 18.5056L15.9426 18.5055L15.9426 18.5055L15.9427 18.5055C15.9668 18.3385 15.9909 18.1717 16.0059 18.0038C16.0353 17.6948 15.9778 17.3903 15.9154 17.088C15.9033 17.0293 15.8908 16.9705 15.8783 16.9118L15.8783 16.9116L15.8783 16.9115L15.8781 16.9105L15.8781 16.9105C15.8067 16.5743 15.7352 16.2375 15.7298 15.8912C15.7292 15.8553 15.7316 15.8193 15.734 15.7834C15.735 15.7696 15.7359 15.7557 15.7366 15.7419L15.7579 15.7383C15.7812 15.7755 15.8039 15.8129 15.8265 15.8504L15.8266 15.8505L15.8266 15.8506C15.8633 15.9111 15.8998 15.9715 15.9389 16.0302C15.9855 16.0998 16.032 16.1697 16.0785 16.2396L16.0785 16.2396L16.0785 16.2397L16.0794 16.2409L16.0794 16.241C16.2485 16.495 16.4178 16.7495 16.5932 16.9975C16.9366 17.4858 17.247 17.993 17.4628 18.5504C17.6293 18.9807 17.7796 19.4183 17.9253 19.8563L17.9576 19.9555ZM39.6396 24.7778C39.6407 24.7738 39.6423 24.7698 39.6431 24.7661C38.2857 24.1779 20.0813 16.6731 1.1882 25.2276C1.35517 25.8611 1.57326 26.5163 1.79904 27.1226C2.22075 28.2144 2.81395 29.5049 3.60306 30.7202C4.22066 31.6753 4.91204 32.5806 5.67087 33.4278C5.67087 33.4278 19.1067 20.611 39.6386 24.7846L39.6387 24.7824L39.639 24.7808L39.6396 24.7778ZM6.55003 34.335L6.24687 34.035C6.24687 34.035 21.165 20.9553 39.2499 26.1873C39.2499 26.1873 39.1871 26.3859 39.0966 26.6398C38.0925 29.5234 36.507 31.9989 34.3872 34.1056C34.3754 34.1006 20.8243 28.4646 7.58077 35.2644L7.15499 34.8952L6.83826 34.6065L6.55003 34.335ZM8.65449 36.1169L8.0984 35.6866C21.9247 29.9474 31.5819 34.4527 33.0845 35.2273C33.0859 35.2281 33.0872 35.2291 33.0885 35.2302C33.0921 35.2333 33.0949 35.2374 33.0965 35.2421C33.0969 35.2435 33.0973 35.2449 33.0975 35.2464L33.0979 35.2502C33.098 35.2539 33.0974 35.2576 33.096 35.2611C33.095 35.2636 33.0937 35.266 33.092 35.2681C33.0897 35.271 33.0868 35.2735 33.0834 35.2753C33.0777 35.2784 33.071 35.2793 33.0646 35.278C21.1478 32.2265 12.5829 38.3494 12.5829 38.3494L11.8087 38.0073L11.211 37.7005C10.6282 37.396 10.0766 37.0702 9.50967 36.7001C9.38818 36.6209 9.26814 36.536 9.14632 36.4499L9.14618 36.4498L9.14612 36.4498C8.98763 36.3377 8.82612 36.2235 8.65449 36.1169ZM13.567 38.7322C13.567 38.7322 22.5233 32.8048 32.6185 35.7006C31.3556 36.7639 23.5151 42.4393 13.567 38.7322Z" fill="white"/>
</svg>
