<svg width="27" height="28" viewBox="0 0 27 28" fill="none" xmlns="http://www.w3.org/2000/svg">
<path fill-rule="evenodd" clip-rule="evenodd" d="M11.4572 3.54543L11.6502 4.23373L11.6536 4.23153C11.6523 4.24569 11.6511 4.26039 11.6502 4.27563L12.0402 5.75935C11.6213 5.83927 11.214 5.95164 10.8209 6.09373L10.3548 4.43084L10.3546 4.43097C10.2854 4.16865 10.2159 3.9064 10.1465 3.64415L10.1459 3.64198L10.1459 3.64192C9.9422 2.87272 9.7385 2.10354 9.54238 1.33247C9.49209 1.13473 9.41666 1.08196 9.22109 1.15211C8.63823 1.35554 8.06737 1.59184 7.51125 1.85989C7.35728 1.93563 7.30792 2.012 7.40633 2.17404C7.77225 2.77851 8.1337 3.38557 8.49515 3.99265C8.61911 4.20083 8.74306 4.40902 8.8672 4.6171L9.93837 6.47405C9.57499 6.65722 9.22739 6.86711 8.89814 7.10114C8.06513 5.6632 7.23394 4.22437 6.40458 2.78465C6.29034 2.5866 6.2056 2.56828 6.02245 2.70084C5.58567 3.01747 5.15449 3.33908 4.73262 3.67651C4.45727 3.89381 4.45262 4.01612 4.70779 4.26632C5.66326 5.20191 6.60585 6.15171 7.54844 7.10151L7.54853 7.1016L7.5498 7.10288L7.54981 7.10289L7.54982 7.1029L7.54983 7.10291C7.74904 7.30365 7.94826 7.50439 8.1476 7.705C7.84234 7.98207 7.55845 8.28225 7.29868 8.60278L7.26316 8.56746C6.10847 7.41896 4.95303 6.26972 3.80817 5.11099C3.58187 4.88034 3.44652 4.85427 3.2494 5.12869C2.95201 5.54217 2.63941 5.94604 2.31005 6.33438C2.06698 6.62091 2.16911 6.74104 2.45843 6.90402C3.35202 7.40697 4.23864 7.92182 5.12524 8.43666L5.12533 8.43672C5.53507 8.67465 5.94481 8.91258 6.35522 9.14934L6.7456 9.37364C6.52641 9.7205 6.33297 10.0853 6.16797 10.4653C4.69015 9.61892 3.21274 8.77197 1.73576 7.92439C1.50961 7.79427 1.4495 7.91262 1.3721 8.065L1.36325 8.0824C1.16677 8.47142 1.00605 8.8752 0.845263 9.27915C0.802815 9.38579 0.760363 9.49244 0.717246 9.59884C0.601457 9.88505 0.698 9.96235 0.959379 10.0297C2.19964 10.3493 3.43719 10.6779 4.67474 11.0065L4.67484 11.0065L4.67487 11.0065L4.68121 11.0082L5.32212 11.1783L5.85336 11.32C5.75899 11.6297 5.68279 11.9474 5.626 12.2718C3.93031 11.8802 2.23477 11.4879 0.539371 11.0948C0.293885 11.0375 0.272699 11.1664 0.245542 11.3315L0.242603 11.3493C0.172644 11.7701 0.139952 12.1941 0.107231 12.6185C0.0985735 12.7309 0.0899135 12.8432 0.0805603 12.9555C0.0557262 13.2566 0.166549 13.3013 0.426066 13.2895C1.77191 13.2286 3.11802 13.1784 4.46416 13.1282L4.76646 13.1169C5.01952 13.1075 5.27258 13.0982 5.52564 13.0891C5.5134 13.2606 5.50653 13.4336 5.5052 13.6079C3.74145 13.8597 1.97711 14.1107 0.212181 14.3608C-0.0378785 14.3958 -0.0123182 14.5239 0.0204548 14.6882L0.0240621 14.7063C0.107582 15.1286 0.22749 15.5405 0.347463 15.9525L0.347476 15.9526L0.347512 15.9527L0.347514 15.9527C0.378243 16.0583 0.408976 16.1638 0.439103 16.2696C0.521987 16.5605 0.641501 16.5623 0.88053 16.4577C1.19044 16.3217 1.50022 16.1793 1.81093 16.0364L1.81098 16.0364L1.81102 16.0364L1.81106 16.0364L1.81108 16.0364C2.8352 15.5656 3.86936 15.0902 4.95085 14.8221C5.94577 14.5762 6.80224 14.4126 7.7388 14.2472L7.73943 14.2466C8.6052 14.1081 9.45788 14.0064 10.2943 13.9366C10.1068 13.6431 9.91932 13.3493 9.77178 13.0325C9.67493 12.8242 9.59422 12.6109 9.56535 12.3806C9.53701 12.149 9.56403 11.914 9.6442 11.6948C9.70067 11.5373 9.77038 11.3843 9.84005 11.2314L9.84021 11.2311C9.85972 11.1882 9.87923 11.1454 9.89844 11.1025C9.92087 11.0522 9.94731 11.0036 9.97602 10.9508C9.99101 10.9232 10.0066 10.8945 10.0226 10.8638C9.98868 10.8726 9.95579 10.8804 9.9238 10.888C9.85423 10.9045 9.78888 10.9199 9.72615 10.9427C9.43931 11.0464 9.22015 11.2376 9.04787 11.4859C8.88442 11.7296 8.76476 11.9999 8.69429 12.2846C8.62354 12.5569 8.58437 12.8363 8.57757 13.1175C8.57757 13.1286 8.57588 13.1395 8.57418 13.1505C8.57325 13.1564 8.57233 13.1624 8.57167 13.1684L8.55491 13.1712C8.53227 13.1128 8.5093 13.0545 8.48633 12.9961L8.4863 12.9961L8.48627 12.996L8.48623 12.9959C8.43237 12.8592 8.37851 12.7225 8.32892 12.5839C8.25535 12.3744 8.20754 12.1583 8.21996 11.9336C8.22347 11.8657 8.23292 11.7983 8.24821 11.7321C8.25833 11.6906 8.27386 11.6504 8.28938 11.6103L8.28938 11.6103L8.28938 11.6103L8.28939 11.6103C8.29767 11.5888 8.30595 11.5674 8.3134 11.5458C8.33482 11.4837 8.36027 11.4564 8.42112 11.3959C8.43773 11.3805 8.45525 11.3661 8.47358 11.3527C8.48988 11.3409 8.50553 11.3281 8.52045 11.3146C8.53022 11.3052 8.53948 11.2952 8.54873 11.2853L8.54875 11.2852L8.54875 11.2852C8.56361 11.2693 8.57843 11.2533 8.59526 11.2398C8.74878 11.1145 8.91529 11.006 9.09195 10.9163C9.33315 10.7943 9.58429 10.7049 9.85684 10.6859C9.87592 10.6845 9.895 10.6815 9.91755 10.678L9.91761 10.6779L9.91766 10.6779L9.91787 10.6779C9.92972 10.676 9.94253 10.674 9.9568 10.672C9.69107 10.5515 9.42224 10.5149 9.15155 10.4891C8.97802 10.4727 8.8048 10.4752 8.63997 10.5702L8.64545 10.5466L8.65083 10.5236C8.65176 10.5169 8.65332 10.5104 8.65549 10.504C8.77252 10.2122 8.93673 9.95272 9.18073 9.75032C9.33594 9.62087 9.51102 9.53582 9.72118 9.5532C9.87112 9.56562 9.99591 9.6215 10.0484 9.77516C10.0748 9.85399 10.0946 9.93487 10.1077 10.017C10.1444 10.2229 10.205 10.4239 10.2883 10.6158L10.2953 10.5952C10.3001 10.5812 10.3038 10.5703 10.3073 10.5593C10.326 10.4838 10.3496 10.4095 10.3777 10.337C10.564 9.93596 10.8223 9.59542 11.1973 9.35204C11.4146 9.21049 11.6502 9.17262 11.8985 9.25116C12.0833 9.31023 12.2536 9.4073 12.3986 9.53613C12.5256 9.64756 12.6478 9.76454 12.77 9.88153L12.77 9.88156L12.77 9.88157L12.77 9.88158L12.77 9.88158C12.8211 9.93047 12.8721 9.97936 12.9235 10.0278C12.9335 10.037 12.9426 10.047 12.9517 10.057L12.9518 10.057L12.9586 10.0645C12.9664 10.0729 12.9726 10.08 12.9788 10.0871L12.9878 10.0974C12.8141 10.0346 12.634 9.99104 12.4508 9.96762C12.2007 9.93336 11.9485 9.91615 11.6961 9.91609C11.4522 9.91038 11.2106 9.96475 10.9927 10.0744C10.7813 10.1777 10.6011 10.3353 10.4706 10.531C10.4601 10.5472 10.451 10.5643 10.4419 10.5815L10.4418 10.5817C10.4375 10.5899 10.4331 10.5981 10.4286 10.6062C10.4331 10.6073 10.4377 10.6075 10.4422 10.6066C10.4468 10.6058 10.451 10.6039 10.4547 10.6012L10.5208 10.5563C10.5868 10.5113 10.6529 10.4663 10.7195 10.4218L10.8347 10.36C10.8463 10.3506 10.8584 10.3419 10.871 10.3339C11.0154 10.2508 11.1716 10.1901 11.3342 10.1539C11.5256 10.1131 11.7252 10.1382 11.9007 10.225C12.051 10.3031 12.1855 10.4083 12.2974 10.5354C12.538 10.7943 12.6699 11.0976 12.6749 11.4543C12.6777 11.6865 12.6296 11.9112 12.5765 12.1344C12.5301 12.3294 12.4785 12.523 12.4271 12.7164L12.4271 12.7164L12.4271 12.7164L12.427 12.7164L12.3884 12.862C12.3871 12.853 12.3864 12.8439 12.3862 12.8347C12.3918 12.5221 12.3812 12.2111 12.3074 11.905C12.2635 11.7112 12.185 11.5268 12.0758 11.3608C11.9336 11.152 11.7272 10.9953 11.4878 10.9144C11.3354 10.8592 11.1814 10.8129 11.015 10.8319C10.9363 10.8409 10.8573 10.8462 10.7784 10.8515L10.7782 10.8515C10.7433 10.8538 10.7084 10.8562 10.6736 10.8589L10.4252 10.8787L10.4343 10.8912C10.4388 10.8976 10.4424 10.9026 10.4463 10.9073C10.4905 10.9623 10.5355 11.0167 10.5805 11.0711L10.5807 11.0713C10.6749 11.1851 10.769 11.2988 10.8555 11.4182C11.2395 11.9497 11.6005 12.496 11.8606 13.1014C11.9435 13.2942 12.0202 13.4903 12.086 13.6896C12.1016 13.7369 12.1167 13.7843 12.1313 13.8319C12.7202 13.8137 13.2993 13.8105 13.8673 13.8203C13.8783 13.762 13.8898 13.7038 13.9017 13.6459C13.9396 13.4619 13.983 13.2791 14.0321 13.0974L14.0418 13.0614L14.0418 13.0614L14.0418 13.0613L14.0418 13.0613C14.1103 12.8082 14.1788 12.5547 14.2612 12.3061C14.3375 12.0742 14.4266 11.8457 14.5232 11.6213C14.8262 10.9163 15.2468 10.2802 15.6941 9.66123C15.7963 9.51995 15.9078 9.38527 16.0192 9.25063L16.0193 9.25056C16.0699 9.18939 16.1206 9.12823 16.1703 9.06646C16.1747 9.06113 16.1787 9.05545 16.1837 9.04836L16.1948 9.03293L15.9071 9.00996C15.864 9.00663 15.8208 9.00373 15.7777 9.00082C15.6881 8.99479 15.5985 8.98876 15.5094 8.97892C15.3154 8.95688 15.1369 9.00996 14.9587 9.07515C14.6765 9.17728 14.4434 9.34398 14.2739 9.5948C14.1469 9.78831 14.0555 10.003 14.0041 10.2287C13.9182 10.5851 13.9061 10.9473 13.9126 11.3115C13.9123 11.3219 13.9114 11.3322 13.9098 11.3425C13.8878 11.2582 13.8655 11.174 13.8431 11.0896L13.8431 11.0895L13.8431 11.0894C13.7908 10.8921 13.7383 10.6943 13.6909 10.4954C13.6288 10.2352 13.573 9.97353 13.5764 9.70345C13.5807 9.28748 13.7359 8.93452 14.0153 8.63279C14.15 8.48782 14.2972 8.35868 14.4772 8.27021C14.6815 8.16912 14.9139 8.13981 15.1369 8.18702C15.3262 8.22916 15.508 8.29982 15.6761 8.39655C15.6908 8.40601 15.7049 8.41638 15.7183 8.4276L15.853 8.5021C15.9295 8.55306 16.0053 8.60471 16.0811 8.6564L16.0812 8.65647L16.1613 8.71102C16.1657 8.7142 16.1708 8.71636 16.1762 8.71732C16.1816 8.71829 16.1871 8.71805 16.1923 8.71661C16.1873 8.7074 16.1823 8.69806 16.1773 8.68872L16.1773 8.68869L16.1773 8.68867C16.1665 8.66844 16.1557 8.64817 16.1436 8.62906C15.9916 8.40142 15.7821 8.21797 15.5364 8.0973C15.2824 7.96988 15.001 7.90667 14.7169 7.91322C14.4229 7.91313 14.1293 7.93315 13.8381 7.97313C13.6243 8.00044 13.4142 8.05135 13.2116 8.12493L13.2261 8.10855C13.2325 8.10116 13.239 8.09375 13.2458 8.08644L13.2531 8.07852C13.2633 8.06734 13.275 8.05463 13.2864 8.04391C13.3457 7.988 13.4046 7.93162 13.4634 7.87524L13.4636 7.8751L13.4636 7.87506C13.6064 7.73832 13.7491 7.60156 13.8977 7.47148C14.0668 7.32121 14.2655 7.20787 14.481 7.1387C14.7703 7.04744 15.0438 7.09152 15.2977 7.25605C15.7342 7.53978 16.0365 7.93619 16.2519 8.40307C16.2775 8.45852 16.2938 8.51827 16.3101 8.57793L16.3102 8.57801L16.3102 8.57807C16.3179 8.60621 16.3256 8.63433 16.3342 8.66197C16.3388 8.67721 16.344 8.69224 16.3512 8.71301L16.3563 8.72778C16.4529 8.50475 16.5231 8.27117 16.5655 8.0318C16.5806 7.9361 16.6037 7.84183 16.6344 7.74993C16.6965 7.57113 16.8408 7.50594 17.0156 7.49135C17.2602 7.47117 17.4635 7.5702 17.6451 7.72107C17.9292 7.95699 18.1204 8.25904 18.2564 8.59864C18.259 8.60612 18.261 8.6138 18.2623 8.62161L18.2747 8.67594C18.0825 8.56512 17.8811 8.56201 17.679 8.58126C17.3639 8.6123 17.0507 8.65421 16.7412 8.79421C16.7591 8.79672 16.7749 8.79927 16.7895 8.80161L16.7895 8.80162C16.8146 8.80566 16.836 8.80909 16.8576 8.81066C17.1748 8.8327 17.4676 8.9367 17.7485 9.07887C17.9541 9.18332 18.1479 9.30956 18.3265 9.45542C18.3451 9.47085 18.362 9.48886 18.3788 9.50695C18.3902 9.51906 18.4015 9.5312 18.4135 9.54265C18.4309 9.55836 18.4491 9.57318 18.4681 9.58704C18.4897 9.60255 18.5104 9.61923 18.5302 9.63702C18.6009 9.7078 18.6314 9.74163 18.6543 9.81179C18.6632 9.83883 18.6738 9.86629 18.6846 9.89407L18.6847 9.89413L18.6847 9.89414C18.7018 9.93842 18.7193 9.98352 18.7304 10.0291C18.7483 10.1062 18.7593 10.1847 18.7633 10.2638C18.7779 10.5255 18.722 10.7769 18.6363 11.0212C18.5795 11.1834 18.5161 11.3432 18.4527 11.5028L18.4527 11.503C18.4261 11.5701 18.3995 11.6371 18.3734 11.7042L18.3538 11.7011C18.3531 11.6943 18.3521 11.6875 18.3512 11.6807L18.3511 11.6806C18.3493 11.6677 18.3474 11.6547 18.347 11.6418C18.3392 11.3138 18.2936 10.9879 18.2111 10.6704C18.1223 10.3386 17.9956 10.0241 17.7988 9.73915C17.598 9.44983 17.3428 9.22726 17.0088 9.1065C16.9389 9.0811 16.8662 9.06355 16.7892 9.04497C16.7486 9.03516 16.7068 9.02506 16.6636 9.01337C16.6808 9.04607 16.6976 9.07681 16.7138 9.10641L16.7138 9.10648L16.7138 9.10656C16.7492 9.17132 16.7816 9.23058 16.8089 9.29276C16.8312 9.34261 16.8538 9.39237 16.8765 9.44215L16.8767 9.44265C16.9578 9.62057 17.039 9.7988 17.1047 9.98253C17.1969 10.2374 17.2274 10.5105 17.1938 10.7794C17.1603 11.0479 17.0662 11.2963 16.9532 11.5387C16.783 11.9048 16.567 12.2444 16.3515 12.5834L16.3515 12.5834L16.3013 12.6624C16.2969 12.6697 16.2911 12.6759 16.2842 12.6809C16.2773 12.6858 16.2695 12.6892 16.2613 12.691C16.2613 12.6446 16.262 12.598 16.2628 12.5515V12.5514V12.5514V12.5512V12.5512V12.5512V12.5512C16.2645 12.4472 16.2663 12.3432 16.2594 12.24C16.2445 12.0227 16.2194 11.8054 16.1936 11.5881C16.1829 11.4989 16.17 11.4101 16.1571 11.3213L16.1571 11.3212L16.1571 11.3212L16.1571 11.3212L16.1571 11.3209L16.1571 11.3208C16.1378 11.1881 16.1186 11.0554 16.1067 10.9219C16.0846 10.6735 16.1306 10.4317 16.1805 10.1899C16.1902 10.143 16.2002 10.0961 16.2101 10.0493C16.2673 9.78032 16.3244 9.51114 16.3289 9.23409C16.3289 9.20676 16.3273 9.17925 16.3257 9.15182V9.15178V9.15174V9.15169L16.3257 9.15153L16.3237 9.11457L16.3066 9.11178C16.2918 9.13598 16.2771 9.16036 16.2625 9.18475L16.2625 9.18482C16.2302 9.23863 16.1979 9.29249 16.1635 9.3446L16.0614 9.49765C15.9228 9.70553 15.7842 9.9135 15.6404 10.1179C15.3663 10.5078 15.1183 10.9129 14.946 11.3596C14.8128 11.7035 14.6927 12.0528 14.5763 12.4029C14.4881 12.669 14.408 12.9384 14.3363 13.21C14.282 13.4149 14.23 13.6204 14.1827 13.8271C15.8136 13.8693 17.3502 14.018 18.763 14.2278L18.7636 14.2282L18.7985 14.2331C19.3456 14.3149 19.874 14.4059 20.3821 14.5033C22.439 14.9133 24.3485 15.519 26.3126 16.1858C26.5389 16.2625 26.6016 16.1861 26.6379 15.9884C26.6556 15.8918 26.6731 15.7953 26.6906 15.6988L26.6907 15.6985L26.6907 15.6984L26.6907 15.6983C26.7693 15.2649 26.8478 14.8321 26.9424 14.4027C27.012 14.0904 26.89 14.0199 26.6084 14.0097C26.0902 13.9913 25.5719 13.9591 25.0535 13.927L25.0535 13.927L25.0534 13.927L25.0534 13.927C24.8371 13.9135 24.6208 13.9001 24.4044 13.8877L21.6141 13.7281L21.6133 13.6707C21.6133 13.3918 21.5992 13.1162 21.5715 12.8446C23.2215 12.9558 24.8715 13.0675 26.5199 13.1843C26.7562 13.201 26.7978 13.1113 26.785 12.9114C26.7784 12.8078 26.7716 12.7041 26.7648 12.6005C26.7363 12.1686 26.7079 11.7366 26.6953 11.304C26.6863 10.9855 26.5522 10.9476 26.2791 11.0097C25.777 11.1234 25.2722 11.2233 24.7675 11.3232L24.7667 11.3233L24.7663 11.3234L24.7661 11.3235C24.5533 11.3656 24.3405 11.4077 24.1278 11.4508L21.4392 11.9967C21.3938 11.7823 21.34 11.5709 21.2779 11.3631C22.9055 10.9417 24.5329 10.5206 26.1617 10.1045C26.3967 10.0443 26.4079 9.94838 26.3297 9.76833C26.278 9.64848 26.2257 9.52882 26.1735 9.40912L26.1732 9.40861L26.1732 9.4085C26.0154 9.04724 25.8575 8.68564 25.7153 8.31739C25.6017 8.02714 25.4589 8.03552 25.2134 8.17987C24.7633 8.44409 24.3061 8.697 23.8488 8.94996L23.8488 8.94997L23.8488 8.94998L23.8488 8.94999C23.6544 9.05753 23.4599 9.16508 23.266 9.27351L20.9859 10.5487C20.8213 10.1574 20.6266 9.78192 20.4048 9.42503C21.8358 8.60801 23.2677 7.79261 24.7005 6.97883C24.8896 6.8708 24.8688 6.77861 24.7583 6.63736C24.6985 6.56082 24.6385 6.48442 24.5785 6.408C24.3174 6.07533 24.0562 5.74259 23.8108 5.39876C23.6081 5.11503 23.4638 5.10602 23.2086 5.36554C22.3961 6.19142 21.5696 7.00319 20.7426 7.81549L20.7425 7.81557L20.7411 7.81699C20.5272 8.02703 20.3134 8.2371 20.0997 8.44746L19.8729 8.66938C19.6023 8.32827 19.3047 8.0096 18.9833 7.71661L20.5849 6.15962H20.584C20.7652 5.98111 20.946 5.80233 21.1269 5.62354C21.5899 5.16592 22.0529 4.70828 22.5216 4.25515C22.6626 4.1198 22.6806 4.02667 22.5136 3.9025C22.0442 3.54841 21.5786 3.18893 21.1167 2.82408C20.9472 2.68997 20.8497 2.70394 20.7386 2.90293C20.3095 3.67063 19.8736 4.43454 19.4377 5.19851L19.4375 5.19895C19.2752 5.4833 19.113 5.76765 18.9511 6.05221L18.3034 7.16125C17.9659 6.91482 17.6084 6.69401 17.234 6.50167L18.2138 4.76735L18.2136 4.76669L18.2129 4.76492L18.2138 4.76518C18.3506 4.53168 18.487 4.29796 18.6234 4.06424L18.6235 4.06401L18.6237 4.06361L18.6242 4.06287L18.6243 4.06256C18.984 3.44605 19.3437 2.82958 19.711 2.2175C19.8312 2.01759 19.7325 1.96078 19.5794 1.88534C19.0632 1.63141 18.5302 1.4197 17.9913 1.21855C17.7563 1.13039 17.6756 1.18347 17.6169 1.41815C17.4361 2.14034 17.2467 2.86019 17.0573 3.58003L17.0572 3.58006L17.0572 3.58014L17.0572 3.58019L17.0571 3.58071L17.0554 3.58701L17.0553 3.58745L17.0552 3.58788L17.0551 3.58832C16.9866 3.84843 16.9182 4.10854 16.8501 4.36876L16.3727 6.12146C15.9876 5.97787 15.5885 5.8629 15.1781 5.77915L15.6528 3.97235C15.745 3.64813 15.8363 3.32371 15.9276 2.99933L15.9277 2.999C16.1129 2.34079 16.298 1.6827 16.491 1.0267C16.5596 0.793262 16.4643 0.730246 16.2606 0.70417C15.8904 0.656367 15.5206 0.606053 15.1508 0.555729C14.9539 0.528928 14.7569 0.502124 14.5598 0.475695C14.3403 0.446205 14.2168 0.497115 14.2218 0.760978C14.235 1.4646 14.2382 2.16935 14.2414 2.87419V2.87431C14.2426 3.1471 14.2438 3.4199 14.2457 3.69265V5.64522C14.0193 5.62612 13.7903 5.61637 13.559 5.61637C13.3641 5.61637 13.1708 5.62329 12.9794 5.6369V3.78237C12.9705 3.79026 12.9615 3.79797 12.9524 3.80549C12.9618 3.78521 12.9704 3.76346 12.9782 3.74015C12.98 3.46338 12.9814 3.18659 12.9829 2.90979C12.9868 2.17851 12.9906 1.44716 13.0005 0.715966C13.0033 0.503944 12.9419 0.407711 12.7115 0.426337C12.11 0.47295 11.5116 0.553269 10.9191 0.666918C10.7121 0.707584 10.6807 0.792951 10.7329 0.975793C10.977 1.83155 11.217 2.68828 11.4572 3.54521L11.4572 3.54529L11.4572 3.54537L11.4572 3.54543ZM11.8391 13.8421C11.3545 13.8611 10.8635 13.8902 10.3667 13.9307L10.3662 13.9034C10.3648 13.8136 10.3633 13.7239 10.3694 13.6344C10.3818 13.4481 10.4035 13.2619 10.4255 13.0756C10.4347 12.9994 10.4457 12.9233 10.4567 12.8474L10.4567 12.8473L10.4567 12.8473L10.4567 12.8473C10.4732 12.7328 10.4898 12.6183 10.5 12.5032C10.5202 12.2912 10.4808 12.0823 10.438 11.8749C10.4296 11.8343 10.421 11.7937 10.4124 11.7531L10.4124 11.7531C10.3634 11.5224 10.3144 11.2914 10.3107 11.0538C10.3102 11.0291 10.3119 11.0045 10.3136 10.9798L10.3153 10.9514L10.3299 10.9489C10.346 10.9744 10.3615 11.0001 10.3771 11.0258C10.4022 11.0674 10.4273 11.1088 10.4541 11.1491L10.5505 11.2937L10.5505 11.2938C10.6665 11.4681 10.7827 11.6426 10.903 11.8128C11.1386 12.1478 11.3515 12.4957 11.4996 12.8782C11.6139 13.1734 11.7169 13.4736 11.8169 13.7741L11.8391 13.8421ZM26.7155 17.1468L26.7167 17.1426C25.7855 16.739 13.2961 11.5903 0.334175 17.4592C0.448723 17.8938 0.598349 18.3433 0.753252 18.7593C1.04257 19.5084 1.44954 20.3937 1.99092 21.2275C2.41464 21.8827 2.88897 22.5038 3.40958 23.0851C3.40958 23.0851 12.6274 14.2919 26.7136 17.1553C26.7136 17.1525 26.7146 17.1496 26.7155 17.1468ZM4.01274 23.7075L3.80475 23.5017C3.80475 23.5017 14.0395 14.5282 26.447 18.1176C26.447 18.1176 26.4038 18.2539 26.3418 18.4281C25.6529 20.4064 24.5652 22.1048 23.1108 23.5501C23.1028 23.5467 13.8058 19.68 4.71989 24.3451L4.42778 24.0918L4.21048 23.8938L4.01274 23.7075ZM5.45653 24.93L5.07502 24.6348C14.5607 20.6973 21.1862 23.7882 22.2171 24.3197L22.2198 24.3216C22.2223 24.3238 22.2242 24.3266 22.2253 24.3298C22.2259 24.3316 22.2263 24.3335 22.2263 24.3354L22.2261 24.3386C22.2259 24.34 22.2255 24.3415 22.225 24.3428C22.2234 24.347 22.2203 24.3505 22.2164 24.3526C22.2124 24.3547 22.2078 24.3554 22.2034 24.3544C14.0277 22.2609 8.15166 26.4616 8.15166 26.4616L7.62052 26.2269L7.21044 26.0165C6.81061 25.8075 6.4322 25.584 6.04324 25.3301C5.95994 25.2758 5.87765 25.2176 5.79413 25.1586L5.79396 25.1584L5.79386 25.1584L5.79382 25.1583C5.68508 25.0815 5.57428 25.0031 5.45653 24.93ZM8.82684 26.7242C8.82684 26.7242 14.9714 22.6576 21.8974 24.6444C21.031 25.3739 15.6519 29.2676 8.82684 26.7242Z" fill="#3C4950"/>
</svg>
