<svg width="10" height="29" viewBox="0 0 10 29" fill="none" xmlns="http://www.w3.org/2000/svg">
<g clip-path="url(#clip0_103_1070)">
<path opacity="0.2" d="M-109 23L-109 6M-99 23L-99 6M-89 23V6M-79 23V6M-69 23V6M-59 23V6M-49 23V6M-39 23V6M-29 23V6M-19 23V6M-9 23V6M1 23V6M11 23V6M21 23V6M31 23V6M41 23V6M51 23V6M61 23V6M71 23V6M81 23V6M91 23V6M101 23V6M111 23V6" stroke="#3C4950" stroke-width="2" stroke-linecap="round" stroke-linejoin="round"/>
</g>
<defs>
<clipPath id="clip0_103_1070">
<rect width="10" height="29" fill="white"/>
</clipPath>
</defs>
</svg>
