<svg width="227" height="148" viewBox="0 0 227 148" fill="none" xmlns="http://www.w3.org/2000/svg">
<path d="M164.071 30.3224C166.304 31.8042 168.511 33.3128 170.731 34.8147C170.827 34.8832 170.937 34.9296 171.053 34.9503C171.169 34.9711 171.288 34.9658 171.402 34.9349C171.053 34.3074 170.731 33.6532 170.349 33.0525C167.064 28.1573 162.538 24.2127 157.23 21.618C151.741 18.8779 145.661 17.5188 139.523 17.6596C133.171 17.6577 126.827 18.0882 120.535 18.9479C115.916 19.5352 111.377 20.6299 107 22.2121C107.248 21.9384 107.483 21.658 107.738 21.3843C107.993 21.1107 108.308 20.7569 108.616 20.4699C113.003 16.3513 117.289 12.1126 121.823 8.16089C125.478 4.92951 129.77 2.49237 134.425 1.00513C140.676 -0.957358 146.585 -0.00948871 152.072 3.52834C161.502 9.62942 168.035 18.1536 172.689 28.193C173.501 29.9485 173.883 31.9044 174.467 33.76C174.588 34.1606 174.728 34.5544 174.943 35.1752C177.032 30.3793 178.549 25.3566 179.464 20.2095C179.791 18.1517 180.289 16.1244 180.953 14.1485C182.294 10.3036 185.413 8.90183 189.189 8.58809C194.474 8.15421 198.867 10.2836 202.791 13.5277C208.928 18.6008 213.06 25.0957 215.997 32.3983C216.054 32.5591 216.097 32.7243 216.125 32.8923C216.199 33.206 216.272 33.5264 216.393 34.0604C212.241 31.6774 207.888 31.6107 203.522 32.0245C196.714 32.692 189.947 33.5932 183.26 36.6037C184.313 36.7505 185.037 36.904 185.775 36.9574C192.63 37.4314 198.955 39.6676 205.024 42.7248C209.467 44.9707 213.654 47.6853 217.513 50.8217C218.184 51.3757 218.747 52.0833 219.391 52.6974C219.768 53.0353 220.162 53.3539 220.572 53.652C221.038 53.9853 221.486 54.3441 221.913 54.7267C223.442 56.2486 224.099 56.9762 224.596 58.4848C225.092 59.9934 225.85 61.562 226.239 63.1574C226.626 64.8151 226.864 66.504 226.95 68.2038C227.265 73.8309 226.058 79.2378 224.207 84.4911C222.463 89.4441 220.431 94.2969 218.526 99.1764L218.103 99.1097C218.056 98.6892 217.969 98.2619 217.956 97.8347C217.787 90.7833 216.802 83.7747 215.018 76.9482C213.1 69.8125 210.363 63.0506 206.111 56.9228C201.772 50.7016 196.258 45.9155 189.041 43.3189C186.734 42.4845 184.286 42.0439 181.583 41.3163C182.77 43.5592 183.864 45.3748 184.722 47.3239C186.929 52.2302 189.296 57.0963 191.114 62.1561C193.106 67.6364 193.766 73.5084 193.039 79.2912C192.314 85.0652 190.282 90.4053 187.841 95.6186C183.877 104.103 178.766 111.926 173.756 119.783C173.661 119.938 173.536 120.073 173.387 120.179C173.238 120.284 173.069 120.358 172.891 120.397C172.891 117.166 173.065 113.915 172.85 110.698C172.528 106.025 171.985 101.353 171.429 96.6799C170.852 91.8939 169.98 87.1478 169.551 82.3551C169.074 77.015 170.067 71.815 171.147 66.6151C172.555 59.8198 174.239 53.0579 174.353 46.0623C174.353 45.2079 174.279 44.3468 174.239 43.4924L173.87 43.4323C172.844 45.1011 171.858 46.81 170.778 48.4387C167.042 53.9991 163.346 59.5929 159.476 65.0665C153.554 73.4505 148.195 82.1615 144.473 91.767C141.595 99.1631 139 106.673 136.484 114.202C134.58 119.923 132.849 125.717 131.3 131.558C129.569 138.052 127.946 144.581 126.605 151.169C125.263 157.757 124.257 164.272 123.513 170.874C121.9 184.501 121.503 198.243 122.326 211.94C122.715 217.82 123.191 223.695 123.821 229.555C124.392 234.895 125.23 240.195 125.974 245.723L112.922 249C112.922 246.864 112.922 244.908 112.922 242.992C113.077 232.265 113.023 221.532 113.479 210.825C113.875 201.573 114.821 192.341 115.605 183.11C116.041 178.01 116.611 172.917 117.282 167.844C117.879 163.371 118.664 158.912 119.428 154.46C120.193 150.008 120.978 145.422 121.91 140.929C122.728 136.973 123.667 133.042 124.727 129.134C126.276 123.434 127.812 117.72 129.677 112.12C131.327 107.133 133.252 102.22 135.338 97.3942C141.884 82.2349 150.972 68.5576 160.637 55.2473C163.85 50.8284 167.485 46.7098 170.925 42.4578C171.08 42.2709 171.214 42.0639 171.455 41.7369L165.238 41.2429C162.374 41.0226 159.497 40.8891 156.646 40.5754C152.454 40.1014 148.598 41.2429 144.748 42.6447C138.651 44.8408 133.614 48.4253 129.952 53.8189C127.207 57.9799 125.233 62.5962 124.123 67.4495C122.265 75.1125 122.004 82.9024 122.145 90.7324C122.14 90.956 122.12 91.179 122.084 91.3999C120.501 85.3455 118.818 79.2912 117.356 73.1834C116.014 67.5897 114.807 61.9625 114.881 56.1552C114.975 47.2105 118.328 39.6208 124.365 33.1326C127.276 30.0153 130.455 27.2384 134.345 25.336C138.759 23.1622 143.78 22.532 148.598 23.5471C152.688 24.4534 156.616 25.9726 160.248 28.0528C160.566 28.2562 160.87 28.4791 161.16 28.7203" fill="#EEF1F3"/>
<path d="M56.5052 70.7241C56.756 70.5228 57.0178 70.3355 57.2894 70.163C60.4072 68.3746 63.7795 67.0684 67.2909 66.2891C71.4254 65.4117 75.736 65.9507 79.5247 67.8186C82.7694 69.4994 85.6739 71.7639 88.0916 74.4978C93.2868 80.0683 96.1357 86.5939 96.243 94.2683C96.3033 99.2644 95.2643 104.1 94.118 108.903C92.8644 114.152 91.4366 119.356 90.0557 124.559C90.0282 124.364 90.0125 124.168 90.0088 123.971C90.1294 117.245 89.9015 110.552 88.3061 103.967C87.359 99.7959 85.665 95.8296 83.3054 92.2579C80.2351 87.7649 75.7775 84.3927 70.6091 82.6532C67.3177 81.4643 63.9929 80.4691 60.3998 80.8765C57.9464 81.157 55.4795 81.2706 53.0261 81.4576L47.6634 81.8851C47.8712 82.1656 47.9851 82.3393 48.1192 82.4996C51.0687 86.1598 54.1925 89.6931 56.9543 93.4936C65.2464 104.928 73.0425 116.684 78.6599 129.708C80.4497 133.856 82.1055 138.077 83.5266 142.365C85.122 147.175 86.4426 152.084 87.7699 156.98C88.6636 160.333 89.4703 163.712 90.1898 167.119C91.0009 170.966 91.6712 174.853 92.3416 178.741C93.0119 182.628 93.6823 186.388 94.1783 190.235C94.7548 194.597 95.2442 198.972 95.6196 203.353C96.2899 211.288 97.101 219.217 97.4429 227.165C97.8317 236.369 97.7847 245.593 97.9255 254.81C97.9255 256.487 97.9255 258.15 97.9255 260L86.7308 257.181C87.3677 252.439 88.0715 247.877 88.5743 243.289C89.1105 238.259 89.5262 233.21 89.8546 228.16C90.5614 216.389 90.2204 204.578 88.8357 192.867C88.1989 187.196 87.2939 181.512 86.1879 175.935C85.0818 170.358 83.654 164.667 82.1658 159.084C80.8251 154.074 79.3414 149.107 77.7147 144.182C75.5562 137.717 73.3307 131.258 70.8638 124.906C67.6663 116.677 63.0678 109.19 57.9799 101.983C54.6617 97.3074 51.491 92.4783 48.2868 87.7027C47.3483 86.3 46.5104 84.8306 45.6054 83.3946L45.2903 83.448C45.2501 84.1827 45.1764 84.9174 45.1898 85.6521C45.2836 91.6635 46.7316 97.481 47.9382 103.319C48.8633 107.78 49.7146 112.276 49.2789 116.837C48.9102 120.959 48.1661 125.04 47.67 129.154C47.1941 133.161 46.7249 137.169 46.4567 141.177C46.269 143.948 46.4165 146.734 46.4165 149.512C46.263 149.479 46.1178 149.416 45.9898 149.325C45.8619 149.234 45.7539 149.118 45.6724 148.985C41.3487 142.232 36.958 135.513 33.5527 128.226C31.4612 123.744 29.7183 119.155 29.0949 114.199C28.4829 109.216 29.0664 104.159 30.7976 99.4447C32.3595 95.1033 34.3906 90.9221 36.2877 86.7008C37.025 85.051 37.9635 83.4881 38.969 81.5645C36.6429 82.1656 34.5448 82.5463 32.5673 83.261C26.3733 85.4918 21.6407 89.6062 17.9203 94.9496C14.3908 100.192 11.8069 106.008 10.2851 112.135C8.75725 117.993 7.91151 124.006 7.76464 130.056C7.76464 130.423 7.67751 130.784 7.63729 131.151L7.2753 131.211C5.63967 127.003 3.9236 122.829 2.39522 118.574C0.806513 114.066 -0.225819 109.417 0.0423178 104.581C0.118067 103.121 0.322188 101.671 0.652331 100.246C0.987501 98.877 1.59752 97.5746 2.06005 96.2387C2.52259 94.9029 3.07227 94.3151 4.38614 93.0126C4.74496 92.6811 5.12326 92.3711 5.51901 92.0842C5.87105 91.8288 6.20894 91.5545 6.53121 91.2627C7.08089 90.735 7.55684 90.1272 8.14674 89.653C11.4618 86.9576 15.0575 84.6243 18.8722 82.6933C24.0807 80.0683 29.5038 78.1447 35.3894 77.7373C36.0195 77.6905 36.6497 77.5636 37.5479 77.4367C31.8098 74.8451 26.0046 74.057 20.1593 73.5026C16.4121 73.1486 12.6715 73.2021 9.11203 75.2459C9.21929 74.7917 9.27962 74.5179 9.34665 74.244C9.36666 74.1009 9.40032 73.96 9.4472 73.8232C11.9744 67.5448 15.5205 61.9609 20.7894 57.6061C24.1411 54.8208 27.9218 52.9907 32.46 53.3648C35.6978 53.6319 38.3925 54.8342 39.5254 58.1404C40.0959 59.8365 40.5242 61.5769 40.8058 63.3435C41.5994 67.7747 42.9087 72.0986 44.7071 76.2278C44.8881 75.6934 45.0088 75.3528 45.116 75.0121C45.5209 73.3875 46.0292 71.7901 46.6377 70.2298C50.6598 61.6003 56.237 54.2731 64.3347 49.0366C69.0271 45.9909 74.115 45.176 79.4777 46.8659C83.4672 48.137 87.1457 50.2256 90.2769 52.9974C94.1649 56.3971 97.8451 60.0373 101.612 63.5773C101.881 63.8244 102.122 64.0983 102.37 64.3655C102.618 64.6326 102.792 64.8397 103 65.0735C99.2489 63.7217 95.3598 62.7854 91.4031 62.2815C86.0026 61.5444 80.5581 61.174 75.1071 61.1728C69.8401 61.0499 64.6235 62.2197 59.9172 64.5792C55.3525 66.8025 51.4617 70.1929 48.642 74.4043C48.3069 74.9186 48.0387 75.4797 47.7371 76.0207C47.833 76.0455 47.9333 76.0487 48.0307 76.0303C48.128 76.0118 48.2201 75.972 48.3002 75.9138C50.2039 74.6247 52.101 73.329 54.0182 72.0532" fill="#EEF1F3"/>
</svg>
