<svg width="255" height="254" viewBox="0 0 255 254" fill="none" xmlns="http://www.w3.org/2000/svg">
<path fill-rule="evenodd" clip-rule="evenodd" d="M130.472 2.88341C130.135 -0.72676 124.865 -0.726764 124.528 2.88341L121.842 31.6999C121.535 34.9963 116.889 35.4157 115.997 32.2276L108.191 4.34906C107.213 0.85744 102.028 1.8014 102.344 5.41353L104.862 34.2319C105.15 37.5303 100.654 38.7748 99.2047 35.7978L86.5339 9.76286C84.9471 6.50241 80.0141 8.35964 80.9716 11.857L88.6056 39.7434C89.48 42.9372 85.2783 44.9667 83.3201 42.2964L66.199 18.9484C64.0546 16.024 59.533 18.7341 61.101 22.0039L73.596 48.0591C75.0282 51.0454 71.2561 53.7942 68.852 51.5161L47.8411 31.6071C45.2085 29.1125 41.2435 32.5876 43.3712 35.5246L60.3157 58.9136C62.2592 61.5963 59.0379 64.9755 56.2653 63.1626L32.0493 47.3286C29.0136 45.3436 25.7322 49.4713 28.3507 51.9812L49.1927 71.9595C51.5846 74.2523 49.0173 78.1532 45.9654 76.8633L19.3288 65.6051C15.9875 64.1928 13.4946 68.8401 16.5191 70.8428L40.5864 86.7782C43.3495 88.6077 41.5184 92.9047 38.285 92.1789L10.085 85.8482C6.54532 85.0536 4.92011 90.0712 8.25349 91.5027L34.7754 102.893C37.8207 104.201 36.7841 108.756 33.4727 108.617L4.61154 107.408C0.986784 107.256 0.280945 112.484 3.81615 113.299L31.9477 119.784C35.1775 120.529 34.9685 125.196 31.6851 125.649L3.08195 129.595C-0.511976 130.091 -0.276077 135.36 3.34778 135.533L32.1948 136.907C35.5055 137.065 36.1308 141.695 32.9806 142.725L5.54458 151.698C2.09646 152.826 3.26661 157.969 6.86323 157.494L35.5083 153.71C38.7939 153.276 40.2335 157.72 37.3175 159.295L11.9214 173.012C8.72957 174.736 10.7969 179.588 14.2512 178.48L41.7801 169.651C44.9355 168.639 47.1435 172.755 44.5555 174.824L22.0101 192.852C19.1772 195.118 22.0759 199.523 25.2773 197.818L50.8069 184.218C53.7309 182.66 56.6368 186.315 54.4603 188.813L35.49 210.583C33.1073 213.317 36.745 217.134 39.5907 214.886L62.2966 196.943C64.8954 194.889 68.4062 197.965 66.7115 200.811L51.9311 225.633C50.0757 228.749 54.3361 231.854 56.7344 229.133L75.8787 207.418C78.0687 204.933 82.0717 207.332 80.9137 210.435L70.8072 237.515C69.5393 240.912 74.2857 243.205 76.159 240.1L91.1163 215.308C92.8268 212.473 97.1934 214.117 96.6097 217.376L91.5121 245.844C90.8729 249.413 95.9527 250.819 97.2401 247.43L107.52 220.363C108.696 217.268 113.286 218.103 113.295 221.414L113.379 250.349C113.389 253.975 118.638 254.449 119.298 250.883L124.565 222.42C125.168 219.165 129.832 219.165 130.435 222.42L135.702 250.883C136.362 254.449 141.611 253.975 141.621 250.349L141.705 221.414C141.714 218.103 146.304 217.268 147.48 220.363L157.76 247.43C159.047 250.819 164.127 249.413 163.488 245.844L158.39 217.376C157.807 214.117 162.173 212.473 163.884 215.308L178.841 240.1C180.714 243.205 185.461 240.912 184.193 237.515L174.086 210.435C172.928 207.332 176.931 204.933 179.121 207.418L198.266 229.133C200.664 231.854 204.924 228.749 203.069 225.633L188.289 200.811C186.594 197.965 190.105 194.889 192.703 196.943L215.409 214.886C218.255 217.134 221.893 213.318 219.51 210.583L200.54 188.813C198.363 186.315 201.269 182.66 204.193 184.218L229.723 197.818C232.924 199.523 235.823 195.118 232.99 192.852L210.444 174.824C207.856 172.755 210.065 168.639 213.22 169.651L240.749 178.48C244.203 179.588 246.27 174.736 243.079 173.012L217.682 159.295C214.766 157.72 216.206 153.276 219.492 153.71L248.137 157.494C251.733 157.969 252.904 152.826 249.455 151.698L222.019 142.725C218.869 141.695 219.494 137.065 222.805 136.907L251.652 135.533C255.276 135.36 255.512 130.091 251.918 129.595L223.315 125.649C220.031 125.196 219.823 120.529 223.052 119.784L251.184 113.299C254.719 112.484 254.013 107.256 250.388 107.408L221.527 108.617C218.216 108.756 217.179 104.201 220.225 102.893L246.747 91.5027C250.08 90.0712 248.455 85.0536 244.915 85.8482L216.715 92.1789C213.482 92.9047 211.65 88.6077 214.414 86.7782L238.481 70.8428C241.505 68.8401 239.012 64.1928 235.671 65.6051L209.035 76.8633C205.983 78.1532 203.415 74.2523 205.807 71.9595L226.649 51.9812C229.268 49.4713 225.986 45.3436 222.951 47.3286L198.735 63.1626C195.962 64.9755 192.741 61.5962 194.684 58.9136L211.629 35.5246C213.757 32.5875 209.792 29.1125 207.159 31.6071L186.148 51.5161C183.744 53.7942 179.972 51.0454 181.404 48.0591L193.899 22.0039C195.467 18.7341 190.945 16.024 188.801 18.9484L171.68 42.2964C169.722 44.9667 165.52 42.9372 166.394 39.7434L174.028 11.857C174.986 8.35962 170.053 6.50241 168.466 9.76286L155.795 35.7978C154.346 38.7748 149.85 37.5303 150.138 34.2319L152.656 5.41355C152.972 1.80142 147.787 0.857457 146.809 4.34907L139.003 32.2276C138.111 35.4157 133.465 34.9963 133.158 31.6999L130.472 2.88341ZM104.918 43.6283C103.173 44.1008 102.318 46.039 103.075 47.6806L103.893 49.4521C104.658 51.1084 103.778 53.0539 102.056 53.6584C99.4235 54.5831 96.8571 55.649 94.3662 56.8472C92.7218 57.6382 90.7227 56.8851 90.0919 55.1727L89.4105 53.3227C88.7862 51.6279 86.8145 50.8614 85.2463 51.7574C81.8023 53.7249 78.5105 55.9284 75.3929 58.3457C73.9658 59.4523 73.9196 61.5668 75.2463 62.792L76.7045 64.1386C78.0439 65.3754 77.9763 67.5081 76.6186 68.7248C74.5485 70.5801 72.5809 72.5477 70.7256 74.6179C69.5089 75.9755 67.3762 76.0432 66.1394 74.7038L64.7926 73.2454C63.5675 71.9187 61.4529 71.9649 60.3464 73.3919C57.929 76.5096 55.7254 79.8014 53.7578 83.2454C52.8618 84.8136 53.6283 86.7853 55.3231 87.4096L57.1738 88.0913C58.8861 88.722 59.6392 90.7211 58.8482 92.3656C57.6501 94.8564 56.5841 97.4228 55.6595 100.056C55.0551 101.777 53.1095 102.657 51.4532 101.893L49.6807 101.074C48.0391 100.317 46.101 101.172 45.6285 102.917C44.6064 106.692 43.8401 110.572 43.3491 114.537C43.1276 116.326 44.5892 117.849 46.3904 117.777L48.3287 117.7C50.1496 117.628 51.6096 119.182 51.511 121.002C51.4361 122.382 51.3982 123.772 51.3982 125.171C51.3982 126.569 51.4361 127.96 51.511 129.34C51.6097 131.159 50.1496 132.714 48.3287 132.642L46.4334 132.566C44.6273 132.494 43.1641 134.025 43.3938 135.818C43.9 139.77 44.68 143.636 45.7139 147.397C46.192 149.136 48.1259 149.985 49.7634 149.229L51.4534 148.449C53.1096 147.684 55.0552 148.565 55.6596 150.286C56.5843 152.919 57.6502 155.485 58.8484 157.976C59.6394 159.62 58.8863 161.62 57.174 162.25L55.4846 162.873C53.7854 163.498 53.0204 165.478 53.9249 167.047C55.8905 170.455 58.0878 173.714 60.4952 176.8C61.6038 178.221 63.7137 178.265 64.9366 176.94L66.1396 175.638C67.3764 174.298 69.5091 174.366 70.7258 175.724C72.5812 177.794 74.5487 179.761 76.6189 181.617C77.9765 182.833 78.0441 184.966 76.7048 186.203L75.4472 187.364C74.1179 188.592 74.1674 190.711 75.6007 191.816C78.6892 194.195 81.9473 196.365 85.3537 198.305C86.9217 199.197 88.8906 198.43 89.5143 196.737L90.0921 195.169C90.7228 193.456 92.7219 192.703 94.3664 193.494C96.8572 194.692 99.4236 195.758 102.057 196.683C103.778 197.287 104.658 199.233 103.893 200.889L103.215 202.358C102.457 204.001 103.315 205.942 105.063 206.411C108.787 207.413 112.614 208.165 116.524 208.65C118.313 208.872 119.836 207.41 119.764 205.609L119.701 204.014C119.628 202.193 121.183 200.733 123.003 200.832C124.383 200.906 125.773 200.944 127.172 200.944C128.571 200.944 129.96 200.906 131.341 200.832C133.16 200.733 134.715 202.193 134.642 204.014L134.581 205.565C134.509 207.372 136.04 208.835 137.833 208.605C141.729 208.105 145.542 207.339 149.253 206.326C150.995 205.851 151.846 203.915 151.09 202.275L150.45 200.889C149.685 199.233 150.566 197.288 152.287 196.683C154.92 195.758 157.486 194.693 159.977 193.494C161.621 192.703 163.62 193.456 164.251 195.169L164.769 196.575C165.395 198.273 167.371 199.038 168.94 198.137C172.311 196.2 175.535 194.036 178.593 191.667C180.02 190.56 180.067 188.445 178.74 187.22L177.639 186.203C176.299 184.966 176.367 182.834 177.725 181.617C179.795 179.762 181.762 177.794 183.618 175.724C184.834 174.366 186.967 174.299 188.204 175.638L189.221 176.739C190.446 178.066 192.561 178.019 193.667 176.592C196.036 173.535 198.2 170.31 200.137 166.939C201.039 165.37 200.273 163.394 198.576 162.768L197.17 162.251C195.458 161.62 194.704 159.621 195.495 157.976C196.694 155.485 197.76 152.919 198.684 150.286C199.289 148.565 201.234 147.685 202.89 148.449L204.275 149.089C205.915 149.845 207.851 148.994 208.326 147.252C209.339 143.541 210.105 139.728 210.605 135.832C210.835 134.039 209.371 132.508 207.565 132.58L206.015 132.642C204.194 132.714 202.734 131.159 202.833 129.34C202.908 127.96 202.946 126.569 202.946 125.171C202.946 123.772 202.908 122.382 202.833 121.002C202.734 119.182 204.194 117.628 206.015 117.7L207.608 117.764C209.41 117.835 210.871 116.312 210.649 114.523C210.165 110.614 209.412 106.787 208.411 103.062C207.941 101.314 206.001 100.456 204.358 101.215L202.891 101.892C201.234 102.657 199.289 101.777 198.684 100.055C197.76 97.4226 196.694 94.8561 195.496 92.3653C194.705 90.7209 195.458 88.7218 197.17 88.091L198.737 87.514C200.43 86.8903 201.197 84.9214 200.304 83.3534C198.365 79.9472 196.195 76.6893 193.816 73.601C192.711 72.1676 190.592 72.1181 189.364 73.4475L188.204 74.7034C186.967 76.0428 184.835 75.9751 183.618 74.6175C181.763 72.5473 179.795 70.5798 177.725 68.7245C176.367 67.5078 176.3 65.375 177.639 64.1382L178.94 62.9367C180.264 61.7139 180.221 59.604 178.8 58.4954C175.714 56.0881 172.455 53.891 169.047 51.9254C167.478 51.0209 165.499 51.7859 164.873 53.4851L164.251 55.1724C163.621 56.8848 161.622 57.6379 159.977 56.8469C157.486 55.6487 154.92 54.5828 152.287 53.6582C150.566 53.0537 149.685 51.1082 150.45 49.4519L151.229 47.7637C151.985 46.1262 151.137 44.1924 149.398 43.7143C145.637 42.6803 141.77 41.9004 137.819 41.3941C136.026 41.1644 134.495 42.6277 134.567 44.4338L134.642 46.3273C134.715 48.1482 133.16 49.6083 131.341 49.5096C129.96 49.4348 128.571 49.3969 127.172 49.3969C125.773 49.3969 124.383 49.4348 123.003 49.5096C121.183 49.6083 119.628 48.1483 119.701 46.3274L119.778 44.3905C119.85 42.5893 118.327 41.1278 116.538 41.3492C112.573 41.8401 108.693 42.6064 104.918 43.6283Z" fill="url(#paint0_radial_81_1076)"/>
<defs>
<radialGradient id="paint0_radial_81_1076" cx="0" cy="0" r="1" gradientUnits="userSpaceOnUse" gradientTransform="translate(127.5 127) rotate(90) scale(156 156.5)">
<stop offset="0.296875" stop-color="#FFD6AF" stop-opacity="0"/>
<stop offset="0.9999" stop-color="#FFD43D" stop-opacity="0.4"/>
</radialGradient>
</defs>
</svg>
