<svg width="290" height="171" viewBox="0 0 290 171" fill="none" xmlns="http://www.w3.org/2000/svg">
<path d="M98.9186 -101.948C98.9444 -102.16 99.0281 -102.27 99.1093 -102.336C99.203 -102.412 99.341 -102.463 99.5 -102.463C99.659 -102.463 99.797 -102.412 99.8907 -102.336C99.9719 -102.27 100.056 -102.16 100.081 -101.948L104.796 -63.2177C105.146 -60.3429 109.234 -60.1287 109.883 -62.9511L118.62 -100.976C118.668 -101.185 118.763 -101.286 118.85 -101.342C118.951 -101.408 119.094 -101.444 119.252 -101.428C119.41 -101.411 119.542 -101.346 119.627 -101.261C119.701 -101.187 119.773 -101.068 119.776 -100.855L120.417 -61.8439C120.464 -58.9484 124.508 -58.3079 125.448 -61.0471L138.112 -97.9508C138.181 -98.1528 138.286 -98.2435 138.379 -98.2907C138.486 -98.3451 138.632 -98.3666 138.788 -98.3336C138.943 -98.3005 139.067 -98.2216 139.143 -98.1282C139.209 -98.0473 139.268 -97.9218 139.249 -97.709L135.808 -58.8449C135.553 -55.9602 139.507 -54.9006 140.729 -57.5265L157.181 -92.9043C157.271 -93.098 157.384 -93.1772 157.482 -93.2144C157.594 -93.2573 157.742 -93.2635 157.893 -93.2143C158.044 -93.1652 158.159 -93.0738 158.225 -92.9729C158.282 -92.8856 158.328 -92.7546 158.287 -92.545L150.802 -54.2534C150.247 -51.4113 154.069 -49.9441 155.558 -52.428L175.618 -85.8922C175.727 -86.0754 175.849 -86.1424 175.95 -86.1692C176.066 -86.2001 176.213 -86.1908 176.358 -86.1262C176.503 -86.0615 176.609 -85.9585 176.663 -85.8513C176.711 -85.7585 176.742 -85.6235 176.68 -85.4193L165.234 -48.1198C164.384 -45.3513 168.032 -43.4927 169.772 -45.8073L193.22 -76.9914C193.349 -77.1621 193.477 -77.216 193.58 -77.2321C193.699 -77.2507 193.844 -77.2261 193.981 -77.1466C194.119 -77.0671 194.213 -76.9537 194.256 -76.8414C194.294 -76.7441 194.311 -76.6065 194.227 -76.41L178.945 -40.5113C177.811 -37.8467 181.244 -35.617 183.217 -37.737L209.797 -66.2993C209.942 -66.4557 210.075 -66.4959 210.179 -66.5012C210.299 -66.5072 210.441 -66.4676 210.57 -66.3741C210.698 -66.2807 210.78 -66.158 210.811 -66.0418C210.838 -65.9411 210.841 -65.8025 210.737 -65.6158L191.786 -31.5112C190.38 -28.9799 193.561 -26.4034 195.745 -28.3056L225.164 -53.9331C225.325 -54.0734 225.461 -54.0996 225.566 -54.0939C225.686 -54.0874 225.823 -54.0332 225.941 -53.9268C226.059 -53.8204 226.127 -53.6899 226.146 -53.571C226.163 -53.4681 226.151 -53.3299 226.028 -53.1551L203.616 -21.2182C201.953 -18.8477 204.848 -15.9528 207.218 -17.6163L239.155 -40.0283C239.33 -40.151 239.468 -40.1628 239.571 -40.1463C239.69 -40.1272 239.82 -40.059 239.927 -39.9408C240.033 -39.8226 240.087 -39.6857 240.094 -39.5655C240.1 -39.4614 240.073 -39.3252 239.933 -39.1642L214.306 -9.745C212.403 -7.56138 214.98 -4.37974 217.511 -5.78637L251.616 -24.7373C251.803 -24.841 251.941 -24.8383 252.042 -24.8111C252.158 -24.7797 252.281 -24.6982 252.374 -24.5696C252.468 -24.4409 252.507 -24.2991 252.501 -24.1789C252.496 -24.0747 252.456 -23.942 252.299 -23.7965L223.737 2.78271C221.617 4.75557 223.847 8.18903 226.511 7.05472L262.41 -8.22748C262.606 -8.31114 262.744 -8.29392 262.841 -8.25636C262.954 -8.21301 263.067 -8.11913 263.147 -7.98142C263.226 -7.8437 263.251 -7.69852 263.232 -7.57958C263.216 -7.47656 263.162 -7.34879 262.991 -7.22042L231.807 16.2276C229.493 17.968 231.351 21.6158 234.12 20.7662L271.419 9.32017C271.623 9.2575 271.758 9.28901 271.851 9.33652C271.958 9.39139 272.061 9.4966 272.126 9.64188C272.191 9.78716 272.2 9.93411 272.169 10.0505C272.142 10.1512 272.075 10.2727 271.892 10.3825L238.428 30.4425C235.944 31.9314 237.411 35.7535 240.253 35.1979L278.545 27.7134C278.755 27.6725 278.886 27.7179 278.973 27.7749C279.074 27.8406 279.165 27.956 279.214 28.1073C279.263 28.2585 279.257 28.4056 279.214 28.5181C279.177 28.6155 279.098 28.7293 278.904 28.8194L243.527 45.2715C240.901 46.4926 241.96 50.4471 244.845 50.1917L283.709 46.7508C283.922 46.7319 284.047 46.7908 284.128 46.8566C284.222 46.9325 284.301 47.0569 284.334 47.2124C284.367 47.368 284.345 47.5136 284.291 47.621C284.244 47.714 284.153 47.8189 283.951 47.8882L247.047 60.5522C244.308 61.4922 244.948 65.5357 247.844 65.5833L286.855 66.2236C287.068 66.2271 287.187 66.2988 287.261 66.3727C287.346 66.4579 287.411 66.5899 287.428 66.748C287.444 66.9062 287.408 67.0488 287.342 67.1499C287.286 67.2374 287.185 67.3322 286.976 67.3801L248.951 76.1172C246.129 76.7657 246.343 80.8541 249.218 81.204L287.948 85.9186C288.16 85.9444 288.271 86.0281 288.336 86.1093C288.412 86.203 288.463 86.341 288.463 86.5C288.463 86.659 288.412 86.797 288.336 86.8907C288.271 86.9719 288.16 87.0556 287.948 87.0814L249.218 91.796C246.343 92.1459 246.129 96.2343 248.951 96.8828L286.976 105.62C287.185 105.668 287.286 105.763 287.342 105.85C287.408 105.951 287.444 106.094 287.428 106.252C287.411 106.41 287.346 106.542 287.261 106.627C287.187 106.701 287.068 106.773 286.855 106.776L247.844 107.417C244.948 107.464 244.308 111.508 247.047 112.448L283.951 125.112C284.153 125.181 284.244 125.286 284.291 125.379C284.345 125.486 284.367 125.632 284.334 125.788C284.301 125.943 284.222 126.067 284.128 126.143C284.047 126.209 283.922 126.268 283.709 126.249L244.845 122.808C241.96 122.553 240.901 126.507 243.526 127.729L278.904 144.181C279.098 144.271 279.177 144.384 279.214 144.482C279.257 144.594 279.263 144.742 279.214 144.893C279.165 145.044 279.074 145.159 278.973 145.225C278.886 145.282 278.755 145.328 278.545 145.287L240.253 137.802C237.411 137.247 235.944 141.069 238.428 142.558L271.892 162.618C272.075 162.727 272.142 162.849 272.169 162.95C272.2 163.066 272.191 163.213 272.126 163.358C272.061 163.503 271.958 163.609 271.851 163.663C271.759 163.711 271.623 163.742 271.419 163.68L234.12 152.234C231.351 151.384 229.493 155.032 231.807 156.772L262.991 180.22C263.162 180.349 263.216 180.477 263.232 180.58C263.251 180.699 263.226 180.844 263.147 180.981C263.067 181.119 262.954 181.213 262.841 181.256C262.744 181.294 262.606 181.311 262.41 181.227L226.511 165.945C223.847 164.811 221.617 168.245 223.737 170.217L252.299 196.797C252.456 196.942 252.496 197.075 252.501 197.179C252.507 197.299 252.468 197.441 252.374 197.57C252.281 197.698 252.158 197.78 252.042 197.811C251.941 197.838 251.802 197.841 251.616 197.737L217.511 178.786C214.98 177.38 212.403 180.561 214.306 182.745L239.933 212.164C240.073 212.325 240.1 212.461 240.094 212.566C240.087 212.686 240.033 212.823 239.927 212.941C239.82 213.059 239.69 213.127 239.571 213.146C239.468 213.163 239.33 213.151 239.155 213.028L207.218 190.616C204.848 188.953 201.953 191.848 203.616 194.218L226.028 226.155C226.151 226.33 226.163 226.468 226.146 226.571C226.127 226.69 226.059 226.82 225.941 226.927C225.823 227.033 225.686 227.087 225.566 227.094C225.461 227.1 225.325 227.073 225.164 226.933L195.745 201.306C193.561 199.403 190.38 201.98 191.786 204.511L210.737 238.616C210.841 238.802 210.838 238.941 210.811 239.042C210.78 239.158 210.698 239.281 210.57 239.374C210.441 239.468 210.299 239.507 210.179 239.501C210.075 239.496 209.942 239.456 209.797 239.299L183.217 210.737C181.244 208.617 177.811 210.847 178.945 213.511L194.227 249.41C194.311 249.606 194.294 249.744 194.256 249.841C194.213 249.954 194.119 250.067 193.981 250.147C193.844 250.226 193.699 250.251 193.58 250.232C193.477 250.216 193.349 250.162 193.22 249.991L169.772 218.807C168.032 216.493 164.384 218.351 165.234 221.12L176.68 258.419C176.742 258.623 176.711 258.758 176.663 258.851C176.609 258.958 176.503 259.061 176.358 259.126C176.213 259.191 176.066 259.2 175.95 259.169C175.849 259.142 175.727 259.075 175.618 258.892L155.558 225.428C154.069 222.944 150.247 224.411 150.802 227.253L158.287 265.545C158.328 265.755 158.282 265.886 158.225 265.973C158.159 266.074 158.044 266.165 157.893 266.214C157.742 266.263 157.594 266.257 157.482 266.214C157.384 266.177 157.271 266.098 157.181 265.904L140.729 230.527C139.507 227.901 135.553 228.96 135.808 231.845L139.249 270.709C139.268 270.922 139.209 271.047 139.143 271.128C139.067 271.222 138.943 271.301 138.788 271.334C138.632 271.367 138.486 271.345 138.379 271.291C138.286 271.244 138.181 271.153 138.112 270.951L125.448 234.047C124.508 231.308 120.464 231.948 120.417 234.844L119.776 273.855C119.773 274.068 119.701 274.187 119.627 274.261C119.542 274.346 119.41 274.411 119.252 274.428C119.094 274.444 118.951 274.408 118.85 274.342C118.763 274.286 118.668 274.185 118.62 273.976L109.883 235.951C109.234 233.129 105.146 233.343 104.796 236.218L100.081 274.948C100.056 275.16 99.9719 275.271 99.8907 275.336C99.797 275.412 99.659 275.463 99.5 275.463C99.341 275.463 99.203 275.412 99.1093 275.336C99.0281 275.271 98.9444 275.16 98.9186 274.948L94.204 236.218C93.8541 233.343 89.7657 233.129 89.1172 235.951L80.3801 273.976C80.3322 274.185 80.2374 274.286 80.1499 274.342C80.0488 274.408 79.9062 274.444 79.748 274.428C79.5898 274.411 79.4579 274.346 79.3727 274.261C79.2988 274.187 79.2271 274.068 79.2236 273.855L78.5833 234.844C78.5358 231.948 74.4922 231.308 73.5522 234.047L60.8882 270.951C60.8189 271.153 60.714 271.244 60.621 271.291C60.5136 271.345 60.368 271.367 60.2124 271.334C60.0569 271.301 59.9325 271.222 59.8566 271.128C59.7908 271.047 59.7319 270.922 59.7508 270.709L63.1917 231.845C63.4471 228.96 59.4926 227.901 58.2715 230.526L41.8194 265.904C41.7293 266.098 41.6155 266.177 41.5181 266.214C41.4056 266.257 41.2585 266.263 41.1073 266.214C40.956 266.165 40.8406 266.074 40.7749 265.973C40.7179 265.886 40.6725 265.755 40.7134 265.545L48.1979 227.253C48.7535 224.411 44.9314 222.944 43.4425 225.428L23.3825 258.892C23.2727 259.075 23.1512 259.142 23.0504 259.169C22.9341 259.2 22.7871 259.191 22.6419 259.126C22.4966 259.061 22.3914 258.958 22.3365 258.851C22.289 258.759 22.2575 258.623 22.3202 258.419L33.7662 221.12C34.6158 218.351 30.968 216.493 29.2276 218.807L5.77958 249.991C5.65121 250.162 5.52344 250.216 5.42042 250.232C5.30148 250.251 5.1563 250.226 5.01858 250.147C4.88087 250.067 4.78699 249.954 4.74364 249.841C4.70608 249.744 4.68886 249.606 4.77252 249.41L20.0547 213.511C21.189 210.847 17.7556 208.617 15.7827 210.737L-10.7965 239.299C-10.942 239.456 -11.0747 239.496 -11.1789 239.501C-11.2991 239.507 -11.4409 239.468 -11.5696 239.374C-11.6982 239.281 -11.7797 239.158 -11.8111 239.042C-11.8383 238.941 -11.841 238.803 -11.7373 238.616L7.21363 204.511C8.62026 201.98 5.43862 199.403 3.255 201.306L-26.1642 226.933C-26.3252 227.073 -26.4614 227.1 -26.5655 227.094C-26.6857 227.087 -26.8226 227.033 -26.9408 226.927C-27.059 226.82 -27.1272 226.69 -27.1463 226.571C-27.1628 226.468 -27.151 226.33 -27.0283 226.155L-4.61635 194.218C-2.95281 191.848 -5.84773 188.953 -8.21821 190.616L-40.1551 213.028C-40.3299 213.151 -40.4681 213.163 -40.571 213.146C-40.6899 213.127 -40.8204 213.059 -40.9268 212.941C-41.0332 212.823 -41.0874 212.686 -41.0939 212.566C-41.0996 212.461 -41.0735 212.325 -40.9331 212.164L-15.3056 182.745C-13.4034 180.561 -15.9798 177.38 -18.5112 178.786L-52.6158 197.737C-52.8025 197.841 -52.9411 197.838 -53.0418 197.811C-53.158 197.78 -53.2807 197.698 -53.3741 197.57C-53.4676 197.441 -53.5072 197.299 -53.5012 197.179C-53.4959 197.075 -53.4557 196.942 -53.2993 196.797L-24.737 170.217C-22.617 168.244 -24.8467 164.811 -27.5113 165.945L-63.41 181.227C-63.6065 181.311 -63.7441 181.294 -63.8414 181.256C-63.9537 181.213 -64.0671 181.119 -64.1466 180.981C-64.2261 180.844 -64.2507 180.699 -64.2321 180.58C-64.216 180.477 -64.1621 180.349 -63.9914 180.22L-32.8073 156.772C-30.4927 155.032 -32.3513 151.384 -35.1198 152.234L-72.4193 163.68C-72.6235 163.742 -72.7585 163.711 -72.8513 163.663C-72.9585 163.609 -73.0615 163.503 -73.1262 163.358C-73.1908 163.213 -73.2001 163.066 -73.1692 162.95C-73.1424 162.849 -73.0754 162.727 -72.8922 162.618L-39.428 142.558C-36.9441 141.069 -38.4113 137.247 -41.2534 137.802L-79.5449 145.287C-79.7546 145.328 -79.8856 145.282 -79.9729 145.225C-80.0737 145.159 -80.1652 145.044 -80.2143 144.893C-80.2635 144.742 -80.2573 144.594 -80.2144 144.482C-80.1772 144.384 -80.098 144.271 -79.9043 144.181L-44.5265 127.729C-41.9006 126.507 -42.9602 122.553 -45.8449 122.808L-84.709 126.249C-84.9218 126.268 -85.0473 126.209 -85.1282 126.143C-85.2216 126.067 -85.3005 125.943 -85.3336 125.788C-85.3666 125.632 -85.3451 125.486 -85.2907 125.379C-85.2435 125.286 -85.1528 125.181 -84.9508 125.112L-48.0471 112.448C-45.3079 111.508 -45.9483 107.464 -48.8439 107.417L-87.8548 106.776C-88.0684 106.773 -88.1871 106.701 -88.2606 106.627C-88.3456 106.542 -88.4111 106.41 -88.4277 106.252C-88.4443 106.094 -88.4077 105.951 -88.3423 105.85C-88.2857 105.763 -88.1845 105.668 -87.9763 105.62L-49.9511 96.8828C-47.1287 96.2343 -47.3429 92.1459 -50.2177 91.796L-88.9479 87.0814C-89.1599 87.0556 -89.2705 86.9719 -89.336 86.8907C-89.4115 86.797 -89.4629 86.659 -89.4629 86.5C-89.4629 86.341 -89.4115 86.203 -89.336 86.1093C-89.2705 86.0281 -89.1599 85.9444 -88.9479 85.9186L-50.2177 81.204C-47.3429 80.8541 -47.1287 76.7657 -49.9511 76.1172L-87.9763 67.3801C-88.1845 67.3322 -88.2857 67.2374 -88.3423 67.1499C-88.4077 67.0488 -88.4443 66.9062 -88.4277 66.748C-88.4111 66.5898 -88.3456 66.4579 -88.2606 66.3727C-88.1871 66.2988 -88.0684 66.2271 -87.8548 66.2236L-48.8439 65.5833C-45.9484 65.5357 -45.3079 61.4922 -48.0471 60.5522L-84.9508 47.8882C-85.1528 47.8189 -85.2435 47.714 -85.2907 47.621C-85.3451 47.5136 -85.3666 47.368 -85.3336 47.2124C-85.3005 47.0569 -85.2216 46.9325 -85.1282 46.8566C-85.0473 46.7908 -84.9218 46.7319 -84.709 46.7508L-45.8449 50.1917C-42.9602 50.4471 -41.9006 46.4926 -44.5265 45.2715L-79.9043 28.8194C-80.098 28.7293 -80.1772 28.6155 -80.2144 28.5181C-80.2573 28.4056 -80.2635 28.2585 -80.2143 28.1073C-80.1652 27.956 -80.0738 27.8406 -79.9729 27.7749C-79.8856 27.7179 -79.7546 27.6725 -79.5449 27.7134L-41.2534 35.1979C-38.4113 35.7535 -36.9441 31.9314 -39.428 30.4425L-72.8922 10.3825C-73.0754 10.2727 -73.1424 10.1512 -73.1692 10.0505C-73.2001 9.93411 -73.1908 9.78715 -73.1262 9.64188C-73.0615 9.4966 -72.9585 9.39139 -72.8513 9.33652C-72.7585 9.28901 -72.6235 9.2575 -72.4193 9.32017L-35.1198 20.7662C-32.3513 21.6158 -30.4927 17.968 -32.8073 16.2276L-63.9914 -7.22043C-64.1621 -7.3488 -64.216 -7.47656 -64.2321 -7.57958C-64.2507 -7.69852 -64.2261 -7.8437 -64.1466 -7.98142C-64.0671 -8.11914 -63.9537 -8.21301 -63.8414 -8.25637C-63.7441 -8.29392 -63.6065 -8.31114 -63.41 -8.22748L-27.5113 7.05472C-24.8467 8.18903 -22.617 4.75554 -24.737 2.7827L-53.2993 -23.7965C-53.4557 -23.942 -53.4959 -24.0747 -53.5012 -24.1789C-53.5072 -24.2991 -53.4676 -24.4409 -53.3742 -24.5696C-53.2807 -24.6982 -53.158 -24.7797 -53.0418 -24.8111C-52.9412 -24.8383 -52.8025 -24.841 -52.6158 -24.7373L-18.5112 -5.78637C-15.9798 -4.37975 -13.4034 -7.56136 -15.3056 -9.745L-40.9331 -39.1642C-41.0734 -39.3252 -41.0996 -39.4614 -41.0939 -39.5655C-41.0874 -39.6857 -41.0332 -39.8226 -40.9268 -39.9408C-40.8204 -40.059 -40.6899 -40.1272 -40.571 -40.1463C-40.468 -40.1628 -40.3299 -40.151 -40.155 -40.0283L-8.21821 -17.6163C-5.84771 -15.9528 -2.95283 -18.8477 -4.61636 -21.2182L-27.0283 -53.155C-27.151 -53.3299 -27.1628 -53.468 -27.1463 -53.571C-27.1272 -53.6899 -27.059 -53.8204 -26.9408 -53.9268C-26.8226 -54.0332 -26.6857 -54.0874 -26.5655 -54.0939C-26.4614 -54.0996 -26.3252 -54.0734 -26.1642 -53.9331L3.255 -28.3056C5.43863 -26.4034 8.62025 -28.9798 7.21363 -31.5112L-11.7373 -65.6158C-11.841 -65.8025 -11.8383 -65.9412 -11.8111 -66.0418C-11.7797 -66.158 -11.6982 -66.2807 -11.5696 -66.3742C-11.4409 -66.4676 -11.2991 -66.5072 -11.1789 -66.5012C-11.0747 -66.4959 -10.942 -66.4557 -10.7965 -66.2993L15.7827 -37.737C17.7555 -35.617 21.189 -37.8467 20.0547 -40.5113L4.77252 -76.41C4.68886 -76.6065 4.70608 -76.7441 4.74363 -76.8414C4.78699 -76.9537 4.88086 -77.0671 5.01858 -77.1466C5.1563 -77.2261 5.30148 -77.2507 5.42042 -77.2321C5.52344 -77.216 5.6512 -77.1621 5.77957 -76.9914L29.2276 -45.8073C30.968 -43.4927 34.6158 -45.3513 33.7662 -48.1198L22.3202 -85.4193C22.2575 -85.6235 22.289 -85.7585 22.3365 -85.8513C22.3914 -85.9585 22.4966 -86.0615 22.6419 -86.1262C22.7871 -86.1908 22.9341 -86.2001 23.0505 -86.1692C23.1512 -86.1424 23.2727 -86.0754 23.3825 -85.8922L43.4425 -52.428C44.9314 -49.9441 48.7535 -51.4112 48.1979 -54.2534L40.7134 -92.5449C40.6725 -92.7546 40.7179 -92.8856 40.7749 -92.9729C40.8406 -93.0738 40.956 -93.1652 41.1073 -93.2143C41.2585 -93.2635 41.4056 -93.2573 41.5181 -93.2144C41.6155 -93.1772 41.7293 -93.098 41.8194 -92.9043L58.2715 -57.5265C59.4926 -54.9006 63.4471 -55.9602 63.1917 -58.8449L59.7508 -97.709C59.7319 -97.9218 59.7908 -98.0473 59.8566 -98.1282C59.9325 -98.2216 60.0569 -98.3005 60.2124 -98.3336C60.368 -98.3666 60.5136 -98.3451 60.621 -98.2907C60.714 -98.2435 60.8189 -98.1528 60.8882 -97.9508L73.5522 -61.0471C74.4922 -58.3079 78.5357 -58.9483 78.5833 -61.8439L79.2236 -100.855C79.2271 -101.068 79.2988 -101.187 79.3727 -101.261C79.4579 -101.346 79.5899 -101.411 79.748 -101.428C79.9062 -101.444 80.0488 -101.408 80.1499 -101.342C80.2374 -101.286 80.3322 -101.185 80.3801 -100.976L89.1172 -62.9511C89.7657 -60.1287 93.8541 -60.3429 94.204 -63.2177L98.9186 -101.948Z" stroke="#1B96D2" stroke-opacity="0.18" stroke-width="2"/>
</svg>
